<?xml version="1.0" encoding="UTF-8" standalone="no"?>
<!-- Created with Inkscape (http://www.inkscape.org/) -->

<svg
   xmlns:ns0="http://www.iki.fi/pav/software/textext/"
   xmlns:dc="http://purl.org/dc/elements/1.1/"
   xmlns:cc="http://creativecommons.org/ns#"
   xmlns:rdf="http://www.w3.org/1999/02/22-rdf-syntax-ns#"
   xmlns:svg="http://www.w3.org/2000/svg"
   xmlns="http://www.w3.org/2000/svg"
   xmlns:sodipodi="http://sodipodi.sourceforge.net/DTD/sodipodi-0.dtd"
   xmlns:inkscape="http://www.inkscape.org/namespaces/inkscape"
   width="114.06198mm"
   height="132.26831mm"
   viewBox="0 0 114.06198 132.26831"
   version="1.1"
   id="svg8"
   inkscape:version="0.92.3 (2405546, 2018-03-11)"
   sodipodi:docname="parallel-KVL-KJL-problem.svg"
   inkscape:export-filename="/home/mpnerem/odu/U-Phys-II/Test-Bank/Current-and-Resistance/0000/circuit-series-parallel-series.png"
   inkscape:export-xdpi="270"
   inkscape:export-ydpi="270">
  <sodipodi:namedview
     id="base"
     pagecolor="#ffffff"
     bordercolor="#666666"
     borderopacity="1.0"
     inkscape:pageopacity="0.0"
     inkscape:pageshadow="2"
     inkscape:zoom="0.98994949"
     inkscape:cx="196.30644"
     inkscape:cy="102.00556"
     inkscape:document-units="mm"
     inkscape:current-layer="svg8"
     showgrid="false"
     inkscape:window-width="1920"
     inkscape:window-height="1035"
     inkscape:window-x="1920"
     inkscape:window-y="20"
     inkscape:window-maximized="1"
     inkscape:snap-object-midpoints="true"
     fit-margin-top="0"
     fit-margin-left="0"
     fit-margin-right="0"
     fit-margin-bottom="0" />
  <defs
     id="defs2">
    <marker
       id="arrowCurrentStart"
       orient="auto"
       refX="0"
       refY="0"
       style="overflow:visible"
       inkscape:stockid="arrowCurrentStart">
      <path
         inkscape:connector-curvature="0"
         d="M 0,0 5,-5 -12.5,0 5,5 Z"
         style="fill:#ff0000;fill-rule:evenodd;stroke:#ff0000;stroke-width:1"
         transform="matrix(0.25,0,0,0.25,1.823125,0)"
         id="path3391" />
    </marker>
    <marker
       id="arrowCurrentEnd"
       orient="auto"
       refX="0"
       refY="0"
       style="overflow:visible"
       inkscape:stockid="arrowCurrentEnd">
      <path
         inkscape:connector-curvature="0"
         d="M 0,0 5,-5 -12.5,0 5,5 Z"
         style="fill:#ff0000;fill-rule:evenodd;stroke:#ff0000;stroke-width:1"
         transform="matrix(-0.25,0,0,-0.25,-1.823125,0)"
         id="path3394" />
    </marker>
  </defs>
  <metadata
     id="metadata5">
    <rdf:RDF>
      <cc:Work
         rdf:about="">
        <dc:format>image/svg+xml</dc:format>
        <dc:type
           rdf:resource="http://purl.org/dc/dcmitype/StillImage" />
        <dc:title></dc:title>
      </cc:Work>
    </rdf:RDF>
  </metadata>
  <g
     transform="translate(-38.624765,-78.634922)"
     id="layer1"
     inkscape:groupmode="layer"
     inkscape:label="Layer 1" />
  <g
     id="g1145"
     transform="translate(-6.4734206,-32.852629)">
    <g
       transform="translate(-16.570711,-40.624968)"
       id="g997"
       inkscape:label="Source">
      <path
         id="path983"
         inkscape:label="none"
         style="fill:none;stroke:#000000;stroke-width:1;stroke-linecap:round;stroke-linejoin:round;stroke-dasharray:none"
         d="M 30,90 H 54"
         inkscape:connector-curvature="0" />
      <path
         id="path987"
         inkscape:label="none"
         style="fill:none;stroke:#000000;stroke-width:0.60000002;stroke-linecap:round;stroke-linejoin:round;stroke-dasharray:none"
         d="M 61,86 H 59"
         inkscape:connector-curvature="0" />
      <path
         id="path989"
         inkscape:label="none"
         style="fill:none;stroke:#000000;stroke-width:0.60000002;stroke-linecap:round;stroke-linejoin:round;stroke-dasharray:none"
         d="m 60,85 v 2"
         inkscape:connector-curvature="0" />
      <path
         id="path991"
         inkscape:label="none"
         style="fill:none;stroke:#000000;stroke-width:0.60000002;stroke-linecap:round;stroke-linejoin:round;stroke-dasharray:none"
         d="m 51,85 v 2"
         inkscape:connector-curvature="0" />
      <path
         id="path993"
         inkscape:label="none"
         style="fill:none;stroke:#000000;stroke-width:1;stroke-linecap:round;stroke-linejoin:round;stroke-dasharray:none"
         d="M 54,93 V 87"
         inkscape:connector-curvature="0" />
      <path
         id="path995"
         inkscape:label="none"
         style="fill:none;stroke:#000000;stroke-width:1;stroke-linecap:round;stroke-linejoin:round;stroke-dasharray:none"
         d="M 57,97 V 83"
         inkscape:connector-curvature="0" />
    </g>
    <g
       id="g1058"
       style="fill-opacity:1;stroke:#000000;stroke-opacity:1"
       ns0:jacobian_sqrt="0.739645"
       inkscapeversion="0.92.3"
       ns0:alignment="middle center"
       ns0:scale="2.83464566935"
       ns0:preamble="/home/mpnerem/.config/inkscape/extensions/textext/default_packages.tex"
       ns0:text=" $10\\si\\volt$"
       ns0:pdfconverter="pdf2svg"
       ns0:texconverter="pdflatex"
       ns0:version="0.11.0"
       transform="matrix(0.739645,0,0,0.739645,-67.218074,-61.786797)">
      <g
         style="fill-opacity:1;stroke:#000000;stroke-opacity:1"
         id="surface1">
        <g
           id="g1055"
           style="fill:#000000;fill-opacity:1;stroke:#000000;stroke-opacity:1">
          <path
             id="path1049"
             transform="translate(133.768,134.765)"
             d="m 2.9375,-6.375 c 0,-0.25 0,-0.265625 -0.234375,-0.265625 C 2.078125,-6 1.203125,-6 0.890625,-6 v 0.3125 c 0.203125,0 0.78125,0 1.296875,-0.265625 v 5.171875 c 0,0.359375 -0.03125,0.46875 -0.921875,0.46875 h -0.3125 V 0 c 0.34375,-0.03125 1.203125,-0.03125 1.609375,-0.03125 0.390625,0 1.265625,0 1.609375,0.03125 v -0.3125 h -0.3125 c -0.90625,0 -0.921875,-0.109375 -0.921875,-0.46875 z m 0,0"
             style="fill-opacity:1;stroke:#000000;stroke-width:0;stroke-opacity:1"
             inkscape:connector-curvature="0" />
          <path
             id="path1051"
             transform="translate(138.7493,134.765)"
             d="m 4.578125,-3.1875 c 0,-0.796875 -0.046875,-1.59375 -0.390625,-2.328125 -0.453125,-0.96875 -1.28125,-1.125 -1.6875,-1.125 -0.609375,0 -1.328125,0.265625 -1.75,1.1875 -0.3125,0.6875 -0.359375,1.46875 -0.359375,2.265625 0,0.75 0.03125,1.640625 0.453125,2.40625 0.421875,0.796875 1.15625,1 1.640625,1 0.53125,0 1.296875,-0.203125 1.734375,-1.15625 0.3125,-0.6875 0.359375,-1.46875 0.359375,-2.25 z M 2.484375,0 C 2.09375,0 1.5,-0.25 1.328125,-1.203125 1.21875,-1.796875 1.21875,-2.71875 1.21875,-3.3125 c 0,-0.640625 0,-1.296875 0.078125,-1.828125 0.1875,-1.1875 0.9375,-1.28125 1.1875,-1.28125 0.328125,0 0.984375,0.1875 1.171875,1.171875 0.109375,0.5625 0.109375,1.3125 0.109375,1.9375 0,0.75 0,1.421875 -0.109375,2.0625 C 3.5,-0.296875 2.9375,0 2.484375,0 Z m 0,0"
             style="fill-opacity:1;stroke:#000000;stroke-width:0;stroke-opacity:1"
             inkscape:connector-curvature="0" />
          <path
             id="path1053"
             transform="translate(143.7306,134.765)"
             d="M 6.1875,-5.828125 C 6.328125,-6.203125 6.59375,-6.484375 7.28125,-6.5 v -0.3125 c -0.3125,0.03125 -0.71875,0.03125 -0.96875,0.03125 -0.296875,0 -0.875,-0.015625 -1.140625,-0.03125 V -6.5 C 5.6875,-6.484375 5.90625,-6.234375 5.90625,-6 c 0,0.078125 -0.03125,0.140625 -0.046875,0.203125 L 4.03125,-1 2.125,-6.03125 C 2.0625,-6.171875 2.0625,-6.1875 2.0625,-6.203125 2.0625,-6.5 2.625,-6.5 2.875,-6.5 v -0.3125 c -0.359375,0.03125 -1.046875,0.03125 -1.421875,0.03125 -0.46875,0 -0.90625,-0.015625 -1.265625,-0.03125 V -6.5 c 0.65625,0 0.84375,0 0.984375,0.375 L 3.484375,0 c 0.0625,0.1875 0.109375,0.21875 0.25,0.21875 0.15625,0 0.1875,-0.046875 0.234375,-0.1875 z m 0,0"
             style="fill-opacity:1;stroke:#000000;stroke-width:0;stroke-opacity:1"
             inkscape:connector-curvature="0" />
        </g>
      </g>
    </g>
  </g>
  <g
     transform="translate(26.955868,-73.477597)"
     id="g1098">
    <path
       sodipodi:nodetypes="cccccccccc"
       inkscape:connector-curvature="0"
       d="M 7.0000002,89.999999 45.5,90 l 2,3 3,-6 3,6 3,-6 3,6 3,-6 2,3 H 80"
       style="fill:none;stroke:#000000;stroke-width:1;stroke-linecap:round;stroke-linejoin:round;stroke-dasharray:none"
       inkscape:label="none"
       id="path1096" />
  </g>
  <path
     inkscape:connector-curvature="0"
     d="M 6.9558706,16.522403 V 116.5224"
     style="fill:none;stroke:#000000;stroke-width:1;stroke-linecap:round;stroke-linejoin:round;stroke-dasharray:none"
     inkscape:label="none"
     id="path1149"
     sodipodi:nodetypes="cc" />
  <g
     transform="translate(-23.044131,-23.477597)"
     id="g1211"
     inkscape:label="Source">
    <path
       id="path1199"
       inkscape:label="none"
       style="fill:none;stroke:#000000;stroke-width:1;stroke-linecap:round;stroke-linejoin:round;stroke-dasharray:none"
       d="M 30,90 H 54"
       inkscape:connector-curvature="0" />
    <path
       id="path1201"
       inkscape:label="none"
       style="fill:none;stroke:#000000;stroke-width:0.60000002;stroke-linecap:round;stroke-linejoin:round;stroke-dasharray:none"
       d="M 61,86 H 59"
       inkscape:connector-curvature="0" />
    <path
       id="path1203"
       inkscape:label="none"
       style="fill:none;stroke:#000000;stroke-width:0.60000002;stroke-linecap:round;stroke-linejoin:round;stroke-dasharray:none"
       d="m 60,85 v 2"
       inkscape:connector-curvature="0" />
    <path
       id="path1205"
       inkscape:label="none"
       style="fill:none;stroke:#000000;stroke-width:0.60000002;stroke-linecap:round;stroke-linejoin:round;stroke-dasharray:none"
       d="m 51,85 v 2"
       inkscape:connector-curvature="0" />
    <path
       id="path1207"
       inkscape:label="none"
       style="fill:none;stroke:#000000;stroke-width:1;stroke-linecap:round;stroke-linejoin:round;stroke-dasharray:none"
       d="M 54,93 V 87"
       inkscape:connector-curvature="0" />
    <path
       id="path1209"
       inkscape:label="none"
       style="fill:none;stroke:#000000;stroke-width:1;stroke-linecap:round;stroke-linejoin:round;stroke-dasharray:none"
       d="M 57,97 V 83"
       inkscape:connector-curvature="0" />
  </g>
  <g
     transform="translate(26.955869,-23.477597)"
     id="g1229">
    <path
       id="path1227"
       inkscape:label="none"
       style="fill:none;stroke:#000000;stroke-width:1;stroke-linecap:round;stroke-linejoin:round;stroke-dasharray:none"
       d="M 7.0000002,89.999999 45.5,90 l 2,3 3,-6 3,6 3,-6 3,6 3,-6 2,3 H 80"
       inkscape:connector-curvature="0"
       sodipodi:nodetypes="cccccccccc" />
  </g>
  <g
     inkscape:label="Source"
     id="g1283"
     transform="matrix(-1,0,0,1,136.95587,26.522403)">
    <path
       inkscape:connector-curvature="0"
       d="M 30,90 H 54"
       style="fill:none;stroke:#000000;stroke-width:1;stroke-linecap:round;stroke-linejoin:round;stroke-dasharray:none"
       inkscape:label="none"
       id="path1271" />
    <path
       inkscape:connector-curvature="0"
       d="M 61,86 H 59"
       style="fill:none;stroke:#000000;stroke-width:0.60000002;stroke-linecap:round;stroke-linejoin:round;stroke-dasharray:none"
       inkscape:label="none"
       id="path1273" />
    <path
       inkscape:connector-curvature="0"
       d="m 60,85 v 2"
       style="fill:none;stroke:#000000;stroke-width:0.60000002;stroke-linecap:round;stroke-linejoin:round;stroke-dasharray:none"
       inkscape:label="none"
       id="path1275" />
    <path
       inkscape:connector-curvature="0"
       d="m 51,85 v 2"
       style="fill:none;stroke:#000000;stroke-width:0.60000002;stroke-linecap:round;stroke-linejoin:round;stroke-dasharray:none"
       inkscape:label="none"
       id="path1277" />
    <path
       inkscape:connector-curvature="0"
       d="M 54,93 V 87"
       style="fill:none;stroke:#000000;stroke-width:1;stroke-linecap:round;stroke-linejoin:round;stroke-dasharray:none"
       inkscape:label="none"
       id="path1279" />
    <path
       inkscape:connector-curvature="0"
       d="M 57,97 V 83"
       style="fill:none;stroke:#000000;stroke-width:1;stroke-linecap:round;stroke-linejoin:round;stroke-dasharray:none"
       inkscape:label="none"
       id="path1281" />
  </g>
  <g
     id="g1301"
     transform="rotate(-180,43.477935,103.2612)">
    <path
       sodipodi:nodetypes="cccccccccc"
       inkscape:connector-curvature="0"
       d="M 7.0000002,89.999999 45.5,90 l 2,3 3,-6 3,6 3,-6 3,6 3,-6 2,3 H 80"
       style="fill:none;stroke:#000000;stroke-width:1;stroke-linecap:round;stroke-linejoin:round;stroke-dasharray:none"
       inkscape:label="none"
       id="path1299" />
  </g>
  <g
     transform="matrix(0.739645,0,0,0.739645,-75.337229,10.504342)"
     ns0:version="0.11.0"
     ns0:texconverter="pdflatex"
     ns0:pdfconverter="pdf2svg"
     ns0:text=" $100\\si\\ohm$"
     ns0:preamble="/home/mpnerem/.config/inkscape/extensions/textext/default_packages.tex"
     ns0:scale="2.83464566935"
     ns0:alignment="middle center"
     inkscapeversion="0.92.3"
     ns0:jacobian_sqrt="0.739645"
     style="fill-opacity:1;stroke:#000000;stroke-opacity:1"
     id="g1459">
    <g
       id="g1457"
       style="fill-opacity:1;stroke:#000000;stroke-opacity:1">
      <g
         style="fill:#000000;fill-opacity:1;stroke:#000000;stroke-opacity:1"
         id="g1455">
        <path
           style="fill-opacity:1;stroke:#000000;stroke-width:0;stroke-opacity:1"
           d="m 2.9375,-6.375 c 0,-0.25 0,-0.265625 -0.234375,-0.265625 C 2.078125,-6 1.203125,-6 0.890625,-6 v 0.3125 c 0.203125,0 0.78125,0 1.296875,-0.265625 v 5.171875 c 0,0.359375 -0.03125,0.46875 -0.921875,0.46875 h -0.3125 V 0 c 0.34375,-0.03125 1.203125,-0.03125 1.609375,-0.03125 0.390625,0 1.265625,0 1.609375,0.03125 v -0.3125 h -0.3125 c -0.90625,0 -0.921875,-0.109375 -0.921875,-0.46875 z m 0,0"
           transform="translate(133.768,134.765)"
           id="path1447"
           inkscape:connector-curvature="0" />
        <path
           style="fill-opacity:1;stroke:#000000;stroke-width:0;stroke-opacity:1"
           d="m 4.578125,-3.1875 c 0,-0.796875 -0.046875,-1.59375 -0.390625,-2.328125 -0.453125,-0.96875 -1.28125,-1.125 -1.6875,-1.125 -0.609375,0 -1.328125,0.265625 -1.75,1.1875 -0.3125,0.6875 -0.359375,1.46875 -0.359375,2.265625 0,0.75 0.03125,1.640625 0.453125,2.40625 0.421875,0.796875 1.15625,1 1.640625,1 0.53125,0 1.296875,-0.203125 1.734375,-1.15625 0.3125,-0.6875 0.359375,-1.46875 0.359375,-2.25 z M 2.484375,0 C 2.09375,0 1.5,-0.25 1.328125,-1.203125 1.21875,-1.796875 1.21875,-2.71875 1.21875,-3.3125 c 0,-0.640625 0,-1.296875 0.078125,-1.828125 0.1875,-1.1875 0.9375,-1.28125 1.1875,-1.28125 0.328125,0 0.984375,0.1875 1.171875,1.171875 0.109375,0.5625 0.109375,1.3125 0.109375,1.9375 0,0.75 0,1.421875 -0.109375,2.0625 C 3.5,-0.296875 2.9375,0 2.484375,0 Z m 0,0"
           transform="translate(138.7493,134.765)"
           id="path1449"
           inkscape:connector-curvature="0" />
        <path
           style="fill-opacity:1;stroke:#000000;stroke-width:0;stroke-opacity:1"
           d="m 4.578125,-3.1875 c 0,-0.796875 -0.046875,-1.59375 -0.390625,-2.328125 -0.453125,-0.96875 -1.28125,-1.125 -1.6875,-1.125 -0.609375,0 -1.328125,0.265625 -1.75,1.1875 -0.3125,0.6875 -0.359375,1.46875 -0.359375,2.265625 0,0.75 0.03125,1.640625 0.453125,2.40625 0.421875,0.796875 1.15625,1 1.640625,1 0.53125,0 1.296875,-0.203125 1.734375,-1.15625 0.3125,-0.6875 0.359375,-1.46875 0.359375,-2.25 z M 2.484375,0 C 2.09375,0 1.5,-0.25 1.328125,-1.203125 1.21875,-1.796875 1.21875,-2.71875 1.21875,-3.3125 c 0,-0.640625 0,-1.296875 0.078125,-1.828125 0.1875,-1.1875 0.9375,-1.28125 1.1875,-1.28125 0.328125,0 0.984375,0.1875 1.171875,1.171875 0.109375,0.5625 0.109375,1.3125 0.109375,1.9375 0,0.75 0,1.421875 -0.109375,2.0625 C 3.5,-0.296875 2.9375,0 2.484375,0 Z m 0,0"
           transform="translate(143.7306,134.765)"
           id="path1451"
           inkscape:connector-curvature="0" />
        <path
           style="fill-opacity:1;stroke:#000000;stroke-width:0;stroke-opacity:1"
           d="M 6.75,-1.609375 H 6.5 c -0.046875,0.25 -0.09375,0.484375 -0.1875,0.71875 -0.046875,0.15625 -0.078125,0.25 -0.65625,0.25 H 4.859375 C 5,-1.203125 5.296875,-1.6875 5.75,-2.34375 c 0.46875,-0.703125 0.875,-1.390625 0.875,-2.1875 0,-1.375 -1.34375,-2.5 -3.03125,-2.5 -1.703125,0 -3.03125,1.140625 -3.03125,2.5 0,0.796875 0.40625,1.484375 0.875,2.1875 0.4375,0.65625 0.75,1.140625 0.890625,1.703125 H 1.53125 C 0.953125,-0.640625 0.921875,-0.734375 0.875,-0.875 0.78125,-1.109375 0.734375,-1.359375 0.6875,-1.609375 h -0.25 L 0.765625,0 h 1.59375 c 0.21875,0 0.25,0 0.25,-0.203125 0,-0.703125 -0.3125,-1.578125 -0.53125,-2.21875 -0.21875,-0.578125 -0.5,-1.359375 -0.5,-2.109375 0,-1.59375 1.109375,-2.28125 2.015625,-2.28125 0.953125,0 2.015625,0.71875 2.015625,2.28125 0,0.75 -0.28125,1.5 -0.5625,2.3125 -0.15625,0.421875 -0.46875,1.328125 -0.46875,2.015625 C 4.578125,0 4.609375,0 4.828125,0 h 1.59375 z m 0,0"
           transform="translate(148.7119,134.765)"
           id="path1453"
           inkscape:connector-curvature="0" />
      </g>
    </g>
  </g>
  <g
     id="g1661"
     style="fill-opacity:1;stroke:#000000;stroke-opacity:1"
     ns0:jacobian_sqrt="0.739645"
     inkscapeversion="0.92.3"
     ns0:alignment="middle center"
     ns0:scale="2.83464566935"
     ns0:preamble="/home/mpnerem/.config/inkscape/extensions/textext/default_packages.tex"
     ns0:text=" $40\\si\\volt$"
     ns0:pdfconverter="pdf2svg"
     ns0:texconverter="pdflatex"
     ns0:version="0.11.0"
     transform="matrix(0.739645,0,0,0.739645,-23.466153,5.3605728)">
    <g
       style="fill-opacity:1;stroke:#000000;stroke-opacity:1"
       id="g1659">
      <g
         id="g1657"
         style="fill:#000000;fill-opacity:1;stroke:#000000;stroke-opacity:1">
        <path
           id="path1651"
           transform="translate(133.768,134.765)"
           d="m 2.9375,-1.640625 v 0.859375 c 0,0.359375 -0.03125,0.46875 -0.765625,0.46875 H 1.96875 V 0 C 2.375,-0.03125 2.890625,-0.03125 3.3125,-0.03125 c 0.421875,0 0.9375,0 1.359375,0.03125 v -0.3125 h -0.21875 c -0.734375,0 -0.75,-0.109375 -0.75,-0.46875 V -1.640625 H 4.6875 v -0.3125 H 3.703125 v -4.53125 c 0,-0.203125 0,-0.265625 -0.171875,-0.265625 -0.078125,0 -0.109375,0 -0.1875,0.125 l -3.0625,4.671875 v 0.3125 z m 0.046875,-0.3125 H 0.5625 l 2.421875,-3.71875 z m 0,0"
           style="fill-opacity:1;stroke:#000000;stroke-width:0;stroke-opacity:1"
           inkscape:connector-curvature="0" />
        <path
           id="path1653"
           transform="translate(138.7493,134.765)"
           d="m 4.578125,-3.1875 c 0,-0.796875 -0.046875,-1.59375 -0.390625,-2.328125 -0.453125,-0.96875 -1.28125,-1.125 -1.6875,-1.125 -0.609375,0 -1.328125,0.265625 -1.75,1.1875 -0.3125,0.6875 -0.359375,1.46875 -0.359375,2.265625 0,0.75 0.03125,1.640625 0.453125,2.40625 0.421875,0.796875 1.15625,1 1.640625,1 0.53125,0 1.296875,-0.203125 1.734375,-1.15625 0.3125,-0.6875 0.359375,-1.46875 0.359375,-2.25 z M 2.484375,0 C 2.09375,0 1.5,-0.25 1.328125,-1.203125 1.21875,-1.796875 1.21875,-2.71875 1.21875,-3.3125 c 0,-0.640625 0,-1.296875 0.078125,-1.828125 0.1875,-1.1875 0.9375,-1.28125 1.1875,-1.28125 0.328125,0 0.984375,0.1875 1.171875,1.171875 0.109375,0.5625 0.109375,1.3125 0.109375,1.9375 0,0.75 0,1.421875 -0.109375,2.0625 C 3.5,-0.296875 2.9375,0 2.484375,0 Z m 0,0"
           style="fill-opacity:1;stroke:#000000;stroke-width:0;stroke-opacity:1"
           inkscape:connector-curvature="0" />
        <path
           id="path1655"
           transform="translate(143.7306,134.765)"
           d="M 6.1875,-5.828125 C 6.328125,-6.203125 6.59375,-6.484375 7.28125,-6.5 v -0.3125 c -0.3125,0.03125 -0.71875,0.03125 -0.96875,0.03125 -0.296875,0 -0.875,-0.015625 -1.140625,-0.03125 V -6.5 C 5.6875,-6.484375 5.90625,-6.234375 5.90625,-6 c 0,0.078125 -0.03125,0.140625 -0.046875,0.203125 L 4.03125,-1 2.125,-6.03125 C 2.0625,-6.171875 2.0625,-6.1875 2.0625,-6.203125 2.0625,-6.5 2.625,-6.5 2.875,-6.5 v -0.3125 c -0.359375,0.03125 -1.046875,0.03125 -1.421875,0.03125 -0.46875,0 -0.90625,-0.015625 -1.265625,-0.03125 V -6.5 c 0.65625,0 0.84375,0 0.984375,0.375 L 3.484375,0 c 0.0625,0.1875 0.109375,0.21875 0.25,0.21875 0.15625,0 0.1875,-0.046875 0.234375,-0.1875 z m 0,0"
           style="fill-opacity:1;stroke:#000000;stroke-width:0;stroke-opacity:1"
           inkscape:connector-curvature="0" />
      </g>
    </g>
  </g>
  <g
     transform="matrix(0.739645,0,0,0.739645,-73.51814,-44.639426)"
     ns0:version="0.11.0"
     ns0:texconverter="pdflatex"
     ns0:pdfconverter="pdf2svg"
     ns0:text="$30\\si\\volt$"
     ns0:preamble="/home/mpnerem/.config/inkscape/extensions/textext/default_packages.tex"
     ns0:scale="2.83464566935"
     ns0:alignment="middle center"
     inkscapeversion="0.92.3"
     ns0:jacobian_sqrt="0.739645"
     style="fill-opacity:1;stroke:#000000;stroke-opacity:1"
     id="g1894">
    <g
       id="g1892"
       style="fill-opacity:1;stroke:#000000;stroke-opacity:1">
      <g
         style="fill:#000000;fill-opacity:1;stroke:#000000;stroke-opacity:1"
         id="g1890">
        <path
           style="fill-opacity:1;stroke:#000000;stroke-width:0;stroke-opacity:1"
           d="m 2.890625,-3.515625 c 0.8125,-0.265625 1.390625,-0.953125 1.390625,-1.75 0,-0.8125 -0.875,-1.375 -1.828125,-1.375 -1,0 -1.765625,0.59375 -1.765625,1.359375 0,0.328125 0.21875,0.515625 0.515625,0.515625 0.296875,0 0.5,-0.21875 0.5,-0.515625 0,-0.484375 -0.46875,-0.484375 -0.609375,-0.484375 0.296875,-0.5 0.953125,-0.625 1.3125,-0.625 0.421875,0 0.96875,0.21875 0.96875,1.109375 0,0.125 -0.03125,0.703125 -0.28125,1.140625 C 2.796875,-3.65625 2.453125,-3.625 2.203125,-3.625 2.125,-3.609375 1.890625,-3.59375 1.8125,-3.59375 c -0.078125,0.015625 -0.140625,0.03125 -0.140625,0.125 0,0.109375 0.0625,0.109375 0.234375,0.109375 h 0.4375 c 0.8125,0 1.1875,0.671875 1.1875,1.65625 0,1.359375 -0.6875,1.640625 -1.125,1.640625 -0.4375,0 -1.1875,-0.171875 -1.53125,-0.75 0.34375,0.046875 0.65625,-0.171875 0.65625,-0.546875 0,-0.359375 -0.265625,-0.5625 -0.546875,-0.5625 -0.25,0 -0.5625,0.140625 -0.5625,0.578125 0,0.90625 0.921875,1.5625 2.015625,1.5625 1.21875,0 2.125,-0.90625 2.125,-1.921875 0,-0.8125 -0.640625,-1.59375 -1.671875,-1.8125 z m 0,0"
           transform="translate(133.768,134.765)"
           id="path1884"
           inkscape:connector-curvature="0" />
        <path
           style="fill-opacity:1;stroke:#000000;stroke-width:0;stroke-opacity:1"
           d="m 4.578125,-3.1875 c 0,-0.796875 -0.046875,-1.59375 -0.390625,-2.328125 -0.453125,-0.96875 -1.28125,-1.125 -1.6875,-1.125 -0.609375,0 -1.328125,0.265625 -1.75,1.1875 -0.3125,0.6875 -0.359375,1.46875 -0.359375,2.265625 0,0.75 0.03125,1.640625 0.453125,2.40625 0.421875,0.796875 1.15625,1 1.640625,1 0.53125,0 1.296875,-0.203125 1.734375,-1.15625 0.3125,-0.6875 0.359375,-1.46875 0.359375,-2.25 z M 2.484375,0 C 2.09375,0 1.5,-0.25 1.328125,-1.203125 1.21875,-1.796875 1.21875,-2.71875 1.21875,-3.3125 c 0,-0.640625 0,-1.296875 0.078125,-1.828125 0.1875,-1.1875 0.9375,-1.28125 1.1875,-1.28125 0.328125,0 0.984375,0.1875 1.171875,1.171875 0.109375,0.5625 0.109375,1.3125 0.109375,1.9375 0,0.75 0,1.421875 -0.109375,2.0625 C 3.5,-0.296875 2.9375,0 2.484375,0 Z m 0,0"
           transform="translate(138.7493,134.765)"
           id="path1886"
           inkscape:connector-curvature="0" />
        <path
           style="fill-opacity:1;stroke:#000000;stroke-width:0;stroke-opacity:1"
           d="M 6.1875,-5.828125 C 6.328125,-6.203125 6.59375,-6.484375 7.28125,-6.5 v -0.3125 c -0.3125,0.03125 -0.71875,0.03125 -0.96875,0.03125 -0.296875,0 -0.875,-0.015625 -1.140625,-0.03125 V -6.5 C 5.6875,-6.484375 5.90625,-6.234375 5.90625,-6 c 0,0.078125 -0.03125,0.140625 -0.046875,0.203125 L 4.03125,-1 2.125,-6.03125 C 2.0625,-6.171875 2.0625,-6.1875 2.0625,-6.203125 2.0625,-6.5 2.625,-6.5 2.875,-6.5 v -0.3125 c -0.359375,0.03125 -1.046875,0.03125 -1.421875,0.03125 -0.46875,0 -0.90625,-0.015625 -1.265625,-0.03125 V -6.5 c 0.65625,0 0.84375,0 0.984375,0.375 L 3.484375,0 c 0.0625,0.1875 0.109375,0.21875 0.25,0.21875 0.15625,0 0.1875,-0.046875 0.234375,-0.1875 z m 0,0"
           transform="translate(143.7306,134.765)"
           id="path1888"
           inkscape:connector-curvature="0" />
      </g>
    </g>
  </g>
  <g
     id="g2099"
     style="fill-opacity:1;stroke:#000000;stroke-opacity:1"
     ns0:jacobian_sqrt="0.739645"
     inkscapeversion="0.92.3"
     ns0:alignment="middle center"
     ns0:scale="2.83464566935"
     ns0:preamble="/home/mpnerem/.config/inkscape/extensions/textext/default_packages.tex"
     ns0:text=" $75\\si\\ohm$"
     ns0:pdfconverter="pdf2svg"
     ns0:texconverter="pdflatex"
     ns0:version="0.11.0"
     transform="matrix(0.739645,0,0,0.739645,-23.37368,-39.495657)">
    <g
       style="fill-opacity:1;stroke:#000000;stroke-opacity:1"
       id="g2097">
      <g
         id="g2095"
         style="fill:#000000;fill-opacity:1;stroke:#000000;stroke-opacity:1">
        <path
           id="path2089"
           transform="translate(133.768,134.765)"
           d="m 4.75,-6.078125 c 0.078125,-0.109375 0.078125,-0.125 0.078125,-0.34375 H 2.40625 c -1.203125,0 -1.234375,-0.125 -1.265625,-0.3125 h -0.25 L 0.5625,-4.6875 h 0.25 c 0.03125,-0.15625 0.109375,-0.78125 0.25,-0.90625 0.0625,-0.0625 0.84375,-0.0625 0.96875,-0.0625 h 2.0625 C 3.984375,-5.5 3.203125,-4.40625 2.984375,-4.078125 2.078125,-2.734375 1.75,-1.34375 1.75,-0.328125 c 0,0.09375 0,0.546875 0.46875,0.546875 0.453125,0 0.453125,-0.453125 0.453125,-0.546875 V -0.84375 c 0,-0.546875 0.03125,-1.09375 0.109375,-1.625 0.046875,-0.234375 0.171875,-1.09375 0.625,-1.703125 z m 0,0"
           style="fill-opacity:1;stroke:#000000;stroke-width:0;stroke-opacity:1"
           inkscape:connector-curvature="0" />
        <path
           id="path2091"
           transform="translate(138.7493,134.765)"
           d="m 4.46875,-2 c 0,-1.1875 -0.8125,-2.1875 -1.890625,-2.1875 -0.46875,0 -0.90625,0.15625 -1.265625,0.515625 V -5.625 c 0.203125,0.0625 0.53125,0.125 0.84375,0.125 1.234375,0 1.9375,-0.90625 1.9375,-1.03125 0,-0.0625 -0.03125,-0.109375 -0.109375,-0.109375 0,0 -0.03125,0 -0.078125,0.03125 C 3.703125,-6.515625 3.21875,-6.3125 2.546875,-6.3125 2.15625,-6.3125 1.6875,-6.390625 1.21875,-6.59375 1.140625,-6.625 1.125,-6.625 1.109375,-6.625 1,-6.625 1,-6.546875 1,-6.390625 V -3.4375 c 0,0.171875 0,0.25 0.140625,0.25 0.078125,0 0.09375,-0.015625 0.140625,-0.078125 C 1.390625,-3.421875 1.75,-3.96875 2.5625,-3.96875 c 0.515625,0 0.765625,0.453125 0.84375,0.640625 0.15625,0.375 0.1875,0.75 0.1875,1.25 0,0.359375 0,0.953125 -0.25,1.375 C 3.109375,-0.3125 2.734375,-0.0625 2.28125,-0.0625 c -0.71875,0 -1.296875,-0.53125 -1.46875,-1.109375 0.03125,0 0.0625,0.015625 0.171875,0.015625 0.328125,0 0.5,-0.25 0.5,-0.484375 0,-0.25 -0.171875,-0.5 -0.5,-0.5 C 0.84375,-2.140625 0.5,-2.0625 0.5,-1.609375 0.5,-0.75 1.1875,0.21875 2.296875,0.21875 3.453125,0.21875 4.46875,-0.734375 4.46875,-2 Z m 0,0"
           style="fill-opacity:1;stroke:#000000;stroke-width:0;stroke-opacity:1"
           inkscape:connector-curvature="0" />
        <path
           id="path2093"
           transform="translate(143.7306,134.765)"
           d="M 6.75,-1.609375 H 6.5 c -0.046875,0.25 -0.09375,0.484375 -0.1875,0.71875 -0.046875,0.15625 -0.078125,0.25 -0.65625,0.25 H 4.859375 C 5,-1.203125 5.296875,-1.6875 5.75,-2.34375 c 0.46875,-0.703125 0.875,-1.390625 0.875,-2.1875 0,-1.375 -1.34375,-2.5 -3.03125,-2.5 -1.703125,0 -3.03125,1.140625 -3.03125,2.5 0,0.796875 0.40625,1.484375 0.875,2.1875 0.4375,0.65625 0.75,1.140625 0.890625,1.703125 H 1.53125 C 0.953125,-0.640625 0.921875,-0.734375 0.875,-0.875 0.78125,-1.109375 0.734375,-1.359375 0.6875,-1.609375 h -0.25 L 0.765625,0 h 1.59375 c 0.21875,0 0.25,0 0.25,-0.203125 0,-0.703125 -0.3125,-1.578125 -0.53125,-2.21875 -0.21875,-0.578125 -0.5,-1.359375 -0.5,-2.109375 0,-1.59375 1.109375,-2.28125 2.015625,-2.28125 0.953125,0 2.015625,0.71875 2.015625,2.28125 0,0.75 -0.28125,1.5 -0.5625,2.3125 -0.15625,0.421875 -0.46875,1.328125 -0.46875,2.015625 C 4.578125,0 4.609375,0 4.828125,0 h 1.59375 z m 0,0"
           style="fill-opacity:1;stroke:#000000;stroke-width:0;stroke-opacity:1"
           inkscape:connector-curvature="0" />
      </g>
    </g>
  </g>
  <path
     sodipodi:nodetypes="cc"
     id="path2220"
     inkscape:label="none"
     style="fill:none;stroke:#000000;stroke-width:1;stroke-linecap:round;stroke-linejoin:round;stroke-dasharray:none"
     d="M 106.95587,16.522403 V 116.5224"
     inkscape:connector-curvature="0" />
  <circle
     style="opacity:1;fill:#000000;fill-opacity:1;fill-rule:nonzero;stroke:#000000;stroke-width:0.5;stroke-linecap:round;stroke-linejoin:round;stroke-miterlimit:4;stroke-dasharray:none;stroke-dashoffset:13.79527569;stroke-opacity:1"
     id="path2222"
     cx="6.9558687"
     cy="16.522404"
     r="1.8898809" />
  <circle
     r="1.8898809"
     cy="16.522404"
     cx="106.95587"
     id="circle2224"
     style="opacity:1;fill:#000000;fill-opacity:1;fill-rule:nonzero;stroke:#000000;stroke-width:0.5;stroke-linecap:round;stroke-linejoin:round;stroke-miterlimit:4;stroke-dasharray:none;stroke-dashoffset:13.79527569;stroke-opacity:1" />
  <circle
     r="1.8898809"
     cy="66.5224"
     cx="6.9558706"
     id="circle2226"
     style="opacity:1;fill:#000000;fill-opacity:1;fill-rule:nonzero;stroke:#000000;stroke-width:0.5;stroke-linecap:round;stroke-linejoin:round;stroke-miterlimit:4;stroke-dasharray:none;stroke-dashoffset:13.79527569;stroke-opacity:1" />
  <circle
     style="opacity:1;fill:#000000;fill-opacity:1;fill-rule:nonzero;stroke:#000000;stroke-width:0.5;stroke-linecap:round;stroke-linejoin:round;stroke-miterlimit:4;stroke-dasharray:none;stroke-dashoffset:13.79527569;stroke-opacity:1"
     id="circle2228"
     cx="106.95587"
     cy="66.5224"
     r="1.8898809" />
  <circle
     style="opacity:1;fill:#000000;fill-opacity:1;fill-rule:nonzero;stroke:#000000;stroke-width:0.5;stroke-linecap:round;stroke-linejoin:round;stroke-miterlimit:4;stroke-dasharray:none;stroke-dashoffset:13.79527569;stroke-opacity:1"
     id="circle2230"
     cx="6.9558697"
     cy="116.5224"
     r="1.8898809" />
  <circle
     r="1.8898809"
     cy="116.5224"
     cx="106.95587"
     id="circle2232"
     style="opacity:1;fill:#000000;fill-opacity:1;fill-rule:nonzero;stroke:#000000;stroke-width:0.5;stroke-linecap:round;stroke-linejoin:round;stroke-miterlimit:4;stroke-dasharray:none;stroke-dashoffset:13.79527569;stroke-opacity:1" />
  <g
     transform="matrix(0.739645,0,0,0.739645,-99.25287,-81.54366)"
     ns0:version="0.11.0"
     ns0:texconverter="pdflatex"
     ns0:pdfconverter="pdf2svg"
     ns0:text="a"
     ns0:preamble="/home/mpnerem/.config/inkscape/extensions/textext/default_packages.tex"
     ns0:scale="2.83464566935"
     ns0:alignment="middle center"
     inkscapeversion="0.92.3"
     ns0:jacobian_sqrt="0.739645"
     style="fill-opacity:1;stroke:#000000;stroke-opacity:1"
     id="g2328">
    <g
       id="g2326"
       style="fill-opacity:1;stroke:#000000;stroke-opacity:1">
      <g
         style="fill:#000000;fill-opacity:1;stroke:#000000;stroke-opacity:1"
         id="g2324">
        <path
           inkscape:connector-curvature="0"
           style="fill-opacity:1;stroke:#000000;stroke-width:0;stroke-opacity:1"
           d="m 3.3125,-0.75 c 0.046875,0.390625 0.3125,0.8125 0.78125,0.8125 0.21875,0 0.828125,-0.140625 0.828125,-0.953125 v -0.5625 h -0.25 v 0.5625 c 0,0.578125 -0.25,0.640625 -0.359375,0.640625 -0.328125,0 -0.375,-0.453125 -0.375,-0.5 v -1.984375 c 0,-0.421875 0,-0.8125 -0.359375,-1.1875 C 3.1875,-4.3125 2.6875,-4.46875 2.21875,-4.46875 c -0.828125,0 -1.515625,0.46875 -1.515625,1.125 0,0.296875 0.203125,0.46875 0.46875,0.46875 0.28125,0 0.453125,-0.203125 0.453125,-0.453125 0,-0.125 -0.046875,-0.453125 -0.515625,-0.453125 C 1.390625,-4.140625 1.875,-4.25 2.1875,-4.25 c 0.5,0 1.0625,0.390625 1.0625,1.28125 v 0.359375 c -0.515625,0.03125 -1.203125,0.0625 -1.828125,0.359375 -0.75,0.34375 -1,0.859375 -1,1.296875 0,0.8125 0.96875,1.0625 1.59375,1.0625 0.65625,0 1.109375,-0.40625 1.296875,-0.859375 z M 3.25,-2.390625 v 1 c 0,0.9375 -0.71875,1.28125 -1.171875,1.28125 -0.484375,0 -0.890625,-0.34375 -0.890625,-0.84375 0,-0.546875 0.421875,-1.375 2.0625,-1.4375 z m 0,0"
           transform="translate(133.768,134.765)"
           id="path2322" />
      </g>
    </g>
  </g>
  <g
     id="g2504"
     style="fill-opacity:1;stroke:#000000;stroke-opacity:1"
     ns0:jacobian_sqrt="0.739645"
     inkscapeversion="0.92.3"
     ns0:alignment="middle center"
     ns0:scale="2.83464566935"
     ns0:preamble="/home/mpnerem/.config/inkscape/extensions/textext/default_packages.tex"
     ns0:text="b"
     ns0:pdfconverter="pdf2svg"
     ns0:texconverter="pdflatex"
     ns0:version="0.11.0"
     transform="matrix(0.739645,0,0,0.739645,11.284236,-80.636439)">
    <g
       style="fill-opacity:1;stroke:#000000;stroke-opacity:1"
       id="g2502">
      <g
         id="g2500"
         style="fill:#000000;fill-opacity:1;stroke:#000000;stroke-opacity:1">
        <path
           id="path2498"
           transform="translate(133.768,134.765)"
           d="m 1.71875,-3.765625 v -3.15625 L 0.28125,-6.8125 V -6.5 c 0.703125,0 0.78125,0.0625 0.78125,0.5625 V 0 h 0.25 c 0,-0.015625 0.078125,-0.15625 0.359375,-0.625 0.140625,0.234375 0.5625,0.734375 1.296875,0.734375 1.1875,0 2.21875,-0.984375 2.21875,-2.265625 0,-1.265625 -0.96875,-2.25 -2.109375,-2.25 -0.78125,0 -1.203125,0.46875 -1.359375,0.640625 z m 0.03125,2.625 V -3.1875 c 0,-0.1875 0,-0.203125 0.109375,-0.359375 C 2.25,-4.109375 2.796875,-4.1875 3.03125,-4.1875 c 0.453125,0 0.8125,0.265625 1.046875,0.640625 0.265625,0.40625 0.28125,0.96875 0.28125,1.390625 0,0.359375 -0.015625,0.953125 -0.296875,1.40625 -0.21875,0.3125 -0.59375,0.640625 -1.125,0.640625 -0.453125,0 -0.8125,-0.234375 -1.046875,-0.609375 C 1.75,-0.921875 1.75,-0.953125 1.75,-1.140625 Z m 0,0"
           style="fill-opacity:1;stroke:#000000;stroke-width:0;stroke-opacity:1"
           inkscape:connector-curvature="0" />
      </g>
    </g>
  </g>
  <g
     transform="matrix(0.739645,0,0,0.739645,-98.935054,-31.543663)"
     ns0:version="0.11.0"
     ns0:texconverter="pdflatex"
     ns0:pdfconverter="pdf2svg"
     ns0:text="c"
     ns0:preamble="/home/mpnerem/.config/inkscape/extensions/textext/default_packages.tex"
     ns0:scale="2.83464566935"
     ns0:alignment="middle center"
     inkscapeversion="0.92.3"
     ns0:jacobian_sqrt="0.739645"
     style="fill-opacity:1;stroke:#000000;stroke-opacity:1"
     id="g2688">
    <g
       id="g2686"
       style="fill-opacity:1;stroke:#000000;stroke-opacity:1">
      <g
         style="fill:#000000;fill-opacity:1;stroke:#000000;stroke-opacity:1"
         id="g2684">
        <path
           inkscape:connector-curvature="0"
           style="fill-opacity:1;stroke:#000000;stroke-width:0;stroke-opacity:1"
           d="m 1.171875,-2.171875 c 0,-1.625 0.8125,-2.046875 1.34375,-2.046875 0.09375,0 0.71875,0.015625 1.0625,0.375 -0.40625,0.03125 -0.46875,0.328125 -0.46875,0.453125 0,0.265625 0.1875,0.453125 0.453125,0.453125 0.265625,0 0.46875,-0.15625 0.46875,-0.46875 0,-0.671875 -0.765625,-1.0625 -1.53125,-1.0625 -1.25,0 -2.15625,1.078125 -2.15625,2.3125 0,1.28125 0.984375,2.265625 2.140625,2.265625 1.328125,0 1.65625,-1.203125 1.65625,-1.296875 0,-0.09375 -0.109375,-0.09375 -0.140625,-0.09375 -0.078125,0 -0.109375,0.03125 -0.125,0.09375 -0.28125,0.921875 -0.9375,1.046875 -1.296875,1.046875 -0.53125,0 -1.40625,-0.421875 -1.40625,-2.03125 z m 0,0"
           transform="translate(133.768,134.765)"
           id="path2682" />
      </g>
    </g>
  </g>
  <g
     id="g2880"
     style="fill-opacity:1;stroke:#000000;stroke-opacity:1"
     ns0:jacobian_sqrt="0.739645"
     inkscapeversion="0.92.3"
     ns0:alignment="middle center"
     ns0:scale="2.83464566935"
     ns0:preamble="/home/mpnerem/.config/inkscape/extensions/textext/default_packages.tex"
     ns0:text="e"
     ns0:pdfconverter="pdf2svg"
     ns0:texconverter="pdflatex"
     ns0:version="0.11.0"
     transform="matrix(0.739645,0,0,0.739645,-98.91194,18.456333)">
    <g
       style="fill-opacity:1;stroke:#000000;stroke-opacity:1"
       id="g2878">
      <g
         id="g2876"
         style="fill:#000000;fill-opacity:1;stroke:#000000;stroke-opacity:1">
        <path
           id="path2874"
           transform="translate(133.768,134.765)"
           d="M 1.109375,-2.515625 C 1.171875,-4 2.015625,-4.25 2.359375,-4.25 c 1.015625,0 1.125,1.34375 1.125,1.734375 z m 0,0.21875 h 2.78125 c 0.21875,0 0.25,0 0.25,-0.21875 0,-0.984375 -0.546875,-1.953125 -1.78125,-1.953125 -1.15625,0 -2.078125,1.03125 -2.078125,2.28125 0,1.328125 1.046875,2.296875 2.1875,2.296875 C 3.6875,0.109375 4.140625,-1 4.140625,-1.1875 4.140625,-1.28125 4.0625,-1.3125 4,-1.3125 c -0.078125,0 -0.109375,0.0625 -0.125,0.140625 -0.34375,1.03125 -1.25,1.03125 -1.34375,1.03125 -0.5,0 -0.890625,-0.296875 -1.125,-0.671875 -0.296875,-0.46875 -0.296875,-1.125 -0.296875,-1.484375 z m 0,0"
           style="fill-opacity:1;stroke:#000000;stroke-width:0;stroke-opacity:1"
           inkscape:connector-curvature="0" />
      </g>
    </g>
  </g>
  <g
     transform="matrix(0.739645,0,0,0.739645,11.238008,-30.636442)"
     ns0:version="0.11.0"
     ns0:texconverter="pdflatex"
     ns0:pdfconverter="pdf2svg"
     ns0:text="d"
     ns0:preamble="/home/mpnerem/.config/inkscape/extensions/textext/default_packages.tex"
     ns0:scale="2.83464566935"
     ns0:alignment="middle center"
     inkscapeversion="0.92.3"
     ns0:jacobian_sqrt="0.739645"
     style="fill-opacity:1;stroke:#000000;stroke-opacity:1"
     id="g3080">
    <g
       id="g3078"
       style="fill-opacity:1;stroke:#000000;stroke-opacity:1">
      <g
         style="fill:#000000;fill-opacity:1;stroke:#000000;stroke-opacity:1"
         id="g3076">
        <path
           inkscape:connector-curvature="0"
           style="fill-opacity:1;stroke:#000000;stroke-width:0;stroke-opacity:1"
           d="m 3.78125,-0.546875 v 0.65625 L 5.25,0 v -0.3125 c -0.6875,0 -0.78125,-0.0625 -0.78125,-0.5625 V -6.921875 L 3.046875,-6.8125 V -6.5 c 0.6875,0 0.765625,0.0625 0.765625,0.5625 v 2.15625 c -0.28125,-0.359375 -0.71875,-0.625 -1.25,-0.625 -1.171875,0 -2.21875,0.984375 -2.21875,2.265625 0,1.265625 0.96875,2.25 2.109375,2.25 0.640625,0 1.078125,-0.34375 1.328125,-0.65625 z m 0,-2.671875 v 2.046875 c 0,0.171875 0,0.1875 -0.109375,0.359375 C 3.375,-0.328125 2.9375,-0.109375 2.5,-0.109375 2.046875,-0.109375 1.6875,-0.375 1.453125,-0.75 1.203125,-1.15625 1.171875,-1.71875 1.171875,-2.140625 1.171875,-2.5 1.1875,-3.09375 1.46875,-3.546875 1.6875,-3.859375 2.0625,-4.1875 2.609375,-4.1875 c 0.34375,0 0.765625,0.15625 1.0625,0.59375 0.109375,0.171875 0.109375,0.1875 0.109375,0.375 z m 0,0"
           transform="translate(133.768,134.765)"
           id="path3074" />
      </g>
    </g>
  </g>
  <g
     id="g3288"
     style="fill-opacity:1;stroke:#000000;stroke-opacity:1"
     ns0:jacobian_sqrt="0.739645"
     inkscapeversion="0.92.3"
     ns0:alignment="middle center"
     ns0:scale="2.83464566935"
     ns0:preamble="/home/mpnerem/.config/inkscape/extensions/textext/default_packages.tex"
     ns0:text="f"
     ns0:pdfconverter="pdf2svg"
     ns0:texconverter="pdflatex"
     ns0:version="0.11.0"
     transform="matrix(0.739645,0,0,0.739645,11.867862,19.444453)">
    <g
       style="fill-opacity:1;stroke:#000000;stroke-opacity:1"
       id="g3286">
      <g
         id="g3284"
         style="fill:#000000;fill-opacity:1;stroke:#000000;stroke-opacity:1">
        <path
           id="path3282"
           transform="translate(133.768,134.765)"
           d="m 1.75,-4.296875 v -1.15625 c 0,-0.875 0.46875,-1.359375 0.90625,-1.359375 0.03125,0 0.1875,0 0.328125,0.078125 C 2.875,-6.703125 2.6875,-6.5625 2.6875,-6.3125 c 0,0.21875 0.15625,0.421875 0.4375,0.421875 0.28125,0 0.4375,-0.203125 0.4375,-0.4375 0,-0.375 -0.375,-0.703125 -0.90625,-0.703125 -0.6875,0 -1.546875,0.53125 -1.546875,1.59375 v 1.140625 h -0.78125 v 0.3125 h 0.78125 V -0.75 C 1.109375,-0.3125 1,-0.3125 0.34375,-0.3125 V 0 c 0.390625,-0.015625 0.859375,-0.03125 1.125,-0.03125 0.40625,0 0.875,0 1.265625,0.03125 V -0.3125 H 2.53125 c -0.734375,0 -0.75,-0.109375 -0.75,-0.46875 v -3.203125 h 1.125 v -0.3125 z m 0,0"
           style="fill-opacity:1;stroke:#000000;stroke-width:0;stroke-opacity:1"
           inkscape:connector-curvature="0" />
      </g>
    </g>
  </g>
  <g
     transform="translate(-1.417524,0.39127951)"
     id="g3627">
    <path
       inkscape:connector-curvature="0"
       d="m 52.748512,23.024291 h 10"
       style="fill:none;stroke:#ff0000;stroke-width:1;stroke-linecap:round;stroke-linejoin:round;stroke-dasharray:none;marker-end:url(#arrowCurrentEnd)"
       inkscape:label="none"
       id="path3496" />
    <g
       style="font-style:normal;font-variant:normal;font-weight:normal;font-stretch:normal;letter-spacing:normal;word-spacing:normal;text-anchor:start;fill:none;fill-opacity:1;fill-rule:evenodd;stroke:#000000;stroke-linecap:butt;stroke-linejoin:miter;stroke-miterlimit:10.43299961;stroke-dasharray:none;stroke-dashoffset:0;stroke-opacity:1"
       id="g3502"
       xml:space="preserve"
       stroke-miterlimit="10.433"
       font-style="normal"
       font-variant="normal"
       font-weight="normal"
       font-stretch="normal"
       font-size-adjust="none"
       letter-spacing="normal"
       word-spacing="normal"
       ns0:text=" $I_1$"
       ns0:preamble="/home/mpnerem/.config/inkscape/extensions/textextLib/CircuitSymbolsLatexPreamble.tex"
       transform="matrix(0.739645,0,0,-0.739645,-110.48005,516.83003)">
<path
   inkscape:connector-curvature="0"
   d="m 227.16,663.26 0.01,0.03 0.01,0.03 0.01,0.03 v 0.03 l 0.01,0.02 0.01,0.03 0.01,0.02 0.01,0.03 0.01,0.02 0.01,0.02 0.02,0.02 0.01,0.02 0.02,0.01 0.01,0.02 0.02,0.01 0.02,0.02 0.03,0.01 0.02,0.01 0.03,0.01 0.03,0.01 0.03,0.01 h 0.02 l 0.02,0.01 h 0.02 0.02 l 0.02,0.01 h 0.02 0.02 l 0.02,0.01 h 0.03 0.02 0.03 0.02 l 0.03,0.01 h 0.03 0.03 0.03 0.03 0.03 0.03 0.04 0.03 0.04 c 0.24,0 0.32,0 0.32,0.19 0,0.12 -0.11,0.12 -0.15,0.12 -0.29,0 -1.03,-0.03 -1.32,-0.03 -0.3,0 -1.02,0.03 -1.32,0.03 -0.07,0 -0.2,0 -0.2,-0.2 0,-0.11 0.09,-0.11 0.28,-0.11 0.42,0 0.68,0 0.68,-0.19 0,-0.05 0,-0.07 -0.02,-0.16 L 225,658.01 c -0.09,-0.37 -0.12,-0.47 -0.91,-0.47 -0.23,0 -0.32,0 -0.32,-0.2 0,-0.11 0.12,-0.11 0.15,-0.11 0.29,0 1.02,0.04 1.31,0.04 0.3,0 1.03,-0.04 1.33,-0.04 0.08,0 0.2,0 0.2,0.19 0,0.12 -0.08,0.12 -0.3,0.12 -0.18,0 -0.23,0 -0.42,0.02 -0.22,0.02 -0.25,0.06 -0.25,0.17 0,0.08 0.01,0.16 0.03,0.23 z"
   style="fill:#ff0000;stroke-width:0"
   id="path3498" />
<path
   inkscape:connector-curvature="0"
   d="m 230.15,660.16 v 0.01 0.01 0.01 0.01 0 0.01 0.01 0.01 0 0.01 0.01 0 0.01 0 0.01 0 0.01 0 l -0.01,0.01 v 0.01 0.01 0 l -0.01,0.01 v 0.01 h -0.01 v 0.01 h -0.01 -0.01 v 0.01 h -0.01 -0.01 -0.01 v 0 h -0.01 -0.01 v 0.01 h -0.01 v 0 h -0.01 -0.01 v 0 H 230.01 230 v 0 h -0.01 -0.01 -0.01 -0.01 -0.01 v 0 c -0.45,-0.44 -1.09,-0.45 -1.38,-0.45 v -0.25 c 0.17,0 0.63,0 1.02,0.2 v -3.55 c 0,-0.23 0,-0.32 -0.7,-0.32 h -0.27 v -0.25 c 0.13,0.01 0.99,0.03 1.25,0.03 0.21,0 1.09,-0.02 1.25,-0.03 v 0.25 h -0.27 c -0.7,0 -0.7,0.09 -0.7,0.32 z"
   style="fill:#ff0000;stroke-width:0"
   id="path3500" />
</g>  </g>
  <g
     id="g3888">
    <path
       id="path3629"
       inkscape:label="none"
       style="fill:none;stroke:#ff0000;stroke-width:1;stroke-linecap:round;stroke-linejoin:round;stroke-dasharray:none;marker-end:url(#arrowCurrentEnd)"
       d="m 51.330988,73.41557 h 10"
       inkscape:connector-curvature="0" />
    <g
       transform="matrix(0.739645,0,0,0.739645,-45.656952,-18.56699)"
       ns0:version="0.11.0"
       ns0:texconverter="pdflatex"
       ns0:pdfconverter="pdf2svg"
       ns0:text=" $I_2$"
       ns0:preamble="/home/mpnerem/.config/inkscape/extensions/textext/default_packages.tex"
       ns0:scale="2.83464566935"
       ns0:alignment="middle center"
       inkscapeversion="0.92.3"
       ns0:jacobian_sqrt="0.739645"
       style="fill:#ff0000;fill-opacity:1;stroke:#000000;stroke-opacity:1"
       id="g3763">
      <g
         id="g3761"
         style="fill:#ff0000;fill-opacity:1;stroke:#000000;stroke-opacity:1">
        <g
           style="fill:#ff0000;fill-opacity:1;stroke:#000000;stroke-opacity:1"
           id="g3755">
          <path
             inkscape:connector-curvature="0"
             style="fill:#ff0000;fill-opacity:1;stroke:#000000;stroke-width:0;stroke-opacity:1"
             d="M 3.734375,-6.046875 C 3.8125,-6.40625 3.84375,-6.5 4.640625,-6.5 c 0.234375,0 0.3125,0 0.3125,-0.1875 0,-0.125 -0.109375,-0.125 -0.140625,-0.125 -0.296875,0 -1.03125,0.03125 -1.328125,0.03125 -0.296875,0 -1.015625,-0.03125 -1.328125,-0.03125 -0.0625,0 -0.1875,0 -0.1875,0.203125 C 1.96875,-6.5 2.046875,-6.5 2.25,-6.5 c 0.40625,0 0.6875,0 0.6875,0.1875 0,0.046875 0,0.078125 -0.03125,0.15625 l -1.34375,5.375 c -0.09375,0.375 -0.109375,0.46875 -0.90625,0.46875 -0.234375,0 -0.3125,0 -0.3125,0.203125 C 0.34375,0 0.453125,0 0.484375,0 0.78125,0 1.5,-0.03125 1.796875,-0.03125 2.09375,-0.03125 2.828125,0 3.125,0 c 0.078125,0 0.203125,0 0.203125,-0.1875 0,-0.125 -0.078125,-0.125 -0.296875,-0.125 -0.1875,0 -0.234375,0 -0.421875,-0.015625 -0.21875,-0.015625 -0.25,-0.0625 -0.25,-0.171875 0,-0.078125 0.015625,-0.15625 0.03125,-0.234375 z m 0,0"
             transform="translate(133.768,134.765)"
             id="path3753" />
        </g>
        <g
           style="fill:#ff0000;fill-opacity:1;stroke:#000000;stroke-opacity:1"
           id="g3759">
          <path
             inkscape:connector-curvature="0"
             style="fill:#ff0000;fill-opacity:1;stroke:#000000;stroke-width:0;stroke-opacity:1"
             d="M 3.515625,-1.265625 H 3.28125 c -0.015625,0.15625 -0.09375,0.5625 -0.1875,0.625 C 3.046875,-0.59375 2.515625,-0.59375 2.40625,-0.59375 H 1.125 c 0.734375,-0.640625 0.984375,-0.84375 1.390625,-1.171875 0.515625,-0.40625 1,-0.84375 1,-1.5 0,-0.84375 -0.734375,-1.359375 -1.625,-1.359375 -0.859375,0 -1.453125,0.609375 -1.453125,1.25 0,0.34375 0.296875,0.390625 0.375,0.390625 0.15625,0 0.359375,-0.125 0.359375,-0.375 0,-0.125 -0.046875,-0.375 -0.40625,-0.375 C 0.984375,-4.21875 1.453125,-4.375 1.78125,-4.375 c 0.703125,0 1.0625,0.546875 1.0625,1.109375 0,0.609375 -0.4375,1.078125 -0.65625,1.328125 L 0.515625,-0.265625 C 0.4375,-0.203125 0.4375,-0.1875 0.4375,0 h 2.875 z m 0,0"
             transform="translate(138.148,136.259)"
             id="path3757" />
        </g>
      </g>
    </g>
  </g>
  <path
     id="path3890"
     inkscape:label="none"
     style="fill:none;stroke:#ff0000;stroke-width:1;stroke-linecap:round;stroke-linejoin:round;stroke-dasharray:none;marker-end:url(#arrowCurrentEnd)"
     d="m 51.330988,123.41557 h 10"
     inkscape:connector-curvature="0" />
  <g
     transform="matrix(0.739645,0,0,0.739645,-45.680066,31.381004)"
     ns0:version="0.11.0"
     ns0:texconverter="pdflatex"
     ns0:pdfconverter="pdf2svg"
     ns0:text=" $I_3$"
     ns0:preamble="/home/mpnerem/.config/inkscape/extensions/textext/default_packages.tex"
     ns0:scale="2.83464566935"
     ns0:alignment="middle center"
     inkscapeversion="0.92.3"
     ns0:jacobian_sqrt="0.739645"
     style="fill:#ff0000;fill-opacity:1;stroke:#000000;stroke-opacity:1"
     id="g4041">
    <g
       id="g4039"
       style="fill:#ff0000;fill-opacity:1;stroke:#000000;stroke-opacity:1">
      <g
         style="fill:#ff0000;fill-opacity:1;stroke:#000000;stroke-opacity:1"
         id="g4033">
        <path
           inkscape:connector-curvature="0"
           style="fill:#ff0000;fill-opacity:1;stroke:#000000;stroke-width:0;stroke-opacity:1"
           d="M 3.734375,-6.046875 C 3.8125,-6.40625 3.84375,-6.5 4.640625,-6.5 c 0.234375,0 0.3125,0 0.3125,-0.1875 0,-0.125 -0.109375,-0.125 -0.140625,-0.125 -0.296875,0 -1.03125,0.03125 -1.328125,0.03125 -0.296875,0 -1.015625,-0.03125 -1.328125,-0.03125 -0.0625,0 -0.1875,0 -0.1875,0.203125 C 1.96875,-6.5 2.046875,-6.5 2.25,-6.5 c 0.40625,0 0.6875,0 0.6875,0.1875 0,0.046875 0,0.078125 -0.03125,0.15625 l -1.34375,5.375 c -0.09375,0.375 -0.109375,0.46875 -0.90625,0.46875 -0.234375,0 -0.3125,0 -0.3125,0.203125 C 0.34375,0 0.453125,0 0.484375,0 0.78125,0 1.5,-0.03125 1.796875,-0.03125 2.09375,-0.03125 2.828125,0 3.125,0 c 0.078125,0 0.203125,0 0.203125,-0.1875 0,-0.125 -0.078125,-0.125 -0.296875,-0.125 -0.1875,0 -0.234375,0 -0.421875,-0.015625 -0.21875,-0.015625 -0.25,-0.0625 -0.25,-0.171875 0,-0.078125 0.015625,-0.15625 0.03125,-0.234375 z m 0,0"
           transform="translate(133.768,134.765)"
           id="path4031" />
      </g>
      <g
         style="fill:#ff0000;fill-opacity:1;stroke:#000000;stroke-opacity:1"
         id="g4037">
        <path
           inkscape:connector-curvature="0"
           style="fill:#ff0000;fill-opacity:1;stroke:#000000;stroke-width:0;stroke-opacity:1"
           d="m 1.90625,-2.328125 c 0.546875,0 0.9375,0.375 0.9375,1.125 0,0.859375 -0.515625,1.125 -0.90625,1.125 -0.28125,0 -0.90625,-0.078125 -1.1875,-0.5 0.328125,0 0.40625,-0.234375 0.40625,-0.390625 0,-0.21875 -0.171875,-0.375 -0.390625,-0.375 -0.1875,0 -0.390625,0.125 -0.390625,0.40625 0,0.65625 0.71875,1.078125 1.5625,1.078125 0.96875,0 1.640625,-0.65625 1.640625,-1.34375 0,-0.546875 -0.4375,-1.09375 -1.203125,-1.25 0.71875,-0.265625 0.984375,-0.78125 0.984375,-1.21875 0,-0.546875 -0.625,-0.953125 -1.40625,-0.953125 -0.765625,0 -1.359375,0.375 -1.359375,0.9375 0,0.234375 0.15625,0.359375 0.359375,0.359375 0.21875,0 0.359375,-0.15625 0.359375,-0.34375 0,-0.203125 -0.140625,-0.359375 -0.359375,-0.375 0.25,-0.296875 0.71875,-0.375 0.984375,-0.375 0.3125,0 0.75,0.15625 0.75,0.75 0,0.296875 -0.09375,0.625 -0.28125,0.828125 -0.21875,0.265625 -0.421875,0.28125 -0.765625,0.3125 -0.171875,0.015625 -0.1875,0.015625 -0.21875,0.015625 -0.015625,0 -0.078125,0.015625 -0.078125,0.09375 0,0.09375 0.0625,0.09375 0.1875,0.09375 z m 0,0"
           transform="translate(138.148,136.259)"
           id="path4035" />
      </g>
    </g>
  </g>
  <g
     id="g1112"
     style="stroke:#000000;stroke-opacity:1;fill-opacity:1"
     ns0:jacobian_sqrt="0.739645"
     inkscapeversion="0.92.3"
     ns0:alignment="middle center"
     ns0:scale="2.83464566935"
     ns0:preamble="/home/mpnerem/.config/inkscape/extensions/textext/default_packages.tex"
     ns0:text="\\SI{25}{\\ohm}"
     ns0:pdfconverter="pdf2svg"
     ns0:texconverter="pdflatex"
     ns0:version="0.11.0"
     transform="matrix(0.739645,0.000000,0.000000,0.739645,-23.965860,-89.495658)">
    <g
       style="stroke:#000000;stroke-opacity:1;fill-opacity:1"
       id="g1110">
      <g
         id="g1104"
         style="stroke:#000000;fill-opacity:1;stroke-opacity:1;fill:rgb(0%,0%,0%)">
        <path
           id="path1100"
           transform="translate(133.768,134.765)"
           d="M 1.265625 -0.765625 L 2.328125 -1.796875 C 3.875 -3.171875 4.46875 -3.703125 4.46875 -4.703125 C 4.46875 -5.84375 3.578125 -6.640625 2.359375 -6.640625 C 1.234375 -6.640625 0.5 -5.71875 0.5 -4.828125 C 0.5 -4.28125 1 -4.28125 1.03125 -4.28125 C 1.203125 -4.28125 1.546875 -4.390625 1.546875 -4.8125 C 1.546875 -5.0625 1.359375 -5.328125 1.015625 -5.328125 C 0.9375 -5.328125 0.921875 -5.328125 0.890625 -5.3125 C 1.109375 -5.96875 1.65625 -6.328125 2.234375 -6.328125 C 3.140625 -6.328125 3.5625 -5.515625 3.5625 -4.703125 C 3.5625 -3.90625 3.078125 -3.125 2.515625 -2.5 L 0.609375 -0.375 C 0.5 -0.265625 0.5 -0.234375 0.5 0 L 4.203125 0 L 4.46875 -1.734375 L 4.234375 -1.734375 C 4.171875 -1.4375 4.109375 -1 4 -0.84375 C 3.9375 -0.765625 3.28125 -0.765625 3.0625 -0.765625 Z M 1.265625 -0.765625 "
           style="stroke:#000000;stroke-width:0;stroke-opacity:1;fill-opacity:1" />
        <path
           id="path1102"
           transform="translate(138.7493,134.765)"
           d="M 4.46875 -2 C 4.46875 -3.1875 3.65625 -4.1875 2.578125 -4.1875 C 2.109375 -4.1875 1.671875 -4.03125 1.3125 -3.671875 L 1.3125 -5.625 C 1.515625 -5.5625 1.84375 -5.5 2.15625 -5.5 C 3.390625 -5.5 4.09375 -6.40625 4.09375 -6.53125 C 4.09375 -6.59375 4.0625 -6.640625 3.984375 -6.640625 C 3.984375 -6.640625 3.953125 -6.640625 3.90625 -6.609375 C 3.703125 -6.515625 3.21875 -6.3125 2.546875 -6.3125 C 2.15625 -6.3125 1.6875 -6.390625 1.21875 -6.59375 C 1.140625 -6.625 1.125 -6.625 1.109375 -6.625 C 1 -6.625 1 -6.546875 1 -6.390625 L 1 -3.4375 C 1 -3.265625 1 -3.1875 1.140625 -3.1875 C 1.21875 -3.1875 1.234375 -3.203125 1.28125 -3.265625 C 1.390625 -3.421875 1.75 -3.96875 2.5625 -3.96875 C 3.078125 -3.96875 3.328125 -3.515625 3.40625 -3.328125 C 3.5625 -2.953125 3.59375 -2.578125 3.59375 -2.078125 C 3.59375 -1.71875 3.59375 -1.125 3.34375 -0.703125 C 3.109375 -0.3125 2.734375 -0.0625 2.28125 -0.0625 C 1.5625 -0.0625 0.984375 -0.59375 0.8125 -1.171875 C 0.84375 -1.171875 0.875 -1.15625 0.984375 -1.15625 C 1.3125 -1.15625 1.484375 -1.40625 1.484375 -1.640625 C 1.484375 -1.890625 1.3125 -2.140625 0.984375 -2.140625 C 0.84375 -2.140625 0.5 -2.0625 0.5 -1.609375 C 0.5 -0.75 1.1875 0.21875 2.296875 0.21875 C 3.453125 0.21875 4.46875 -0.734375 4.46875 -2 Z M 4.46875 -2 "
           style="stroke:#000000;stroke-width:0;stroke-opacity:1;fill-opacity:1" />
      </g>
      <g
         id="g1108"
         style="stroke:#000000;fill-opacity:1;stroke-opacity:1;fill:rgb(0%,0%,0%)">
        <path
           id="path1106"
           transform="translate(145.394354,134.765)"
           d="M 6.75 -1.609375 L 6.5 -1.609375 C 6.453125 -1.359375 6.40625 -1.125 6.3125 -0.890625 C 6.265625 -0.734375 6.234375 -0.640625 5.65625 -0.640625 L 4.859375 -0.640625 C 5 -1.203125 5.296875 -1.6875 5.75 -2.34375 C 6.21875 -3.046875 6.625 -3.734375 6.625 -4.53125 C 6.625 -5.90625 5.28125 -7.03125 3.59375 -7.03125 C 1.890625 -7.03125 0.5625 -5.890625 0.5625 -4.53125 C 0.5625 -3.734375 0.96875 -3.046875 1.4375 -2.34375 C 1.875 -1.6875 2.1875 -1.203125 2.328125 -0.640625 L 1.53125 -0.640625 C 0.953125 -0.640625 0.921875 -0.734375 0.875 -0.875 C 0.78125 -1.109375 0.734375 -1.359375 0.6875 -1.609375 L 0.4375 -1.609375 L 0.765625 0 L 2.359375 0 C 2.578125 0 2.609375 0 2.609375 -0.203125 C 2.609375 -0.90625 2.296875 -1.78125 2.078125 -2.421875 C 1.859375 -3 1.578125 -3.78125 1.578125 -4.53125 C 1.578125 -6.125 2.6875 -6.8125 3.59375 -6.8125 C 4.546875 -6.8125 5.609375 -6.09375 5.609375 -4.53125 C 5.609375 -3.78125 5.328125 -3.03125 5.046875 -2.21875 C 4.890625 -1.796875 4.578125 -0.890625 4.578125 -0.203125 C 4.578125 0 4.609375 0 4.828125 0 L 6.421875 0 Z M 6.75 -1.609375 "
           style="stroke:#000000;stroke-width:0;stroke-opacity:1;fill-opacity:1" />
      </g>
    </g>
  </g>
</svg>
