<?xml version="1.0" encoding="UTF-8" standalone="no"?>
<!-- Created with Inkscape (http://www.inkscape.org/) -->

<svg
   xmlns:ns1="http://www.iki.fi/pav/software/textext/"
   xmlns:dc="http://purl.org/dc/elements/1.1/"
   xmlns:cc="http://creativecommons.org/ns#"
   xmlns:rdf="http://www.w3.org/1999/02/22-rdf-syntax-ns#"
   xmlns:svg="http://www.w3.org/2000/svg"
   xmlns="http://www.w3.org/2000/svg"
   xmlns:xlink="http://www.w3.org/1999/xlink"
   xmlns:sodipodi="http://sodipodi.sourceforge.net/DTD/sodipodi-0.dtd"
   xmlns:inkscape="http://www.inkscape.org/namespaces/inkscape"
   width="83.489952mm"
   height="64.659439mm"
   viewBox="0 0 83.489952 64.659439"
   version="1.1"
   id="svg8"
   inkscape:version="0.92.3 (2405546, 2018-03-11)"
   sodipodi:docname="capacitor.svg">
  <sodipodi:namedview
     id="base"
     pagecolor="#ffffff"
     bordercolor="#666666"
     borderopacity="1.0"
     inkscape:pageopacity="0.0"
     inkscape:pageshadow="2"
     inkscape:zoom="1.4"
     inkscape:cx="118.15404"
     inkscape:cy="159.89364"
     inkscape:document-units="mm"
     inkscape:current-layer="svg8"
     showgrid="false"
     inkscape:window-width="1920"
     inkscape:window-height="1035"
     inkscape:window-x="1920"
     inkscape:window-y="20"
     inkscape:window-maximized="1"
     fit-margin-top="0"
     fit-margin-left="0"
     fit-margin-right="0"
     fit-margin-bottom="0" />
  <defs
     id="defs2">
    <marker
       inkscape:stockid="Arrow1Lstart"
       orient="auto"
       refY="0"
       refX="0"
       id="Arrow1Lstart"
       style="overflow:visible"
       inkscape:isstock="true">
      <path
         id="path884"
         d="M 0,0 5,-5 -12.5,0 5,5 Z"
         style="fill:#000000;fill-opacity:1;fill-rule:evenodd;stroke:#000000;stroke-width:1.00000003pt;stroke-opacity:1"
         transform="matrix(0.8,0,0,0.8,10,0)"
         inkscape:connector-curvature="0" />
    </marker>
    <marker
       inkscape:stockid="Arrow1Lend"
       orient="auto"
       refY="0"
       refX="0"
       id="Arrow1Lend"
       style="overflow:visible"
       inkscape:isstock="true">
      <path
         id="path887"
         d="M 0,0 5,-5 -12.5,0 5,5 Z"
         style="fill:#000000;fill-opacity:1;fill-rule:evenodd;stroke:#000000;stroke-width:1.00000003pt;stroke-opacity:1"
         transform="matrix(-0.8,0,0,-0.8,-10,0)"
         inkscape:connector-curvature="0" />
    </marker>
    <linearGradient
       inkscape:collect="always"
       id="linearGradient878">
      <stop
         style="stop-color:#ffffff;stop-opacity:1;"
         offset="0"
         id="stop874" />
      <stop
         style="stop-color:#ffffff;stop-opacity:0;"
         offset="1"
         id="stop876" />
    </linearGradient>
    <linearGradient
       inkscape:collect="always"
       id="linearGradient862">
      <stop
         style="stop-color:#000000;stop-opacity:1;"
         offset="0"
         id="stop858" />
      <stop
         style="stop-color:#000000;stop-opacity:0;"
         offset="1"
         id="stop860" />
    </linearGradient>
    <linearGradient
       inkscape:collect="always"
       xlink:href="#linearGradient862"
       id="linearGradient864"
       x1="92.607124"
       y1="94.911011"
       x2="92.607124"
       y2="144.42589"
       gradientUnits="userSpaceOnUse"
       gradientTransform="matrix(0.5069324,0,0,1.0042845,-146.23839,-230.70338)" />
    <linearGradient
       inkscape:collect="always"
       xlink:href="#linearGradient878"
       id="linearGradient880"
       x1="60.668148"
       y1="79.036026"
       x2="60.668148"
       y2="128.7399"
       gradientUnits="userSpaceOnUse"
       gradientTransform="matrix(0.59693413,0,0,1.0033811,30.859336,-0.35157438)" />
  </defs>
  <metadata
     id="metadata5">
    <rdf:RDF>
      <cc:Work
         rdf:about="">
        <dc:format>image/svg+xml</dc:format>
        <dc:type
           rdf:resource="http://purl.org/dc/dcmitype/StillImage" />
        <dc:title></dc:title>
      </cc:Work>
    </rdf:RDF>
  </metadata>
  <path
     inkscape:connector-curvature="0"
     d="M 37.300086,22.278798 H 16.55153"
     style="fill:none;stroke:#000000;stroke-width:1;stroke-linecap:round;stroke-linejoin:round;stroke-dasharray:none"
     inkscape:label="none"
     id="path1405"
     sodipodi:nodetypes="cc" />
  <g
     inkscape:label="Layer 1"
     inkscape:groupmode="layer"
     id="layer1"
     transform="translate(-29.843769,-78.532742)">
    <ellipse
       style="opacity:1;fill:#dc5050;fill-opacity:1;fill-rule:nonzero;stroke:#000000;stroke-width:0.5804401;stroke-linecap:round;stroke-linejoin:round;stroke-miterlimit:4;stroke-dasharray:none;stroke-dashoffset:10.01574802;stroke-opacity:1"
       id="path815"
       cx="67.185265"
       cy="103.98245"
       rx="9.2507019"
       ry="25.159491" />
    <ellipse
       ry="25.159491"
       rx="9.2507019"
       cy="103.98245"
       cx="67.185265"
       id="ellipse836"
       style="opacity:1;fill:url(#linearGradient880);fill-opacity:1;fill-rule:nonzero;stroke:#000000;stroke-width:0.5804401;stroke-linecap:round;stroke-linejoin:round;stroke-miterlimit:4;stroke-dasharray:none;stroke-dashoffset:10.01574802;stroke-opacity:1" />
    <path
       style="fill:none;stroke:#000000;stroke-width:0.5;stroke-linecap:butt;stroke-linejoin:miter;stroke-miterlimit:4;stroke-dasharray:none;stroke-opacity:1;marker-start:url(#Arrow1Lstart);marker-end:url(#Arrow1Lend)"
       d="m 67.090773,105.17708 28.304538,7.58418"
       id="path882"
       inkscape:connector-curvature="0" />
    <ellipse
       ry="25.182142"
       rx="7.8559432"
       cy="110.33245"
       cx="99.294334"
       id="ellipse846"
       style="opacity:1;fill:#5092dc;fill-opacity:0.99607843;fill-rule:nonzero;stroke:#000000;stroke-width:0.53513658;stroke-linecap:round;stroke-linejoin:round;stroke-miterlimit:4;stroke-dasharray:none;stroke-dashoffset:10.01574802;stroke-opacity:1" />
    <ellipse
       style="opacity:1;fill:url(#linearGradient864);fill-opacity:1;fill-rule:nonzero;stroke:#000000;stroke-width:0.53513658;stroke-linecap:round;stroke-linejoin:round;stroke-miterlimit:4;stroke-dasharray:none;stroke-dashoffset:10.01574802;stroke-opacity:1"
       id="ellipse848"
       cx="-99.294334"
       cy="-110.33245"
       ry="25.182142"
       rx="7.8559432"
       transform="scale(-1)" />
    <g
       transform="matrix(0.970139,0,0,0.970139,-49.386793,-24.293389)"
       ns1:version="0.11.0"
       ns1:texconverter="pdflatex"
       ns1:pdfconverter="pdf2svg"
       ns1:text="$d$"
       ns1:preamble="/home/mpnerem/.config/inkscape/extensions/textext/default_packages.tex"
       ns1:scale="2.75"
       ns1:alignment="middle center"
       inkscapeversion="0.92.3"
       ns1:jacobian_sqrt="0.970139"
       id="g1283">
      <g
         id="surface1">
        <g
           style="fill:#000000;fill-opacity:1"
           id="g1280">
          <path
             inkscape:connector-curvature="0"
             style="stroke:none;stroke-width:0"
             d="m 5.140625,-6.8125 c 0,0 0,-0.109375 -0.125,-0.109375 -0.15625,0 -1.09375,0.09375 -1.265625,0.109375 -0.078125,0.015625 -0.140625,0.0625 -0.140625,0.1875 0,0.125 0.09375,0.125 0.234375,0.125 0.484375,0 0.5,0.0625 0.5,0.171875 L 4.3125,-6.125 3.71875,-3.765625 C 3.53125,-4.140625 3.25,-4.40625 2.796875,-4.40625 c -1.15625,0 -2.390625,1.46875 -2.390625,2.921875 0,0.9375 0.546875,1.59375 1.3125,1.59375 0.203125,0 0.703125,-0.046875 1.296875,-0.75 0.078125,0.421875 0.4375,0.75 0.90625,0.75 0.359375,0 0.578125,-0.234375 0.75,-0.546875 0.15625,-0.359375 0.296875,-0.96875 0.296875,-0.984375 0,-0.109375 -0.09375,-0.109375 -0.125,-0.109375 -0.09375,0 -0.109375,0.046875 -0.140625,0.1875 -0.171875,0.640625 -0.34375,1.234375 -0.75,1.234375 -0.28125,0 -0.296875,-0.265625 -0.296875,-0.453125 0,-0.25 0.015625,-0.3125 0.046875,-0.484375 z m -2.0625,5.625 C 3.015625,-1 3.015625,-0.984375 2.875,-0.8125 2.4375,-0.265625 2.03125,-0.109375 1.75,-0.109375 c -0.5,0 -0.640625,-0.546875 -0.640625,-0.9375 0,-0.5 0.3125,-1.71875 0.546875,-2.1875 0.3125,-0.578125 0.75,-0.953125 1.15625,-0.953125 0.640625,0 0.78125,0.8125 0.78125,0.875 0,0.0625 -0.015625,0.125 -0.03125,0.171875 z m 0,0"
             transform="translate(133.768,134.765)"
             id="path1278" />
        </g>
      </g>
    </g>
  </g>
  <g
     id="g1355"
     inkscape:label="Source"
     transform="rotate(-90,34.415167,147.86364)">
    <g
       id="g1350"
       inkscape:label="Source">
      <path
         id="path1336"
         inkscape:label="none"
         style="fill:none;stroke:#000000;stroke-width:1;stroke-linecap:round;stroke-linejoin:round;stroke-dasharray:none"
         d="M 118.12649,130 H 134"
         inkscape:connector-curvature="0"
         sodipodi:nodetypes="cc" />
      <path
         id="path1338"
         inkscape:label="none"
         style="fill:none;stroke:#000000;stroke-width:1;stroke-linecap:round;stroke-linejoin:round;stroke-dasharray:none"
         d="M 160,130 H 137"
         inkscape:connector-curvature="0" />
      <path
         id="path1340"
         inkscape:label="none"
         style="fill:none;stroke:#000000;stroke-width:0.60000002;stroke-linecap:round;stroke-linejoin:round;stroke-dasharray:none"
         d="m 141,126 h -2"
         inkscape:connector-curvature="0" />
      <path
         id="path1342"
         inkscape:label="none"
         style="fill:none;stroke:#000000;stroke-width:0.60000002;stroke-linecap:round;stroke-linejoin:round;stroke-dasharray:none"
         d="m 140,125 v 2"
         inkscape:connector-curvature="0" />
      <path
         id="path1344"
         inkscape:label="none"
         style="fill:none;stroke:#000000;stroke-width:0.60000002;stroke-linecap:round;stroke-linejoin:round;stroke-dasharray:none"
         d="m 131,125 v 2"
         inkscape:connector-curvature="0" />
      <path
         id="path1346"
         inkscape:label="none"
         style="fill:none;stroke:#000000;stroke-width:1;stroke-linecap:round;stroke-linejoin:round;stroke-dasharray:none"
         d="m 134,133 v -6"
         inkscape:connector-curvature="0" />
      <path
         id="path1348"
         inkscape:label="none"
         style="fill:none;stroke:#000000;stroke-width:1;stroke-linecap:round;stroke-linejoin:round;stroke-dasharray:none"
         d="M 137,137 V 123"
         inkscape:connector-curvature="0" />
    </g>
    <g
       transform="matrix(0.739645,0,0,-0.739645,-33.302522,604.62823)"
       ns1:preamble="/home/mpnerem/.config/inkscape/extensions/textextLib/CircuitSymbolsLatexPreamble.tex"
       ns1:text=" $V$"
       word-spacing="normal"
       letter-spacing="normal"
       font-size-adjust="none"
       font-stretch="normal"
       font-weight="normal"
       font-variant="normal"
       font-style="normal"
       stroke-miterlimit="10.433"
       xml:space="preserve"
       id="content"
       style="font-style:normal;font-variant:normal;font-weight:normal;font-stretch:normal;letter-spacing:normal;word-spacing:normal;text-anchor:start;fill:none;fill-opacity:1;fill-rule:evenodd;stroke:#000000;stroke-linecap:butt;stroke-linejoin:miter;stroke-miterlimit:10.43299961;stroke-dasharray:none;stroke-dashoffset:0;stroke-opacity:1">
<path
   id="path1352"
   style="fill:#000000;stroke-width:0"
   d="m 229.915,658.365 0.07,-0.04 0.06,-0.05 0.07,-0.04 0.05,-0.04 0.06,-0.05 0.05,-0.04 0.05,-0.05 0.04,-0.04 0.04,-0.04 0.04,-0.04 0.03,-0.04 0.03,-0.05 0.03,-0.04 0.03,-0.04 0.02,-0.04 0.02,-0.04 0.02,-0.04 0.02,-0.04 0.01,-0.04 0.02,-0.03 0.01,-0.04 0.01,-0.04 0.01,-0.04 v -0.03 l 0.01,-0.04 v -0.04 l 0.01,-0.07 0.01,-0.07 v -0.07 c 0.01,-0.12 0.18,-0.13 0.19,-0.13 0.08,0 0.12,0.05 0.12,0.13 0,0.26 -0.03,0.55 -0.03,0.82 0,0.33 0.03,0.66 0.03,0.98 0,0.06 0,0.19 -0.19,0.19 -0.11,0 -0.12,-0.09 -0.12,-0.16 -0.02,-0.26 -0.12,-0.46 -0.33,-0.46 -0.15,0 -0.36,0.15 -0.37,0.15 l -4.85,3.07 5.25,0.67 c 0.17,0 0.3,-0.22 0.3,-0.68 0,-0.14 0,-0.25 0.2,-0.25 0.09,0 0.11,0.08 0.11,0.14 0,0.4 -0.03,0.82 -0.03,1.23 0,0.18 0.01,0.37 0.01,0.55 0,0.18 0.02,0.37 0.02,0.54 0,0.07 0,0.19 -0.19,0.19 -0.12,0 -0.12,-0.09 -0.12,-0.25 0,-0.56 -0.09,-0.57 -0.34,-0.6 l -6.13,-0.79 c -0.19,-0.03 -0.22,-0.07 -0.22,-0.19 0,-0.17 0.05,-0.2 0.18,-0.28 z"
   inkscape:connector-curvature="0" />
</g>  </g>
  <path
     inkscape:connector-curvature="0"
     d="M 82.982831,64.152308 V 35.383758"
     style="fill:none;stroke:#000000;stroke-width:1;stroke-linecap:round;stroke-linejoin:round;stroke-dasharray:none"
     inkscape:label="none"
     id="path1393"
     sodipodi:nodetypes="cc" />
  <path
     inkscape:connector-curvature="0"
     d="M 82.982831,64.152308 H 16.55153"
     style="fill:none;stroke:#000000;stroke-width:1;stroke-linecap:round;stroke-linejoin:round;stroke-dasharray:none"
     inkscape:label="none"
     id="path1395"
     sodipodi:nodetypes="cc" />
  <path
     inkscape:connector-curvature="0"
     d="M 82.982831,35.383758 H 70.179261"
     style="fill:none;stroke:#000000;stroke-width:1;stroke-linecap:round;stroke-linejoin:round;stroke-dasharray:none"
     inkscape:label="none"
     id="path1403"
     sodipodi:nodetypes="cc" />
</svg>
