<?xml version="1.0" encoding="UTF-8" standalone="no"?>
<!-- Created with Inkscape (http://www.inkscape.org/) -->

<svg
   xmlns:ns0="http://www.iki.fi/pav/software/textext/"
   xmlns:dc="http://purl.org/dc/elements/1.1/"
   xmlns:cc="http://creativecommons.org/ns#"
   xmlns:rdf="http://www.w3.org/1999/02/22-rdf-syntax-ns#"
   xmlns:svg="http://www.w3.org/2000/svg"
   xmlns="http://www.w3.org/2000/svg"
   xmlns:sodipodi="http://sodipodi.sourceforge.net/DTD/sodipodi-0.dtd"
   xmlns:inkscape="http://www.inkscape.org/namespaces/inkscape"
   sodipodi:docname="eq-caps.svg"
   inkscape:version="0.92.3 (2405546, 2018-03-11)"
   id="svg8"
   version="1.1"
   viewBox="0 0 81.414398 46.160816"
   height="46.160816mm"
   width="81.414398mm">
  <sodipodi:namedview
     inkscape:window-maximized="1"
     inkscape:window-y="20"
     inkscape:window-x="1920"
     inkscape:window-height="1035"
     inkscape:window-width="1920"
     showgrid="false"
     inkscape:current-layer="svg8"
     inkscape:document-units="mm"
     inkscape:cy="27.351475"
     inkscape:cx="135.97202"
     inkscape:zoom="1.979899"
     inkscape:pageshadow="2"
     inkscape:pageopacity="0.0"
     borderopacity="1.0"
     bordercolor="#666666"
     pagecolor="#ffffff"
     id="base"
     fit-margin-top="0"
     fit-margin-left="0"
     fit-margin-right="0"
     fit-margin-bottom="0" />
  <defs
     id="defs2" />
  <metadata
     id="metadata5">
    <rdf:RDF>
      <cc:Work
         rdf:about="">
        <dc:format>image/svg+xml</dc:format>
        <dc:type
           rdf:resource="http://purl.org/dc/dcmitype/StillImage" />
        <dc:title></dc:title>
      </cc:Work>
    </rdf:RDF>
  </metadata>
  <g
     transform="translate(-2.0237908,-98.894787)"
     inkscape:label="Layer 1"
     inkscape:groupmode="layer"
     id="layer1" />
  <g
     transform="matrix(0,-0.59989269,0.59989269,0,-80.054765,33.858746)"
     id="g897"
     inkscape:label="Source">
    <g
       id="g892"
       inkscape:label="Source">
      <path
         inkscape:connector-curvature="0"
         id="path878"
         inkscape:label="none"
         style="fill:none;stroke:#000000;stroke-width:1;stroke-linecap:round;stroke-linejoin:round;stroke-dasharray:none"
         d="M -20,150 H 4" />
      <path
         inkscape:connector-curvature="0"
         id="path880"
         inkscape:label="none"
         style="fill:none;stroke:#000000;stroke-width:1;stroke-linecap:round;stroke-linejoin:round;stroke-dasharray:none"
         d="M 30,150 H 7" />
      <path
         inkscape:connector-curvature="0"
         id="path882"
         inkscape:label="none"
         style="fill:none;stroke:#000000;stroke-width:0.60000002;stroke-linecap:round;stroke-linejoin:round;stroke-dasharray:none"
         d="M 11,146 H 9" />
      <path
         inkscape:connector-curvature="0"
         id="path884"
         inkscape:label="none"
         style="fill:none;stroke:#000000;stroke-width:0.60000002;stroke-linecap:round;stroke-linejoin:round;stroke-dasharray:none"
         d="m 10,145 v 2" />
      <path
         inkscape:connector-curvature="0"
         id="path886"
         inkscape:label="none"
         style="fill:none;stroke:#000000;stroke-width:0.60000002;stroke-linecap:round;stroke-linejoin:round;stroke-dasharray:none"
         d="m 1,145 v 2" />
      <path
         inkscape:connector-curvature="0"
         id="path888"
         inkscape:label="none"
         style="fill:none;stroke:#000000;stroke-width:1;stroke-linecap:round;stroke-linejoin:round;stroke-dasharray:none"
         d="m 4,153 v -6" />
      <path
         inkscape:connector-curvature="0"
         id="path890"
         inkscape:label="none"
         style="fill:none;stroke:#000000;stroke-width:1;stroke-linecap:round;stroke-linejoin:round;stroke-dasharray:none"
         d="M 7,157 V 143" />
    </g>
    <g
       style="font-style:normal;font-variant:normal;font-weight:normal;font-stretch:normal;letter-spacing:normal;word-spacing:normal;text-anchor:start;fill:none;fill-opacity:1;fill-rule:evenodd;stroke:#000000;stroke-linecap:butt;stroke-linejoin:miter;stroke-miterlimit:10.43299961;stroke-dasharray:none;stroke-dashoffset:0;stroke-opacity:1"
       transform="matrix(0.739645,0,0,-0.739645,-163.30252,624.62823)"
       ns0:preamble="/home/mpnerem/.config/inkscape/extensions/textextLib/CircuitSymbolsLatexPreamble.tex"
       ns0:text=" $V$"
       word-spacing="normal"
       letter-spacing="normal"
       font-size-adjust="none"
       font-stretch="normal"
       font-weight="normal"
       font-variant="normal"
       font-style="normal"
       stroke-miterlimit="10.433"
       xml:space="preserve"
       id="content">
<path
   inkscape:connector-curvature="0"
   id="path894"
   style="fill:#000000;stroke-width:0"
   d="m 229.915,658.365 0.07,-0.04 0.06,-0.05 0.07,-0.04 0.05,-0.04 0.06,-0.05 0.05,-0.04 0.05,-0.05 0.04,-0.04 0.04,-0.04 0.04,-0.04 0.03,-0.04 0.03,-0.05 0.03,-0.04 0.03,-0.04 0.02,-0.04 0.02,-0.04 0.02,-0.04 0.02,-0.04 0.01,-0.04 0.02,-0.03 0.01,-0.04 0.01,-0.04 0.01,-0.04 v -0.03 l 0.01,-0.04 v -0.04 l 0.01,-0.07 0.01,-0.07 v -0.07 c 0.01,-0.12 0.18,-0.13 0.19,-0.13 0.08,0 0.12,0.05 0.12,0.13 0,0.26 -0.03,0.55 -0.03,0.82 0,0.33 0.03,0.66 0.03,0.98 0,0.06 0,0.19 -0.19,0.19 -0.11,0 -0.12,-0.09 -0.12,-0.16 -0.02,-0.26 -0.12,-0.46 -0.33,-0.46 -0.15,0 -0.36,0.15 -0.37,0.15 l -4.85,3.07 5.25,0.67 c 0.17,0 0.3,-0.22 0.3,-0.68 0,-0.14 0,-0.25 0.2,-0.25 0.09,0 0.11,0.08 0.11,0.14 0,0.4 -0.03,0.82 -0.03,1.23 0,0.18 0.01,0.37 0.01,0.55 0,0.18 0.02,0.37 0.02,0.54 0,0.07 0,0.19 -0.19,0.19 -0.12,0 -0.12,-0.09 -0.12,-0.25 0,-0.56 -0.09,-0.57 -0.34,-0.6 l -6.13,-0.79 c -0.19,-0.03 -0.22,-0.07 -0.22,-0.19 0,-0.17 0.05,-0.2 0.18,-0.28 z" />
</g>  </g>
  <path
     sodipodi:nodetypes="cc"
     inkscape:connector-curvature="0"
     d="m 20.512472,10.570298 5.645811,0"
     style="fill:none;stroke:#000000;stroke-width:0.59989268;stroke-linecap:round;stroke-linejoin:round;stroke-dasharray:none"
     inkscape:label="none"
     id="path929" />
  <path
     sodipodi:nodetypes="cc"
     inkscape:connector-curvature="0"
     d="m 50.507107,10.570298 -5.512177,0"
     style="fill:none;stroke:#000000;stroke-width:0.59989268;stroke-linecap:round;stroke-linejoin:round;stroke-dasharray:none"
     inkscape:label="none"
     id="path931" />
  <g
     transform="matrix(0.44370763,0,0,-0.44370763,-74.15122,294.72836)"
     ns0:preamble="/home/mpnerem/.config/inkscape/extensions/textextLib/CircuitSymbolsLatexPreamble.tex"
     ns0:text=" $C_1$"
     word-spacing="normal"
     letter-spacing="normal"
     font-size-adjust="none"
     font-stretch="normal"
     font-weight="normal"
     font-variant="normal"
     font-style="normal"
     stroke-miterlimit="10.433"
     xml:space="preserve"
     id="g943"
     style="font-style:normal;font-variant:normal;font-weight:normal;font-stretch:normal;letter-spacing:normal;word-spacing:normal;text-anchor:start;fill:none;fill-opacity:1;fill-rule:evenodd;stroke:#000000;stroke-linecap:butt;stroke-linejoin:miter;stroke-miterlimit:10.43299961;stroke-dasharray:none;stroke-dashoffset:0;stroke-opacity:1">
<path
   id="path939"
   style="fill:#000000;stroke-width:0"
   d="m 231.01,664.14 v 0 0.01 0 0 0.01 0 0 0.01 0 l -0.01,0.01 v 0 0 0.01 0 l -0.01,0.01 v 0 0 l -0.01,0.01 v 0 0 l -0.01,0.01 v 0 h -0.01 v 0.01 h -0.01 v 0 h -0.01 v 0 0 h -0.01 v 0 0.01 h -0.01 v 0 0 h -0.01 v 0 0 h -0.01 c -0.03,0 -0.04,-0.01 -0.15,-0.12 l -0.7,-0.77 c -0.09,0.14 -0.54,0.89 -1.65,0.89 -2.23,0 -4.47,-2.2 -4.47,-4.5 0,-1.64 1.18,-2.72 2.7,-2.72 0.87,0 1.63,0.39 2.16,0.85 0.92,0.81 1.09,1.72 1.09,1.75 0,0.1 -0.1,0.1 -0.12,0.1 -0.06,0 -0.11,-0.02 -0.13,-0.1 -0.09,-0.29 -0.31,-0.99 -1,-1.57 -0.69,-0.56 -1.32,-0.73 -1.84,-0.73 -0.89,0 -1.95,0.52 -1.95,2.07 0,0.57 0.21,2.18 1.2,3.34 0.61,0.7 1.55,1.2 2.44,1.2 1.01,0 1.6,-0.77 1.6,-1.92 0,-0.39 -0.03,-0.4 -0.03,-0.5 0,-0.1 0.11,-0.1 0.15,-0.1 0.13,0 0.13,0.02 0.18,0.2 z"
   inkscape:connector-curvature="0" />
<path
   id="path941"
   style="fill:#000000;stroke-width:0"
   d="m 232.9,660.16 -0.01,0.01 v 0.01 0.01 0.01 0 0.01 0.01 0.01 0 0.01 0.01 0 0.01 0 0.01 0 0.01 0 0.01 l -0.01,0.01 v 0.01 0 l -0.01,0.01 v 0.01 h -0.01 v 0.01 h -0.01 v 0 l -0.01,0.01 h -0.01 -0.01 -0.01 v 0 h -0.01 v 0 l -0.01,0.01 h -0.01 v 0 h -0.01 -0.01 v 0 h -0.01 -0.01 v 0 h -0.01 -0.01 -0.01 -0.01 v 0 h -0.01 c -0.45,-0.44 -1.09,-0.45 -1.37,-0.45 v -0.25 c 0.16,0 0.62,0 1.01,0.2 v -3.55 c 0,-0.23 0,-0.32 -0.7,-0.32 h -0.27 v -0.25 c 0.13,0.01 0.99,0.03 1.25,0.03 0.21,0 1.1,-0.02 1.25,-0.03 v 0.25 h -0.26 c -0.7,0 -0.7,0.09 -0.7,0.32 z"
   inkscape:connector-curvature="0" />
</g>  <g
     transform="matrix(0.59989269,0,0,-0.59989269,32.510325,112.19587)"
     inkscape:label="Capacitor"
     id="g1021">
    <path
       inkscape:connector-curvature="0"
       d="M -20,150 H 3"
       style="fill:none;stroke:#000000;stroke-width:1;stroke-linecap:round;stroke-linejoin:round;stroke-dasharray:none"
       inkscape:label="none"
       id="path1013" />
    <path
       inkscape:connector-curvature="0"
       d="M 30,150 H 7"
       style="fill:none;stroke:#000000;stroke-width:1;stroke-linecap:round;stroke-linejoin:round;stroke-dasharray:none"
       inkscape:label="none"
       id="path1015" />
    <path
       inkscape:connector-curvature="0"
       d="M 3,157 V 143"
       style="fill:none;stroke:#000000;stroke-width:1;stroke-linecap:round;stroke-linejoin:round;stroke-dasharray:none"
       inkscape:label="none"
       id="path1017" />
    <path
       inkscape:connector-curvature="0"
       d="M 7,157 V 143"
       style="fill:none;stroke:#000000;stroke-width:1;stroke-linecap:round;stroke-linejoin:round;stroke-dasharray:none"
       inkscape:label="none"
       id="path1019" />
  </g>
  <g
     id="g1105"
     inkscape:label="Capacitor"
     transform="matrix(0.59989269,0,0,0.59989269,14.517788,-62.124084)">
    <path
       id="path1097"
       inkscape:label="none"
       style="fill:none;stroke:#000000;stroke-width:1;stroke-linecap:round;stroke-linejoin:round;stroke-dasharray:none"
       d="M 60,130 H 83"
       inkscape:connector-curvature="0" />
    <path
       id="path1099"
       inkscape:label="none"
       style="fill:none;stroke:#000000;stroke-width:1;stroke-linecap:round;stroke-linejoin:round;stroke-dasharray:none"
       d="M 110,130 H 87"
       inkscape:connector-curvature="0" />
    <path
       id="path1101"
       inkscape:label="none"
       style="fill:none;stroke:#000000;stroke-width:1;stroke-linecap:round;stroke-linejoin:round;stroke-dasharray:none"
       d="M 83,137 V 123"
       inkscape:connector-curvature="0" />
    <path
       id="path1103"
       inkscape:label="none"
       style="fill:none;stroke:#000000;stroke-width:1;stroke-linecap:round;stroke-linejoin:round;stroke-dasharray:none"
       d="M 87,137 V 123"
       inkscape:connector-curvature="0" />
  </g>
  <path
     d="M 9.9291372,45.856596 81.110178,45.846006"
     style="fill:none;stroke:#000000;stroke-width:0.59989268;stroke-linecap:round;stroke-linejoin:round;stroke-dasharray:none"
     inkscape:label="none"
     id="path1385"
     inkscape:connector-curvature="0"
     sodipodi:nodetypes="cc" />
  <path
     d="m 81.110178,15.861966 v 29.98404"
     style="fill:none;stroke:#000000;stroke-width:0.59989268;stroke-linecap:round;stroke-linejoin:round;stroke-dasharray:none"
     inkscape:label="none"
     id="path1387"
     inkscape:connector-curvature="0"
     sodipodi:nodetypes="cc" />
  <path
     sodipodi:nodetypes="cc"
     inkscape:connector-curvature="0"
     id="path1823"
     inkscape:label="none"
     style="fill:none;stroke:#000000;stroke-width:0.59989268;stroke-linecap:round;stroke-linejoin:round;stroke-dasharray:none"
     d="M 50.507107,10.570298 V 22.172381" />
  <path
     d="M 20.512472,10.570298 V 22.172381"
     style="fill:none;stroke:#000000;stroke-width:0.59989268;stroke-linecap:round;stroke-linejoin:round;stroke-dasharray:none"
     inkscape:label="none"
     id="path1825"
     inkscape:connector-curvature="0"
     sodipodi:nodetypes="cc" />
  <path
     sodipodi:nodetypes="cc"
     inkscape:connector-curvature="0"
     id="path1827"
     inkscape:label="none"
     style="fill:none;stroke:#000000;stroke-width:0.59989268;stroke-linecap:round;stroke-linejoin:round;stroke-dasharray:none"
     d="M 20.462143,15.861965 H 9.9291381" />
  <g
     transform="matrix(0.59989269,0,0,0.59989269,24.411775,-79.413606)"
     inkscape:label="Capacitor"
     id="g1875">
    <path
       inkscape:connector-curvature="0"
       d="M 3,157 V 143"
       style="fill:none;stroke:#000000;stroke-width:1;stroke-linecap:round;stroke-linejoin:round;stroke-dasharray:none"
       inkscape:label="none"
       id="path1871" />
    <path
       inkscape:connector-curvature="0"
       d="M 7,157 V 143"
       style="fill:none;stroke:#000000;stroke-width:1;stroke-linecap:round;stroke-linejoin:round;stroke-dasharray:none"
       inkscape:label="none"
       id="path1873" />
  </g>
  <g
     id="g1925"
     inkscape:label="Capacitor"
     transform="matrix(0.59989269,0,0,0.59989269,40.608878,-79.413606)">
    <path
       id="path1921"
       inkscape:label="none"
       style="fill:none;stroke:#000000;stroke-width:1;stroke-linecap:round;stroke-linejoin:round;stroke-dasharray:none"
       d="M 3,157 V 143"
       inkscape:connector-curvature="0" />
    <path
       id="path1923"
       inkscape:label="none"
       style="fill:none;stroke:#000000;stroke-width:1;stroke-linecap:round;stroke-linejoin:round;stroke-dasharray:none"
       d="M 7,157 V 143"
       inkscape:connector-curvature="0" />
  </g>
  <path
     id="path1927"
     inkscape:label="none"
     style="fill:none;stroke:#000000;stroke-width:0.59989268;stroke-linecap:round;stroke-linejoin:round;stroke-dasharray:none"
     d="M 42.221752,10.570298 H 28.691489"
     inkscape:connector-curvature="0"
     sodipodi:nodetypes="cc" />
  <g
     id="g2010"
     style="stroke:#000000;stroke-opacity:1;fill-opacity:1"
     ns0:jacobian_sqrt="0.443708"
     inkscapeversion="0.92.3"
     ns0:alignment="middle center"
     ns0:scale="2.83464566935"
     ns0:preamble="/home/mpnerem/.config/inkscape/extensions/textext/default_packages.tex"
     ns0:text=" $C_3$"
     ns0:pdfconverter="pdf2svg"
     ns0:texconverter="pdflatex"
     ns0:version="0.11.0"
     transform="matrix(0.443708,0.000000,0.000000,0.443708,-26.328712,-27.702535)">
    <g
       style="stroke:#000000;stroke-opacity:1;fill-opacity:1"
       id="surface1">
      <g
         id="g2003"
         style="stroke:#000000;fill-opacity:1;stroke-opacity:1;fill:rgb(0%,0%,0%)">
        <path
           id="path2001"
           transform="translate(133.768,134.765)"
           d="M 7.578125 -6.921875 C 7.578125 -6.953125 7.5625 -7.03125 7.46875 -7.03125 C 7.4375 -7.03125 7.421875 -7.015625 7.3125 -6.90625 L 6.625 -6.140625 C 6.53125 -6.28125 6.078125 -7.03125 4.96875 -7.03125 C 2.734375 -7.03125 0.5 -4.828125 0.5 -2.515625 C 0.5 -0.875 1.671875 0.21875 3.203125 0.21875 C 4.0625 0.21875 4.828125 -0.171875 5.359375 -0.640625 C 6.28125 -1.453125 6.453125 -2.359375 6.453125 -2.390625 C 6.453125 -2.5 6.34375 -2.5 6.328125 -2.5 C 6.265625 -2.5 6.21875 -2.46875 6.203125 -2.390625 C 6.109375 -2.109375 5.875 -1.390625 5.1875 -0.8125 C 4.5 -0.265625 3.875 -0.09375 3.359375 -0.09375 C 2.46875 -0.09375 1.40625 -0.609375 1.40625 -2.15625 C 1.40625 -2.734375 1.609375 -4.34375 2.609375 -5.515625 C 3.21875 -6.21875 4.15625 -6.71875 5.046875 -6.71875 C 6.0625 -6.71875 6.65625 -5.953125 6.65625 -4.796875 C 6.65625 -4.390625 6.625 -4.390625 6.625 -4.28125 C 6.625 -4.1875 6.734375 -4.1875 6.765625 -4.1875 C 6.890625 -4.1875 6.890625 -4.203125 6.953125 -4.390625 Z M 7.578125 -6.921875 "
           style="stroke:#000000;stroke-width:0;stroke-opacity:1;fill-opacity:1" />
      </g>
      <g
         id="g2007"
         style="stroke:#000000;fill-opacity:1;stroke-opacity:1;fill:rgb(0%,0%,0%)">
        <path
           id="path2005"
           transform="translate(140.889,136.259)"
           d="M 1.90625 -2.328125 C 2.453125 -2.328125 2.84375 -1.953125 2.84375 -1.203125 C 2.84375 -0.34375 2.328125 -0.078125 1.9375 -0.078125 C 1.65625 -0.078125 1.03125 -0.15625 0.75 -0.578125 C 1.078125 -0.578125 1.15625 -0.8125 1.15625 -0.96875 C 1.15625 -1.1875 0.984375 -1.34375 0.765625 -1.34375 C 0.578125 -1.34375 0.375 -1.21875 0.375 -0.9375 C 0.375 -0.28125 1.09375 0.140625 1.9375 0.140625 C 2.90625 0.140625 3.578125 -0.515625 3.578125 -1.203125 C 3.578125 -1.75 3.140625 -2.296875 2.375 -2.453125 C 3.09375 -2.71875 3.359375 -3.234375 3.359375 -3.671875 C 3.359375 -4.21875 2.734375 -4.625 1.953125 -4.625 C 1.1875 -4.625 0.59375 -4.25 0.59375 -3.6875 C 0.59375 -3.453125 0.75 -3.328125 0.953125 -3.328125 C 1.171875 -3.328125 1.3125 -3.484375 1.3125 -3.671875 C 1.3125 -3.875 1.171875 -4.03125 0.953125 -4.046875 C 1.203125 -4.34375 1.671875 -4.421875 1.9375 -4.421875 C 2.25 -4.421875 2.6875 -4.265625 2.6875 -3.671875 C 2.6875 -3.375 2.59375 -3.046875 2.40625 -2.84375 C 2.1875 -2.578125 1.984375 -2.5625 1.640625 -2.53125 C 1.46875 -2.515625 1.453125 -2.515625 1.421875 -2.515625 C 1.40625 -2.515625 1.34375 -2.5 1.34375 -2.421875 C 1.34375 -2.328125 1.40625 -2.328125 1.53125 -2.328125 Z M 1.90625 -2.328125 "
           style="stroke:#000000;stroke-width:0;stroke-opacity:1;fill-opacity:1" />
      </g>
    </g>
  </g>
  <g
     transform="matrix(0.443708,0.000000,0.000000,0.443708,3.645899,-51.421487)"
     ns0:version="0.11.0"
     ns0:texconverter="pdflatex"
     ns0:pdfconverter="pdf2svg"
     ns0:text=" $C_4$"
     ns0:preamble="/home/mpnerem/.config/inkscape/extensions/textext/default_packages.tex"
     ns0:scale="2.83464566935"
     ns0:alignment="middle center"
     inkscapeversion="0.92.3"
     ns0:jacobian_sqrt="0.443708"
     style="stroke:#000000;stroke-opacity:1;fill-opacity:1"
     id="g2154">
    <g
       id="g2152"
       style="stroke:#000000;stroke-opacity:1;fill-opacity:1">
      <g
         style="stroke:#000000;fill-opacity:1;stroke-opacity:1;fill:rgb(0%,0%,0%)"
         id="g2146">
        <path
           style="stroke:#000000;stroke-width:0;stroke-opacity:1;fill-opacity:1"
           d="M 7.578125 -6.921875 C 7.578125 -6.953125 7.5625 -7.03125 7.46875 -7.03125 C 7.4375 -7.03125 7.421875 -7.015625 7.3125 -6.90625 L 6.625 -6.140625 C 6.53125 -6.28125 6.078125 -7.03125 4.96875 -7.03125 C 2.734375 -7.03125 0.5 -4.828125 0.5 -2.515625 C 0.5 -0.875 1.671875 0.21875 3.203125 0.21875 C 4.0625 0.21875 4.828125 -0.171875 5.359375 -0.640625 C 6.28125 -1.453125 6.453125 -2.359375 6.453125 -2.390625 C 6.453125 -2.5 6.34375 -2.5 6.328125 -2.5 C 6.265625 -2.5 6.21875 -2.46875 6.203125 -2.390625 C 6.109375 -2.109375 5.875 -1.390625 5.1875 -0.8125 C 4.5 -0.265625 3.875 -0.09375 3.359375 -0.09375 C 2.46875 -0.09375 1.40625 -0.609375 1.40625 -2.15625 C 1.40625 -2.734375 1.609375 -4.34375 2.609375 -5.515625 C 3.21875 -6.21875 4.15625 -6.71875 5.046875 -6.71875 C 6.0625 -6.71875 6.65625 -5.953125 6.65625 -4.796875 C 6.65625 -4.390625 6.625 -4.390625 6.625 -4.28125 C 6.625 -4.1875 6.734375 -4.1875 6.765625 -4.1875 C 6.890625 -4.1875 6.890625 -4.203125 6.953125 -4.390625 Z M 7.578125 -6.921875 "
           transform="translate(133.768,134.765)"
           id="path2144" />
      </g>
      <g
         style="stroke:#000000;fill-opacity:1;stroke-opacity:1;fill:rgb(0%,0%,0%)"
         id="g2150">
        <path
           style="stroke:#000000;stroke-width:0;stroke-opacity:1;fill-opacity:1"
           d="M 3.6875 -1.140625 L 3.6875 -1.390625 L 2.90625 -1.390625 L 2.90625 -4.5 C 2.90625 -4.640625 2.90625 -4.703125 2.765625 -4.703125 C 2.671875 -4.703125 2.640625 -4.703125 2.578125 -4.59375 L 0.265625 -1.390625 L 0.265625 -1.140625 L 2.328125 -1.140625 L 2.328125 -0.578125 C 2.328125 -0.328125 2.328125 -0.25 1.75 -0.25 L 1.5625 -0.25 L 1.5625 0 C 1.921875 -0.015625 2.359375 -0.03125 2.609375 -0.03125 C 2.875 -0.03125 3.3125 -0.015625 3.671875 0 L 3.671875 -0.25 L 3.484375 -0.25 C 2.90625 -0.25 2.90625 -0.328125 2.90625 -0.578125 L 2.90625 -1.140625 Z M 2.375 -3.9375 L 2.375 -1.390625 L 0.53125 -1.390625 Z M 2.375 -3.9375 "
           transform="translate(140.889,136.259)"
           id="path2148" />
      </g>
    </g>
  </g>
  <g
     id="g2295"
     style="fill-opacity:1;stroke:#000000;stroke-opacity:1"
     ns0:jacobian_sqrt="0.443708"
     inkscapeversion="0.92.3"
     ns0:alignment="middle center"
     ns0:scale="2.83464566935"
     ns0:preamble="/home/mpnerem/.config/inkscape/extensions/textext/default_packages.tex"
     ns0:text=" $C_2$"
     ns0:pdfconverter="pdf2svg"
     ns0:texconverter="pdflatex"
     ns0:version="0.11.0"
     transform="matrix(0.443708,0,0,0.443708,-18.216295,-56.682086)">
    <g
       style="fill-opacity:1;stroke:#000000;stroke-opacity:1"
       id="g2293">
      <g
         id="g2287"
         style="fill:#000000;fill-opacity:1;stroke:#000000;stroke-opacity:1">
        <path
           id="path2285"
           transform="translate(133.768,134.765)"
           d="m 7.578125,-6.921875 c 0,-0.03125 -0.015625,-0.109375 -0.109375,-0.109375 -0.03125,0 -0.046875,0.015625 -0.15625,0.125 L 6.625,-6.140625 C 6.53125,-6.28125 6.078125,-7.03125 4.96875,-7.03125 2.734375,-7.03125 0.5,-4.828125 0.5,-2.515625 0.5,-0.875 1.671875,0.21875 3.203125,0.21875 c 0.859375,0 1.625,-0.390625 2.15625,-0.859375 0.921875,-0.8125 1.09375,-1.71875 1.09375,-1.75 C 6.453125,-2.5 6.34375,-2.5 6.328125,-2.5 c -0.0625,0 -0.109375,0.03125 -0.125,0.109375 -0.09375,0.28125 -0.328125,1 -1.015625,1.578125 -0.6875,0.546875 -1.3125,0.71875 -1.828125,0.71875 -0.890625,0 -1.953125,-0.515625 -1.953125,-2.0625 0,-0.578125 0.203125,-2.1875 1.203125,-3.359375 0.609375,-0.703125 1.546875,-1.203125 2.4375,-1.203125 1.015625,0 1.609375,0.765625 1.609375,1.921875 0,0.40625 -0.03125,0.40625 -0.03125,0.515625 0,0.09375 0.109375,0.09375 0.140625,0.09375 0.125,0 0.125,-0.015625 0.1875,-0.203125 z m 0,0"
           style="fill-opacity:1;stroke:#000000;stroke-width:0;stroke-opacity:1"
           inkscape:connector-curvature="0" />
      </g>
      <g
         id="g2291"
         style="fill:#000000;fill-opacity:1;stroke:#000000;stroke-opacity:1">
        <path
           id="path2289"
           transform="translate(140.889,136.259)"
           d="M 3.515625,-1.265625 H 3.28125 c -0.015625,0.15625 -0.09375,0.5625 -0.1875,0.625 C 3.046875,-0.59375 2.515625,-0.59375 2.40625,-0.59375 H 1.125 c 0.734375,-0.640625 0.984375,-0.84375 1.390625,-1.171875 0.515625,-0.40625 1,-0.84375 1,-1.5 0,-0.84375 -0.734375,-1.359375 -1.625,-1.359375 -0.859375,0 -1.453125,0.609375 -1.453125,1.25 0,0.34375 0.296875,0.390625 0.375,0.390625 0.15625,0 0.359375,-0.125 0.359375,-0.375 0,-0.125 -0.046875,-0.375 -0.40625,-0.375 C 0.984375,-4.21875 1.453125,-4.375 1.78125,-4.375 c 0.703125,0 1.0625,0.546875 1.0625,1.109375 0,0.609375 -0.4375,1.078125 -0.65625,1.328125 L 0.515625,-0.265625 C 0.4375,-0.203125 0.4375,-0.1875 0.4375,0 h 2.875 z m 0,0"
           style="fill-opacity:1;stroke:#000000;stroke-width:0;stroke-opacity:1"
           inkscape:connector-curvature="0" />
      </g>
    </g>
  </g>
</svg>
