<?xml version="1.0" encoding="UTF-8" standalone="no"?>
<!-- Created with Inkscape (http://www.inkscape.org/) -->

<svg
   xmlns:ns0="http://www.iki.fi/pav/software/textext/"
   xmlns:dc="http://purl.org/dc/elements/1.1/"
   xmlns:cc="http://creativecommons.org/ns#"
   xmlns:rdf="http://www.w3.org/1999/02/22-rdf-syntax-ns#"
   xmlns:svg="http://www.w3.org/2000/svg"
   xmlns="http://www.w3.org/2000/svg"
   xmlns:sodipodi="http://sodipodi.sourceforge.net/DTD/sodipodi-0.dtd"
   xmlns:inkscape="http://www.inkscape.org/namespaces/inkscape"
   width="92.935066mm"
   height="52.248726mm"
   viewBox="0 0 329.29748 185.13328"
   id="svg2"
   version="1.1"
   inkscape:version="0.92.3 (2405546, 2018-03-11)"
   sodipodi:docname="Magnetism-0010.svg">
  <sodipodi:namedview
     id="base"
     pagecolor="#ffffff"
     bordercolor="#666666"
     borderopacity="1.0"
     inkscape:pageopacity="0.0"
     inkscape:pageshadow="2"
     inkscape:zoom="2.8"
     inkscape:cx="138.04206"
     inkscape:cy="84.614282"
     inkscape:document-units="px"
     inkscape:current-layer="layer1"
     showgrid="false"
     inkscape:window-width="1920"
     inkscape:window-height="1035"
     inkscape:window-x="0"
     inkscape:window-y="20"
     inkscape:window-maximized="1"
     fit-margin-top="0"
     fit-margin-left="0"
     fit-margin-right="0"
     fit-margin-bottom="0" />
  <defs
     id="defs4">
    <marker
       inkscape:stockid="Arrow1Mend"
       orient="auto"
       refY="0"
       refX="0"
       id="Arrow1Mend"
       style="overflow:visible"
       inkscape:isstock="true">
      <path
         inkscape:connector-curvature="0"
         id="path4256"
         d="M 0,0 5,-5 -12.5,0 5,5 0,0 Z"
         style="fill:#000000;fill-opacity:1;fill-rule:evenodd;stroke:#000000;stroke-width:1pt;stroke-opacity:1"
         transform="matrix(-0.4,0,0,-0.4,-4,0)" />
    </marker>
    <marker
       inkscape:stockid="Arrow1Lend"
       orient="auto"
       refY="0"
       refX="0"
       id="marker5315"
       style="overflow:visible"
       inkscape:isstock="true">
      <path
         inkscape:connector-curvature="0"
         id="path5317"
         d="M 0,0 5,-5 -12.5,0 5,5 0,0 Z"
         style="fill:#000000;fill-opacity:1;fill-rule:evenodd;stroke:#000000;stroke-width:1pt;stroke-opacity:1"
         transform="matrix(-0.8,0,0,-0.8,-10,0)" />
    </marker>
    <marker
       inkscape:stockid="Arrow1Lend"
       orient="auto"
       refY="0"
       refX="0"
       id="Arrow1Lend"
       style="overflow:visible"
       inkscape:isstock="true">
      <path
         inkscape:connector-curvature="0"
         id="path4250"
         d="M 0,0 5,-5 -12.5,0 5,5 0,0 Z"
         style="fill-rule:evenodd;stroke:#000000;stroke-width:1pt"
         transform="matrix(-0.8,0,0,-0.8,-10,0)" />
    </marker>
  </defs>
  <metadata
     id="metadata7">
    <rdf:RDF>
      <cc:Work
         rdf:about="">
        <dc:format>image/svg+xml</dc:format>
        <dc:type
           rdf:resource="http://purl.org/dc/dcmitype/StillImage" />
        <dc:title></dc:title>
      </cc:Work>
    </rdf:RDF>
  </metadata>
  <g
     transform="translate(-108.02169,-234.57414)"
     inkscape:label="Layer 1"
     inkscape:groupmode="layer"
     id="layer1">
    <g
       transform="translate(0,1.014326)"
       id="g5587">
      <g
         id="g5564"
         transform="translate(0,-20.000001)">
        <circle
           transform="matrix(0,-1,1,0,0,0)"
           style="opacity:1;fill:#5092dc;fill-opacity:1;fill-rule:nonzero;stroke:none;stroke-width:2;stroke-linecap:round;stroke-linejoin:round;stroke-miterlimit:4;stroke-dasharray:none;stroke-dashoffset:0;stroke-opacity:1"
           id="path4165"
           cx="-284.06155"
           cy="141.15773"
           r="10.303556" />
        <circle
           transform="matrix(0,-1,1,0,0,0)"
           r="10.303556"
           cy="228.83293"
           cx="-284.06155"
           id="circle4178"
           style="opacity:1;fill:#5092dc;fill-opacity:1;fill-rule:nonzero;stroke:none;stroke-width:2;stroke-linecap:round;stroke-linejoin:round;stroke-miterlimit:4;stroke-dasharray:none;stroke-dashoffset:0;stroke-opacity:1" />
        <circle
           transform="matrix(0,-1,1,0,0,0)"
           style="opacity:1;fill:#5092dc;fill-opacity:1;fill-rule:nonzero;stroke:none;stroke-width:2;stroke-linecap:round;stroke-linejoin:round;stroke-miterlimit:4;stroke-dasharray:none;stroke-dashoffset:0;stroke-opacity:1"
           id="circle4186"
           cx="-284.06155"
           cy="316.50803"
           r="10.303556" />
        <circle
           transform="matrix(0,-1,1,0,0,0)"
           r="10.303556"
           cy="404.18323"
           cx="-284.06155"
           id="circle4194"
           style="opacity:1;fill:#5092dc;fill-opacity:1;fill-rule:nonzero;stroke:none;stroke-width:2;stroke-linecap:round;stroke-linejoin:round;stroke-miterlimit:4;stroke-dasharray:none;stroke-dashoffset:0;stroke-opacity:1" />
      </g>
      <g
         id="g5570"
         transform="translate(0,20.000001)">
        <circle
           r="10.303556"
           cy="141.15773"
           cx="-284.06155"
           id="circle5572"
           style="opacity:1;fill:#5092dc;fill-opacity:1;fill-rule:nonzero;stroke:none;stroke-width:2;stroke-linecap:round;stroke-linejoin:round;stroke-miterlimit:4;stroke-dasharray:none;stroke-dashoffset:0;stroke-opacity:1"
           transform="matrix(0,-1,1,0,0,0)" />
        <circle
           style="opacity:1;fill:#5092dc;fill-opacity:1;fill-rule:nonzero;stroke:none;stroke-width:2;stroke-linecap:round;stroke-linejoin:round;stroke-miterlimit:4;stroke-dasharray:none;stroke-dashoffset:0;stroke-opacity:1"
           id="circle5574"
           cx="-284.06155"
           cy="228.83293"
           r="10.303556"
           transform="matrix(0,-1,1,0,0,0)" />
        <circle
           r="10.303556"
           cy="316.50803"
           cx="-284.06155"
           id="circle5576"
           style="opacity:1;fill:#5092dc;fill-opacity:1;fill-rule:nonzero;stroke:none;stroke-width:2;stroke-linecap:round;stroke-linejoin:round;stroke-miterlimit:4;stroke-dasharray:none;stroke-dashoffset:0;stroke-opacity:1"
           transform="matrix(0,-1,1,0,0,0)" />
        <circle
           style="opacity:1;fill:#5092dc;fill-opacity:1;fill-rule:nonzero;stroke:none;stroke-width:2;stroke-linecap:round;stroke-linejoin:round;stroke-miterlimit:4;stroke-dasharray:none;stroke-dashoffset:0;stroke-opacity:1"
           id="circle5578"
           cx="-284.06155"
           cy="404.18323"
           r="10.303556"
           transform="matrix(0,-1,1,0,0,0)" />
      </g>
    </g>
    <path
       transform="matrix(0,-1,1,0,0,0)"
       style="opacity:1;fill:none;fill-opacity:1;fill-rule:nonzero;stroke:#000000;stroke-width:3;stroke-linecap:round;stroke-linejoin:round;stroke-miterlimit:4;stroke-dasharray:9, 9;stroke-dashoffset:0;stroke-opacity:1"
       id="path4237"
       sodipodi:type="arc"
       sodipodi:cx="-332.02753"
       sodipodi:cy="305.88504"
       sodipodi:rx="32.214394"
       sodipodi:ry="32.214394"
       sodipodi:start="4.712389"
       sodipodi:end="1.5707963"
       sodipodi:open="true"
       d="m -332.02753,273.67065 a 32.214394,32.214394 0 0 1 32.2144,32.21439 32.214394,32.214394 0 0 1 -32.2144,32.21439" />
    <g
       id="g5580">
      <path
         style="fill:none;fill-rule:evenodd;stroke:#000000;stroke-width:2.00000024;stroke-linecap:round;stroke-linejoin:miter;stroke-miterlimit:4;stroke-dasharray:none;stroke-opacity:1"
         d="m 109.03593,334.57752 150.40359,0"
         id="path5560"
         inkscape:connector-curvature="0"
         sodipodi:nodetypes="cc" />
      <path
         sodipodi:nodetypes="cc"
         inkscape:connector-curvature="0"
         id="path5562"
         d="m 285.90138,334.57752 150.40359,0"
         style="fill:none;fill-rule:evenodd;stroke:#000000;stroke-width:2.00000024;stroke-linecap:round;stroke-linejoin:miter;stroke-miterlimit:4;stroke-dasharray:none;stroke-opacity:1" />
      <path
         style="fill:none;fill-rule:evenodd;stroke:#000000;stroke-width:2.00000024;stroke-linecap:round;stroke-linejoin:miter;stroke-miterlimit:4;stroke-dasharray:none;stroke-opacity:1"
         d="m 436.30497,235.57424 -327.26904,0"
         id="path5554"
         inkscape:connector-curvature="0" />
      <path
         inkscape:connector-curvature="0"
         id="path5556"
         d="m 109.02179,334.56338 0,-98.975"
         style="fill:none;fill-rule:evenodd;stroke:#000000;stroke-width:2.00000024;stroke-linecap:round;stroke-linejoin:miter;stroke-miterlimit:4;stroke-dasharray:none;stroke-opacity:1" />
      <path
         style="fill:none;fill-rule:evenodd;stroke:#000000;stroke-width:2.00000024;stroke-linecap:round;stroke-linejoin:miter;stroke-miterlimit:4;stroke-dasharray:none;stroke-opacity:1"
         d="m 436.31911,334.56338 0,-98.975"
         id="path5558"
         inkscape:connector-curvature="0" />
    </g>
    <path
       transform="matrix(0,-1,1,0,0,0)"
       d="m -332.02753,273.67064 a 64.428787,64.428787 0 0 1 64.42879,64.42879 64.428787,64.428787 0 0 1 -64.42879,64.42878"
       sodipodi:open="true"
       sodipodi:end="1.5707963"
       sodipodi:start="4.712389"
       sodipodi:ry="64.428787"
       sodipodi:rx="64.428787"
       sodipodi:cy="338.09943"
       sodipodi:cx="-332.02753"
       sodipodi:type="arc"
       id="path4619"
       style="opacity:1;fill:none;fill-opacity:1;fill-rule:nonzero;stroke:#000000;stroke-width:3;stroke-linecap:round;stroke-linejoin:round;stroke-miterlimit:4;stroke-dasharray:9, 9;stroke-dashoffset:0;stroke-opacity:1" />
    <path
       transform="matrix(0,-1,1,0,0,0)"
       d="m -332.02753,207.24152 a 32.214394,32.214394 0 0 1 32.2144,32.2144 32.214394,32.214394 0 0 1 -32.2144,32.21439"
       sodipodi:open="true"
       sodipodi:end="1.5707963"
       sodipodi:start="4.712389"
       sodipodi:ry="32.214394"
       sodipodi:rx="32.214394"
       sodipodi:cy="239.45592"
       sodipodi:cx="-332.02753"
       sodipodi:type="arc"
       id="path4621"
       style="opacity:1;fill:none;fill-opacity:1;fill-rule:nonzero;stroke:#000000;stroke-width:3;stroke-linecap:round;stroke-linejoin:round;stroke-miterlimit:4;stroke-dasharray:9, 9;stroke-dashoffset:0;stroke-opacity:1" />
    <path
       transform="matrix(0,-1,1,0,0,0)"
       style="opacity:1;fill:none;fill-opacity:1;fill-rule:nonzero;stroke:#000000;stroke-width:3;stroke-linecap:round;stroke-linejoin:round;stroke-miterlimit:4;stroke-dasharray:9, 9;stroke-dashoffset:0;stroke-opacity:1"
       id="path4623"
       sodipodi:type="arc"
       sodipodi:cx="-332.02753"
       sodipodi:cy="207.24153"
       sodipodi:rx="64.428787"
       sodipodi:ry="64.428787"
       sodipodi:start="4.712389"
       sodipodi:end="1.5707963"
       sodipodi:open="true"
       d="m -332.02753,142.81274 a 64.428787,64.428787 0 0 1 64.42879,64.42879 64.428787,64.428787 0 0 1 -64.42879,64.42879" />
    <circle
       transform="matrix(0,-1,1,0,0,0)"
       style="opacity:1;fill:#000000;fill-opacity:1;fill-rule:nonzero;stroke:#000000;stroke-width:1.74345553;stroke-linecap:butt;stroke-linejoin:round;stroke-miterlimit:4;stroke-dasharray:none;stroke-dashoffset:0;stroke-opacity:1"
       id="path4635"
       cx="-333.04889"
       cy="141.81259"
       r="7.0568442" />
    <circle
       transform="matrix(0,-1,1,0,0,0)"
       r="7.0568442"
       cy="206.24138"
       cx="-333.04889"
       id="circle4637"
       style="opacity:1;fill:#000000;fill-opacity:1;fill-rule:nonzero;stroke:#000000;stroke-width:1.74345553;stroke-linecap:butt;stroke-linejoin:round;stroke-miterlimit:4;stroke-dasharray:none;stroke-dashoffset:0;stroke-opacity:1" />
    <circle
       transform="matrix(0,-1,1,0,0,0)"
       style="opacity:1;fill:#000000;fill-opacity:1;fill-rule:nonzero;stroke:#000000;stroke-width:1.74345553;stroke-linecap:butt;stroke-linejoin:round;stroke-miterlimit:4;stroke-dasharray:none;stroke-dashoffset:0;stroke-opacity:1"
       id="circle4639"
       cx="-333.04889"
       cy="403.52835"
       r="7.0568442" />
    <circle
       transform="matrix(0,-1,1,0,0,0)"
       r="7.0568442"
       cy="339.09958"
       cx="-333.04889"
       id="circle4641"
       style="opacity:1;fill:#000000;fill-opacity:1;fill-rule:nonzero;stroke:#000000;stroke-width:1.74345553;stroke-linecap:butt;stroke-linejoin:round;stroke-miterlimit:4;stroke-dasharray:none;stroke-dashoffset:0;stroke-opacity:1" />
    <g
       style="font-style:normal;font-variant:normal;font-weight:normal;font-stretch:normal;letter-spacing:normal;word-spacing:normal;text-anchor:start;fill:#ffffff;fill-opacity:1;fill-rule:evenodd;stroke:#000000;stroke-linecap:butt;stroke-linejoin:miter;stroke-miterlimit:10.43299961;stroke-dasharray:none;stroke-dashoffset:0;stroke-opacity:1"
       id="content"
       transform="matrix(1.4347258,0,0,-1.4347258,-184.10689,1022.8507)"
       xml:space="preserve"
       stroke-miterlimit="10.433"
       font-style="normal"
       font-variant="normal"
       font-weight="normal"
       font-stretch="normal"
       font-size-adjust="none"
       letter-spacing="normal"
       word-spacing="normal"
       ns0:text="A"
       ns0:preamble="/home/mpnerem/.config/inkscape/extensions/textextLib/CircuitSymbolsLatexPreamble.tex"><path
         style="fill:#ffffff;stroke-width:0"
         inkscape:connector-curvature="0"
         d="m 227.4,484.15 0,0.01 -0.01,0.01 0,0.01 -0.01,0.01 0,0.02 -0.01,0.01 0,0.01 0,0 -0.01,0.01 0,0.01 -0.01,0.01 0,0.01 -0.01,0.01 0,0 -0.01,0.01 0,0.01 -0.01,0 0,0.01 -0.01,0 -0.01,0.01 -0.01,0 0,0.01 -0.01,0 -0.01,0.01 -0.01,0 -0.01,0 -0.01,0 -0.01,0 -0.02,0.01 -0.01,0 -0.01,0 -0.01,0 -0.01,0 c -0.16,0 -0.19,-0.06 -0.24,-0.2 l -2.06,-5.94 c -0.18,-0.51 -0.58,-0.66 -1.12,-0.67 l 0,-0.31 c 0.23,0.01 0.66,0.04 1.02,0.04 0.31,0 0.83,-0.03 1.14,-0.04 l 0,0.31 c -0.49,0 -0.74,0.25 -0.74,0.51 0,0.03 0.01,0.13 0.02,0.15 l 0.46,1.3 0.11,0.31 1.11,3.23 1.13,-3.23 -2.24,0 -0.11,-0.31 2.46,0 0.53,-1.52 c 0.01,-0.04 0.03,-0.1 0.03,-0.14 0,-0.3 -0.56,-0.3 -0.83,-0.3 l 0,-0.31 c 0.36,0.04 1.06,0.04 1.44,0.04 0.42,0 0.88,-0.01 1.3,-0.04 l 0,0.31 -0.18,0 c -0.6,0 -0.74,0.07 -0.85,0.4 z"
         id="path4695" /></g>    <g
       style="font-style:normal;font-variant:normal;font-weight:normal;font-stretch:normal;letter-spacing:normal;word-spacing:normal;text-anchor:start;fill:#ffffff;fill-opacity:1;fill-rule:evenodd;stroke:#000000;stroke-linecap:butt;stroke-linejoin:miter;stroke-miterlimit:10.43299961;stroke-dasharray:none;stroke-dashoffset:0;stroke-opacity:1"
       ns0:preamble="/home/mpnerem/.config/inkscape/extensions/textextLib/CircuitSymbolsLatexPreamble.tex"
       ns0:text="B"
       word-spacing="normal"
       letter-spacing="normal"
       font-size-adjust="none"
       font-stretch="normal"
       font-weight="normal"
       font-variant="normal"
       font-style="normal"
       stroke-miterlimit="10.433"
       xml:space="preserve"
       transform="matrix(1.4347258,0,0,-1.4347258,-119.23334,1022.614)"
       id="g4749"><path
         id="path4751"
         d="m 228,480.78 0.09,0.02 0.09,0.02 0.08,0.03 0.09,0.02 0.08,0.03 0.08,0.03 0.08,0.04 0.08,0.03 0.07,0.04 0.07,0.04 0.07,0.04 0.07,0.04 0.06,0.05 0.06,0.05 0.06,0.05 0.06,0.05 0.05,0.05 0.05,0.05 0.05,0.06 0.05,0.05 0.04,0.06 0.04,0.06 0.03,0.06 0.03,0.06 0.03,0.07 0.03,0.06 0.02,0.07 0.01,0.06 0.02,0.07 0.01,0.06 0,0.07 0,0.07 c 0,0.86 -0.91,1.68 -2.21,1.68 l -0.07,-0.31 c 0.97,0 1.32,-0.84 1.32,-1.37 0,-0.64 -0.49,-1.47 -1.6,-1.47 l -1.44,0 0,-0.22 1.87,0 c 0.99,0 1.41,-0.92 1.41,-1.59 0,-0.7 -0.52,-1.52 -1.55,-1.52 l 0,0 -1.25,0 c -0.46,0 -0.48,0.07 -0.48,0.4 l 0,2.71 0,0.22 0,2.45 c 0,0.32 0.02,0.39 0.48,0.39 l 1.24,0 0.07,0.31 -3.65,0 0,-0.31 0.24,0 c 0.77,0 0.79,-0.11 0.79,-0.47 l 0,-5.23 c 0,-0.36 -0.02,-0.47 -0.79,-0.47 l -0.24,0 0,-0.31 3.91,0 c 1.33,0 2.22,0.89 2.22,1.82 0,0.87 -0.81,1.61 -1.92,1.73 z"
         style="fill:#ffffff;stroke-width:0"
         inkscape:connector-curvature="0" /></g>    <g
       id="g4809"
       transform="matrix(1.4347258,0,0,-1.4347258,13.380914,1022.6211)"
       xml:space="preserve"
       stroke-miterlimit="10.433"
       font-style="normal"
       font-variant="normal"
       font-weight="normal"
       font-stretch="normal"
       font-size-adjust="none"
       letter-spacing="normal"
       word-spacing="normal"
       ns0:text="C"
       ns0:preamble="/home/mpnerem/.config/inkscape/extensions/textextLib/CircuitSymbolsLatexPreamble.tex"
       style="font-style:normal;font-variant:normal;font-weight:normal;font-stretch:normal;letter-spacing:normal;word-spacing:normal;text-anchor:start;fill:#ffffff;fill-opacity:1;fill-rule:evenodd;stroke:#000000;stroke-linecap:butt;stroke-linejoin:miter;stroke-miterlimit:10.43299961;stroke-dasharray:none;stroke-dashoffset:0;stroke-opacity:1"><path
         inkscape:connector-curvature="0"
         style="fill:#ffffff;stroke-width:0"
         d="m 223.99,480.63 0,-0.19 0.02,-0.19 0.02,-0.18 0.03,-0.18 0.04,-0.18 0.05,-0.18 0.06,-0.16 0.06,-0.17 0.07,-0.16 0.08,-0.16 0.09,-0.15 0.09,-0.15 0.1,-0.14 0.1,-0.13 0.11,-0.13 0.12,-0.13 0.12,-0.12 0.13,-0.11 0.13,-0.1 0.14,-0.1 0.14,-0.09 0.14,-0.09 0.15,-0.08 0.16,-0.07 0.15,-0.06 0.16,-0.06 0.16,-0.04 0.17,-0.04 0.17,-0.03 0.17,-0.03 0.17,-0.01 0.17,0 c 1.63,0 2.6,1.38 2.6,2.53 0,0.1 0,0.17 -0.13,0.17 -0.11,0 -0.11,-0.06 -0.12,-0.16 -0.08,-1.42 -1.14,-2.24 -2.23,-2.24 -0.61,0 -2.56,0.34 -2.56,3.3 0,2.97 1.94,3.31 2.55,3.31 1.09,0 1.97,-0.9 2.17,-2.35 0.02,-0.14 0.02,-0.17 0.16,-0.17 0.16,0 0.16,0.03 0.16,0.24 l 0,2.35 c 0,0.17 0,0.24 -0.11,0.24 -0.04,0 -0.08,0 -0.16,-0.12 l -0.49,-0.74 c -0.37,0.36 -0.88,0.86 -1.84,0.86 -1.86,0 -3.47,-1.58 -3.47,-3.61 z"
         id="path4811" /></g>    <g
       style="font-style:normal;font-variant:normal;font-weight:normal;font-stretch:normal;letter-spacing:normal;word-spacing:normal;text-anchor:start;fill:#f9f9f9;fill-opacity:1;fill-rule:evenodd;stroke:#000000;stroke-linecap:butt;stroke-linejoin:miter;stroke-miterlimit:10.43299961;stroke-dasharray:none;stroke-dashoffset:0;stroke-opacity:1"
       ns0:preamble="/home/mpnerem/.config/inkscape/extensions/textextLib/CircuitSymbolsLatexPreamble.tex"
       ns0:text="D"
       word-spacing="normal"
       letter-spacing="normal"
       font-size-adjust="none"
       font-stretch="normal"
       font-weight="normal"
       font-variant="normal"
       font-style="normal"
       stroke-miterlimit="10.433"
       xml:space="preserve"
       transform="matrix(1.4347258,0,0,-1.4347258,77.659041,1022.614)"
       id="g4873"><path
         id="path4875"
         d="m 223.78,484.02 0,-0.31 0.24,0 c 0.77,0 0.79,-0.11 0.79,-0.47 l 0,-5.23 c 0,-0.36 -0.02,-0.47 -0.79,-0.47 l -0.24,0 0,-0.31 3.65,0 -0.27,0.31 -1.01,0 c -0.46,0 -0.48,0.07 -0.48,0.4 l 0,5.38 c 0,0.32 0.02,0.39 0.48,0.39 l 1,0 c 0.62,0 1.31,-0.22 1.82,-0.92 0.43,-0.59 0.52,-1.44 0.52,-2.22 0,-1.1 -0.19,-1.7 -0.55,-2.18 -0.2,-0.27 -0.77,-0.85 -1.78,-0.85 l 0.27,-0.31 c 1.68,0 3.05,1.47 3.05,3.34 0,1.89 -1.34,3.45 -3.05,3.45 z"
         style="fill:#f9f9f9;stroke-width:0"
         inkscape:connector-curvature="0" /></g>    <g
       id="g4941"
       transform="matrix(1.4347258,0,0,-1.4347258,-18.509038,1069.3987)"
       xml:space="preserve"
       stroke-miterlimit="10.433"
       font-style="normal"
       font-variant="normal"
       font-weight="normal"
       font-stretch="normal"
       font-size-adjust="none"
       letter-spacing="normal"
       word-spacing="normal"
       ns0:text="Velocity Selector"
       ns0:preamble="/home/mpnerem/.config/inkscape/extensions/textextLib/CircuitSymbolsLatexPreamble.tex"
       style="font-style:normal;font-variant:normal;font-weight:normal;font-stretch:normal;letter-spacing:normal;word-spacing:normal;text-anchor:start;fill:#ffffff;fill-opacity:1;fill-rule:evenodd;stroke:#000000;stroke-linecap:butt;stroke-linejoin:miter;stroke-miterlimit:10.43299961;stroke-dasharray:none;stroke-dashoffset:0;stroke-opacity:1"><path
         style="fill:#000000;stroke-width:0"
         inkscape:connector-curvature="0"
         d="m 229.62,483.05 0.02,0.03 0.01,0.03 0.02,0.04 0.01,0.03 0.02,0.03 0.02,0.03 0.02,0.03 0.02,0.03 0.02,0.03 0.02,0.03 0.03,0.03 0.02,0.03 0.03,0.02 0.03,0.03 0.03,0.02 0.03,0.02 0.03,0.03 0.03,0.02 0.04,0.02 0.04,0.01 0.04,0.02 0.04,0.02 0.04,0.01 0.05,0.02 0.04,0.01 0.05,0.01 0.05,0.01 0.06,0.01 0.05,0 0.06,0.01 0.06,0 0.06,0 0,0.31 c -0.31,-0.02 -0.71,-0.03 -0.97,-0.03 -0.29,0 -0.87,0.02 -1.13,0.03 l 0,-0.31 c 0.52,-0.01 0.73,-0.27 0.73,-0.5 0,-0.07 -0.03,-0.13 -0.05,-0.19 l -1.83,-4.79 -1.9,5.01 c -0.06,0.14 -0.06,0.16 -0.06,0.18 0,0.29 0.57,0.29 0.81,0.29 l 0,0.31 c -0.35,-0.03 -1.04,-0.03 -1.42,-0.03 -0.48,0 -0.91,0.02 -1.27,0.03 l 0,-0.31 c 0.65,0 0.84,0 0.98,-0.38 l 2.31,-6.1 c 0.07,-0.18 0.12,-0.21 0.25,-0.21 0.17,0 0.19,0.05 0.24,0.18 z"
         id="path4943" /><path
         style="fill:#000000;stroke-width:0"
         inkscape:connector-curvature="0"
         d="m 231.18,479.53 0.01,0.21 c 0.06,1.48 0.9,1.73 1.24,1.73 1.03,0 1.13,-1.34 1.13,-1.73 l -2.37,0 -0.01,-0.21 2.79,0 c 0.22,0 0.24,0 0.24,0.21 0,0.98 -0.53,1.94 -1.78,1.94 -1.16,0 -2.07,-1.02 -2.07,-2.26 0,-1.33 1.04,-2.29 2.19,-2.29 1.22,0 1.66,1.1 1.66,1.29 0,0.1 -0.07,0.12 -0.12,0.12 -0.09,0 -0.11,-0.06 -0.13,-0.14 -0.35,-1.03 -1.25,-1.03 -1.35,-1.03 -0.5,0 -0.9,0.3 -1.13,0.67 -0.3,0.48 -0.3,1.13 -0.3,1.49 z"
         id="path4945" /><path
         style="fill:#000000;stroke-width:0"
         inkscape:connector-curvature="0"
         d="m 236.27,484.13 -1.44,-0.11 0,-0.31 c 0.7,0 0.78,-0.07 0.78,-0.55 l 0,-5.17 c 0,-0.45 -0.11,-0.45 -0.78,-0.45 l 0,-0.31 c 0.33,0.01 0.86,0.04 1.11,0.04 0.25,0 0.74,-0.03 1.11,-0.04 l 0,0.31 c -0.67,0 -0.78,0 -0.78,0.45 z"
         id="path4947" /><path
         style="fill:#000000;stroke-width:0"
         inkscape:connector-curvature="0"
         d="m 241.97,479.36 0,0.12 -0.01,0.12 -0.02,0.11 -0.02,0.12 -0.02,0.11 -0.03,0.11 -0.04,0.11 -0.04,0.1 -0.04,0.1 -0.05,0.1 -0.05,0.1 -0.06,0.09 -0.06,0.1 -0.07,0.08 -0.07,0.09 -0.07,0.08 -0.08,0.08 -0.08,0.07 -0.08,0.07 -0.09,0.06 -0.09,0.07 -0.09,0.05 -0.09,0.05 -0.1,0.05 -0.1,0.04 -0.1,0.04 -0.11,0.03 -0.1,0.03 -0.11,0.02 -0.11,0.01 -0.11,0.01 -0.12,0 0,-0.21 c 0.43,0 0.86,-0.22 1.12,-0.65 0.26,-0.43 0.26,-1 0.26,-1.38 0,-0.36 0,-0.89 -0.22,-1.33 -0.22,-0.45 -0.66,-0.74 -1.16,-0.74 l 0,0 c -0.42,0 -0.86,0.21 -1.13,0.67 -0.25,0.44 -0.25,1.04 -0.25,1.4 0,0.39 0,0.92 0.24,1.36 0.27,0.46 0.74,0.67 1.14,0.67 l 0,0.21 c -1.24,0 -2.21,-1.08 -2.21,-2.32 0,-1.28 1.04,-2.23 2.21,-2.23 1.2,0 2.21,0.97 2.21,2.23 z"
         id="path4949" /><path
         style="fill:#000000;stroke-width:0"
         inkscape:connector-curvature="0"
         d="m 243.69,479.4 0,0.08 0,0.07 0,0.07 0.01,0.07 0,0.07 0.01,0.07 0.01,0.06 0.01,0.06 0,0.06 0.01,0.06 0.02,0.06 0.01,0.06 0.02,0.11 0.04,0.1 0.03,0.1 0.03,0.09 0.04,0.09 0.05,0.08 0.04,0.07 0.05,0.07 0.04,0.07 0.05,0.06 0.06,0.05 0.05,0.05 0.05,0.05 0.06,0.04 0.05,0.04 0.06,0.03 0.06,0.03 0.05,0.03 0.06,0.02 0.05,0.02 0.06,0.01 0.06,0.02 0.05,0.01 0.05,0 0.05,0.01 0.06,0 c 0.08,0 0.71,-0.01 1.06,-0.37 -0.41,-0.03 -0.47,-0.33 -0.47,-0.46 0,-0.26 0.18,-0.45 0.46,-0.45 0.26,0 0.46,0.16 0.46,0.46 0,0.68 -0.76,1.06 -1.53,1.06 -1.24,0 -2.16,-1.07 -2.16,-2.3 0,-1.27 0.99,-2.25 2.15,-2.25 1.33,0 1.65,1.19 1.65,1.29 0,0.1 -0.1,0.1 -0.13,0.1 -0.09,0 -0.11,-0.04 -0.13,-0.1 -0.29,-0.93 -0.94,-1.05 -1.3,-1.05 -0.53,0 -1.41,0.43 -1.41,2.03 z"
         id="path4951" /><path
         style="fill:#000000;stroke-width:0"
         inkscape:connector-curvature="0"
         d="m 248.73,481.63 -1.4,-0.11 0,-0.31 c 0.65,0 0.74,-0.06 0.74,-0.55 l 0,-2.67 c 0,-0.45 -0.11,-0.45 -0.78,-0.45 l 0,-0.31 c 0.32,0.01 0.86,0.04 1.1,0.04 0.35,0 0.69,-0.03 1.03,-0.04 l 0,0.31 c -0.66,0 -0.69,0.05 -0.69,0.44 z"
         id="path4953" /><path
         style="fill:#000000;stroke-width:0"
         inkscape:connector-curvature="0"
         d="m 248.76,483.35 0,0.03 0,0.03 0,0.03 -0.01,0.03 0,0.02 -0.01,0.03 -0.01,0.03 -0.01,0.02 -0.01,0.02 -0.01,0.03 -0.01,0.02 -0.02,0.02 -0.01,0.02 -0.02,0.02 -0.02,0.02 -0.01,0.02 -0.02,0.01 -0.02,0.02 -0.02,0.01 -0.02,0.02 -0.03,0.01 -0.02,0.01 -0.02,0.01 -0.02,0.01 -0.03,0.01 -0.02,0.01 -0.03,0.01 -0.02,0 -0.03,0.01 -0.02,0 -0.03,0 -0.02,0 c -0.31,0 -0.53,-0.27 -0.53,-0.53 0,-0.26 0.22,-0.52 0.53,-0.52 0.27,0 0.52,0.21 0.52,0.52 z"
         id="path4955" /><path
         style="fill:#000000;stroke-width:0"
         inkscape:connector-curvature="0"
         d="m 251.45,481.21 1.43,0 0,0.31 -1.43,0 0,1.82 -0.25,0 c -0.01,-0.81 -0.31,-1.87 -1.28,-1.91 l 0,-0.22 0.84,0 0,-2.74 c 0,-1.23 0.93,-1.34 1.29,-1.34 0.71,0 0.99,0.7 0.99,1.34 l 0,0.56 -0.25,0 0,-0.54 c 0,-0.74 -0.3,-1.12 -0.67,-1.12 -0.67,0 -0.67,0.91 -0.67,1.08 z"
         id="path4957" /><path
         style="fill:#000000;stroke-width:0"
         inkscape:connector-curvature="0"
         d="m 257.46,480.57 0.01,0.03 0.02,0.03 0.01,0.03 0.01,0.02 0.02,0.03 0.01,0.02 0.01,0.03 0.02,0.02 0.03,0.04 0.03,0.04 0.03,0.04 0.03,0.04 0.04,0.03 0.03,0.03 0.03,0.02 0.04,0.03 0.03,0.02 0.03,0.02 0.04,0.02 0.03,0.02 0.04,0.01 0.03,0.01 0.03,0.01 0.03,0.01 0.03,0.01 0.03,0.01 0.03,0 0.03,0.01 0.03,0 0.03,0 0.02,0.01 0.02,0 0.02,0 0.02,0 0.02,0 0.02,0 0,0.31 c -0.23,-0.02 -0.52,-0.03 -0.75,-0.03 -0.18,0 -0.65,0.02 -0.87,0.03 l 0,-0.31 c 0.31,-0.01 0.47,-0.18 0.47,-0.43 0,-0.1 -0.01,-0.12 -0.06,-0.24 l -1.01,-2.44 -1.1,2.67 c -0.04,0.1 -0.06,0.14 -0.06,0.18 0,0.26 0.37,0.26 0.56,0.26 l 0,0.31 c -0.26,-0.01 -0.92,-0.03 -1.09,-0.03 -0.27,0 -0.67,0.01 -0.97,0.03 l 0,-0.31 c 0.48,0 0.67,0 0.81,-0.35 l 1.5,-3.63 c -0.05,-0.12 -0.19,-0.45 -0.25,-0.58 -0.22,-0.55 -0.5,-1.23 -1.14,-1.23 -0.05,0 -0.28,0 -0.47,0.18 0.31,0.04 0.39,0.25 0.39,0.41 0,0.26 -0.19,0.42 -0.42,0.42 -0.2,0 -0.42,-0.13 -0.42,-0.43 0,-0.44 0.42,-0.8 0.92,-0.8 0.63,0 1.04,0.57 1.28,1.13 z"
         id="path4959" /><path
         style="fill:#000000;stroke-width:0"
         inkscape:connector-curvature="0"
         d="m 265.38,481.09 -1.28,0.31 c -0.62,0.15 -1,0.68 -1,1.26 0,0.69 0.53,1.3 1.31,1.3 1.67,0 1.89,-1.63 1.95,-2.08 0.01,-0.06 0.01,-0.11 0.12,-0.11 0.13,0 0.13,0.05 0.13,0.23 l 0,2 c 0,0.17 0,0.24 -0.11,0.24 -0.07,0 -0.08,-0.01 -0.15,-0.13 L 266,483.54 c -0.3,0.29 -0.71,0.7 -1.6,0.7 -1.1,0 -1.94,-0.88 -1.94,-1.93 0,-0.82 0.52,-1.55 1.3,-1.82 0.11,-0.04 0.62,-0.16 1.32,-0.32 0.27,-0.07 0.57,-0.14 0.85,-0.51 0.21,-0.26 0.31,-0.59 0.31,-0.92 0,-0.7 -0.5,-1.42 -1.34,-1.42 -0.29,0 -1.05,0.05 -1.57,0.54 -0.58,0.54 -0.61,1.17 -0.62,1.53 -0.01,0.1 -0.09,0.1 -0.12,0.1 -0.13,0 -0.13,-0.07 -0.13,-0.25 l 0,-1.98 c 0,-0.17 0,-0.24 0.11,-0.24 0.07,0 0.08,0.02 0.15,0.13 0,0.01 0.03,0.03 0.36,0.56 0.3,-0.34 0.94,-0.69 1.83,-0.69 1.17,0 1.97,0.97 1.97,2.06 0,1 -0.66,1.81 -1.5,2.01 z"
         id="path4961" /><path
         style="fill:#000000;stroke-width:0"
         inkscape:connector-curvature="0"
         d="m 268.54,479.53 0.01,0.21 c 0.06,1.48 0.9,1.73 1.24,1.73 1.02,0 1.12,-1.34 1.12,-1.73 l -2.36,0 -0.01,-0.21 2.78,0 c 0.22,0 0.25,0 0.25,0.21 0,0.98 -0.54,1.94 -1.78,1.94 -1.16,0 -2.08,-1.02 -2.08,-2.26 0,-1.33 1.05,-2.29 2.2,-2.29 1.21,0 1.66,1.1 1.66,1.29 0,0.1 -0.08,0.12 -0.13,0.12 -0.09,0 -0.11,-0.06 -0.13,-0.14 -0.35,-1.03 -1.24,-1.03 -1.34,-1.03 -0.5,0 -0.9,0.3 -1.13,0.67 -0.3,0.48 -0.3,1.13 -0.3,1.49 z"
         id="path4963" /><path
         style="fill:#000000;stroke-width:0"
         inkscape:connector-curvature="0"
         d="m 273.63,484.13 -1.44,-0.11 0,-0.31 c 0.7,0 0.78,-0.07 0.78,-0.55 l 0,-5.17 c 0,-0.45 -0.11,-0.45 -0.78,-0.45 l 0,-0.31 c 0.33,0.01 0.86,0.04 1.11,0.04 0.25,0 0.74,-0.03 1.1,-0.04 l 0,0.31 c -0.66,0 -0.77,0 -0.77,0.45 z"
         id="path4965" /><path
         style="fill:#000000;stroke-width:0"
         inkscape:connector-curvature="0"
         d="m 275.74,479.53 0.01,0.21 c 0.05,1.48 0.89,1.73 1.23,1.73 1.03,0 1.13,-1.34 1.13,-1.73 l -2.36,0 -0.01,-0.21 2.78,0 c 0.22,0 0.25,0 0.25,0.21 0,0.98 -0.54,1.94 -1.79,1.94 -1.15,0 -2.07,-1.02 -2.07,-2.26 0,-1.33 1.04,-2.29 2.19,-2.29 1.22,0 1.67,1.1 1.67,1.29 0,0.1 -0.08,0.12 -0.13,0.12 -0.09,0 -0.11,-0.06 -0.13,-0.14 -0.35,-1.03 -1.25,-1.03 -1.35,-1.03 -0.5,0 -0.9,0.3 -1.12,0.67 -0.3,0.48 -0.3,1.13 -0.3,1.49 z"
         id="path4967" /><path
         style="fill:#000000;stroke-width:0"
         inkscape:connector-curvature="0"
         d="m 280.22,479.4 0,0.08 0.01,0.07 0,0.07 0,0.07 0.01,0.07 0,0.07 0.01,0.06 0.01,0.06 0.01,0.06 0.01,0.06 0.01,0.06 0.01,0.06 0.03,0.11 0.03,0.1 0.03,0.1 0.04,0.09 0.04,0.09 0.04,0.08 0.04,0.07 0.05,0.07 0.05,0.07 0.05,0.06 0.05,0.05 0.05,0.05 0.06,0.05 0.05,0.04 0.06,0.04 0.05,0.03 0.06,0.03 0.06,0.03 0.05,0.02 0.06,0.02 0.05,0.01 0.06,0.02 0.05,0.01 0.06,0 0.05,0.01 0.05,0 c 0.09,0 0.72,-0.01 1.07,-0.37 -0.41,-0.03 -0.47,-0.33 -0.47,-0.46 0,-0.26 0.18,-0.45 0.46,-0.45 0.26,0 0.45,0.16 0.45,0.46 0,0.68 -0.75,1.06 -1.52,1.06 -1.25,0 -2.17,-1.07 -2.17,-2.3 0,-1.27 0.99,-2.25 2.15,-2.25 1.34,0 1.65,1.19 1.65,1.29 0,0.1 -0.09,0.1 -0.12,0.1 -0.09,0 -0.12,-0.04 -0.14,-0.1 -0.28,-0.93 -0.93,-1.05 -1.3,-1.05 -0.53,0 -1.41,0.43 -1.41,2.03 z"
         id="path4969" /><path
         style="fill:#000000;stroke-width:0"
         inkscape:connector-curvature="0"
         d="m 285.21,481.21 1.43,0 0,0.31 -1.43,0 0,1.82 -0.25,0 c -0.01,-0.81 -0.31,-1.87 -1.29,-1.91 l 0,-0.22 0.85,0 0,-2.74 c 0,-1.23 0.93,-1.34 1.29,-1.34 0.71,0 0.98,0.7 0.98,1.34 l 0,0.56 -0.24,0 0,-0.54 c 0,-0.74 -0.3,-1.12 -0.67,-1.12 -0.67,0 -0.67,0.91 -0.67,1.08 z"
         id="path4971" /><path
         style="fill:#000000;stroke-width:0"
         inkscape:connector-curvature="0"
         d="m 292.05,479.36 0,0.12 -0.01,0.12 -0.01,0.11 -0.02,0.12 -0.03,0.11 -0.03,0.11 -0.03,0.11 -0.04,0.1 -0.04,0.1 -0.05,0.1 -0.06,0.1 -0.05,0.09 -0.07,0.1 -0.06,0.08 -0.07,0.09 -0.07,0.08 -0.08,0.08 -0.08,0.07 -0.09,0.07 -0.08,0.06 -0.09,0.07 -0.09,0.05 -0.1,0.05 -0.1,0.05 -0.1,0.04 -0.1,0.04 -0.1,0.03 -0.11,0.03 -0.11,0.02 -0.11,0.01 -0.11,0.01 -0.11,0 -0.01,-0.21 c 0.44,0 0.87,-0.22 1.13,-0.65 0.26,-0.43 0.26,-1 0.26,-1.38 0,-0.36 0,-0.89 -0.22,-1.33 -0.22,-0.45 -0.66,-0.74 -1.16,-0.74 l 0,0 c -0.43,0 -0.87,0.21 -1.14,0.67 -0.25,0.44 -0.25,1.04 -0.25,1.4 0,0.39 0,0.92 0.24,1.36 0.27,0.46 0.74,0.67 1.14,0.67 l 0.01,0.21 c -1.25,0 -2.21,-1.08 -2.21,-2.32 0,-1.28 1.03,-2.23 2.2,-2.23 1.21,0 2.21,0.97 2.21,2.23 z"
         id="path4973" /><path
         style="fill:#000000;stroke-width:0"
         inkscape:connector-curvature="0"
         d="m 294,480.53 0,1.1 -1.38,-0.11 0,-0.31 c 0.7,0 0.78,-0.07 0.78,-0.56 l 0,-2.66 c 0,-0.45 -0.11,-0.45 -0.78,-0.45 l 0,-0.31 c 0.39,0.01 0.86,0.04 1.14,0.04 0.39,0 0.86,0 1.26,-0.04 l 0,0.31 -0.21,0 c -0.74,0 -0.76,0.11 -0.76,0.47 l 0,1.53 c 0,0.98 0.42,1.87 1.18,1.87 0.07,0 0.09,0 0.11,-0.01 -0.03,-0.01 -0.23,-0.13 -0.23,-0.39 0,-0.28 0.21,-0.43 0.43,-0.43 0.18,0 0.43,0.12 0.43,0.44 0,0.32 -0.31,0.61 -0.74,0.61 -0.73,0 -1.09,-0.67 -1.23,-1.1 z"
         id="path4975" /></g>    <g
       id="g5311">
      <path
         sodipodi:nodetypes="cc"
         inkscape:connector-curvature="0"
         id="path4155"
         d="m 252.67047,414.00763 0,-69.30419"
         style="fill:none;fill-rule:evenodd;stroke:#4d4d4d;stroke-width:4;stroke-linecap:butt;stroke-linejoin:miter;stroke-miterlimit:4;stroke-dasharray:none;stroke-opacity:1" />
      <path
         style="fill:none;fill-rule:evenodd;stroke:#4d4d4d;stroke-width:4;stroke-linecap:butt;stroke-linejoin:miter;stroke-miterlimit:4;stroke-dasharray:none;stroke-opacity:1"
         d="m 292.67047,414.00763 0,-69.30419"
         id="path5200"
         inkscape:connector-curvature="0"
         sodipodi:nodetypes="cc" />
    </g>
    <g
       style="font-style:normal;font-variant:normal;font-weight:normal;font-stretch:normal;letter-spacing:normal;word-spacing:normal;text-anchor:start;fill:#5092dc;fill-opacity:1;fill-rule:evenodd;stroke:#000000;stroke-linecap:butt;stroke-linejoin:miter;stroke-miterlimit:10.43299961;stroke-dasharray:none;stroke-dashoffset:0;stroke-opacity:1"
       ns0:preamble="/home/mpnerem/.config/inkscape/extensions/textextLib/CircuitSymbolsLatexPreamble.tex"
       ns0:text="$\\vec{B}$"
       word-spacing="normal"
       letter-spacing="normal"
       font-size-adjust="none"
       font-stretch="normal"
       font-weight="normal"
       font-variant="normal"
       font-style="normal"
       stroke-miterlimit="10.433"
       xml:space="preserve"
       transform="matrix(1.7070037,0,0,-1.7070037,35.699275,1068.9994)"
       id="g5254"><path
         id="path5256"
         d="m 230.39,485.67 -0.01,-0.02 -0.02,-0.01 -0.01,-0.02 -0.02,-0.01 -0.02,-0.02 -0.02,-0.01 -0.01,-0.02 -0.02,-0.02 -0.02,-0.01 -0.02,-0.02 -0.04,-0.04 -0.04,-0.04 -0.04,-0.04 -0.02,-0.02 -0.01,-0.02 -0.02,-0.02 -0.02,-0.02 -0.01,-0.02 -0.02,-0.02 -0.01,-0.02 -0.02,-0.02 -0.01,-0.02 -0.01,-0.02 -0.01,-0.02 -0.01,-0.02 0,-0.02 -0.01,-0.02 0,-0.01 0,-0.02 c 0,-0.1 0.1,-0.2 0.2,-0.2 0.09,0 0.14,0.07 0.19,0.13 0.12,0.15 0.35,0.43 0.79,0.64 0.07,0.04 0.17,0.09 0.17,0.21 0,0.1 -0.07,0.15 -0.14,0.2 -0.22,0.15 -0.33,0.33 -0.41,0.57 -0.02,0.09 -0.06,0.22 -0.2,0.22 -0.14,0 -0.2,-0.13 -0.2,-0.21 0,-0.05 0.08,-0.37 0.24,-0.58 l -3.36,0 c -0.17,0 -0.35,0 -0.35,-0.2 0,-0.19 0.18,-0.19 0.35,-0.19 z"
         inkscape:connector-curvature="0"
         style="fill:#5092dc;fill-opacity:1;stroke-width:0" /><path
         id="path5258"
         d="m 225.03,478.01 -0.01,-0.04 -0.01,-0.03 -0.01,-0.03 -0.01,-0.03 -0.01,-0.03 -0.01,-0.03 -0.01,-0.02 -0.01,-0.03 -0.01,-0.02 -0.01,-0.02 -0.01,-0.02 -0.02,-0.02 -0.01,-0.02 -0.02,-0.01 -0.02,-0.02 -0.02,-0.01 -0.02,-0.01 -0.03,-0.01 -0.02,-0.01 -0.03,-0.01 -0.04,-0.01 -0.01,0 -0.02,-0.01 -0.02,0 -0.02,0 -0.02,-0.01 -0.02,0 -0.02,0 -0.02,0 -0.03,-0.01 -0.02,0 -0.03,0 -0.02,0 -0.03,0 -0.03,0 -0.03,0 -0.03,0 -0.03,-0.01 -0.03,0 -0.03,0 -0.04,0 -0.03,0 -0.04,0 c -0.17,0 -0.27,0 -0.27,-0.2 0,-0.11 0.09,-0.11 0.27,-0.11 l 3.56,0 c 1.58,0 2.75,1.18 2.75,2.15 0,0.72 -0.58,1.29 -1.54,1.4 1.03,0.19 2.08,0.92 2.08,1.87 0,0.73 -0.66,1.37 -1.85,1.37 l -0.14,-0.31 c 0.87,0 1.08,-0.58 1.08,-1.02 0,-0.87 -0.85,-1.82 -2.07,-1.82 l -1.46,0 -0.06,-0.22 1.89,0 c 0.96,0 1.15,-0.73 1.15,-1.16 0,-0.98 -0.89,-1.95 -2.07,-1.95 l -1.35,0 c -0.14,0 -0.16,0 -0.22,0.01 -0.11,0.01 -0.13,0.02 -0.13,0.1 0,0.03 0,0.05 0.05,0.23 l 0.68,2.77 0.06,0.22 0.62,2.46 c 0.09,0.35 0.11,0.38 0.54,0.38 l 1.29,0 0.14,0.31 -3.36,0 c -0.18,0 -0.28,0 -0.28,-0.2 0,-0.11 0.09,-0.11 0.28,-0.11 0.01,0 0.2,0 0.37,-0.02 0.18,-0.02 0.27,-0.03 0.27,-0.16 0,-0.04 -0.01,-0.07 -0.04,-0.19 z"
         inkscape:connector-curvature="0"
         style="fill:#5092dc;fill-opacity:1;stroke-width:0" /></g>    <path
       style="fill:none;fill-rule:evenodd;stroke:#000000;stroke-width:2;stroke-linecap:round;stroke-linejoin:miter;stroke-miterlimit:4;stroke-dasharray:none;stroke-opacity:1;marker-end:url(#Arrow1Mend)"
       d="m 272.67047,406.93562 0,-50.00255"
       id="path5309"
       inkscape:connector-curvature="0" />
    <g
       id="g5436"
       transform="matrix(1.7070037,0,0,-1.7070037,-113.51269,1234.1701)"
       xml:space="preserve"
       stroke-miterlimit="10.433"
       font-style="normal"
       font-variant="normal"
       font-weight="normal"
       font-stretch="normal"
       font-size-adjust="none"
       letter-spacing="normal"
       word-spacing="normal"
       ns0:text="$v$"
       ns0:preamble="/home/mpnerem/.config/inkscape/extensions/textextLib/CircuitSymbolsLatexPreamble.tex"
       style="font-style:normal;font-variant:normal;font-weight:normal;font-stretch:normal;letter-spacing:normal;word-spacing:normal;text-anchor:start;fill:#5092dc;fill-opacity:1;fill-rule:evenodd;stroke:#000000;stroke-linecap:butt;stroke-linejoin:miter;stroke-miterlimit:10.43299961;stroke-dasharray:none;stroke-dashoffset:0;stroke-opacity:1"><path
         style="fill:#000000;stroke-width:0"
         inkscape:connector-curvature="0"
         d="m 228.1,480.93 0,0.02 0,0.03 0,0.02 0,0.03 -0.01,0.02 0,0.02 0,0.02 0,0.02 -0.01,0.04 -0.01,0.04 0,0.04 -0.01,0.04 -0.01,0.03 -0.02,0.03 -0.01,0.03 -0.01,0.03 -0.02,0.02 -0.01,0.03 -0.02,0.02 -0.01,0.02 -0.02,0.02 -0.02,0.02 -0.01,0.01 -0.02,0.02 -0.02,0.01 -0.02,0.01 -0.02,0.01 -0.02,0.01 -0.01,0.01 -0.02,0.01 -0.02,0 -0.02,0.01 -0.02,0 -0.02,0 -0.01,0.01 -0.02,0 c -0.25,0 -0.49,-0.26 -0.49,-0.48 0,-0.13 0.05,-0.19 0.16,-0.3 0.21,-0.2 0.34,-0.46 0.34,-0.81 0,-0.42 -0.61,-2.7 -1.77,-2.7 -0.51,0 -0.74,0.35 -0.74,0.87 0,0.56 0.27,1.28 0.58,2.1 0.06,0.17 0.11,0.31 0.11,0.5 0,0.45 -0.31,0.82 -0.81,0.82 -0.94,0 -1.32,-1.45 -1.32,-1.53 0,-0.1 0.1,-0.1 0.12,-0.1 0.1,0 0.11,0.02 0.16,0.17 0.29,1.01 0.72,1.24 1.01,1.24 0.08,0 0.25,0 0.25,-0.32 0,-0.25 -0.1,-0.52 -0.17,-0.7 -0.44,-1.15 -0.57,-1.6 -0.57,-2.03 0,-1.07 0.88,-1.23 1.33,-1.23 1.68,0 2.25,3.28 2.25,3.8 z"
         id="path5438" /></g>    <g
       style="font-style:normal;font-variant:normal;font-weight:normal;font-stretch:normal;letter-spacing:normal;word-spacing:normal;text-anchor:start;fill:#ffffff;fill-opacity:1;fill-rule:evenodd;stroke:#000000;stroke-linecap:butt;stroke-linejoin:miter;stroke-miterlimit:10.43299961;stroke-dasharray:none;stroke-dashoffset:0;stroke-opacity:1"
       ns0:preamble="/home/mpnerem/.config/inkscape/extensions/textextLib/CircuitSymbolsLatexPreamble.tex"
       ns0:text="Detector"
       word-spacing="normal"
       letter-spacing="normal"
       font-size-adjust="none"
       font-stretch="normal"
       font-weight="normal"
       font-variant="normal"
       font-style="normal"
       stroke-miterlimit="10.433"
       xml:space="preserve"
       transform="matrix(1.4347258,0,0,-1.4347258,-204.93763,934.39866)"
       id="g5706"><path
         id="path5708"
         d="m 223.78,484.02 0,-0.31 0.24,0 c 0.77,0 0.79,-0.11 0.79,-0.47 l 0,-5.23 c 0,-0.36 -0.02,-0.47 -0.79,-0.47 l -0.24,0 0,-0.31 3.65,0 -0.27,0.31 -1.01,0 c -0.46,0 -0.48,0.07 -0.48,0.4 l 0,5.38 c 0,0.32 0.02,0.39 0.48,0.39 l 1,0 c 0.62,0 1.31,-0.22 1.82,-0.92 0.43,-0.59 0.52,-1.44 0.52,-2.22 0,-1.1 -0.19,-1.7 -0.55,-2.18 -0.2,-0.27 -0.77,-0.85 -1.78,-0.85 l 0.27,-0.31 c 1.68,0 3.05,1.47 3.05,3.34 0,1.89 -1.34,3.45 -3.05,3.45 z"
         inkscape:connector-curvature="0"
         style="fill:#000000;stroke-width:0" /><path
         id="path5710"
         d="m 232.15,479.53 0.01,0.21 c 0.06,1.48 0.9,1.73 1.24,1.73 1.02,0 1.12,-1.34 1.12,-1.73 l -2.36,0 -0.01,-0.21 2.78,0 c 0.22,0 0.25,0 0.25,0.21 0,0.98 -0.54,1.94 -1.78,1.94 -1.16,0 -2.08,-1.02 -2.08,-2.26 0,-1.33 1.05,-2.29 2.2,-2.29 1.21,0 1.66,1.1 1.66,1.29 0,0.1 -0.08,0.12 -0.13,0.12 -0.09,0 -0.11,-0.06 -0.13,-0.14 -0.35,-1.03 -1.24,-1.03 -1.35,-1.03 -0.49,0 -0.89,0.3 -1.12,0.67 -0.3,0.48 -0.3,1.13 -0.3,1.49 z"
         inkscape:connector-curvature="0"
         style="fill:#000000;stroke-width:0" /><path
         id="path5712"
         d="m 237.2,481.21 1.42,0 0,0.31 -1.42,0 0,1.82 -0.25,0 c -0.01,-0.81 -0.31,-1.87 -1.29,-1.91 l 0,-0.22 0.85,0 0,-2.74 c 0,-1.23 0.92,-1.34 1.28,-1.34 0.71,0 0.99,0.7 0.99,1.34 l 0,0.56 -0.25,0 0,-0.54 c 0,-0.74 -0.3,-1.12 -0.67,-1.12 -0.66,0 -0.66,0.91 -0.66,1.08 z"
         inkscape:connector-curvature="0"
         style="fill:#000000;stroke-width:0" /><path
         id="path5714"
         d="m 240.45,479.53 0.01,0.21 c 0.06,1.48 0.9,1.73 1.24,1.73 1.03,0 1.12,-1.34 1.12,-1.73 l -2.36,0 -0.01,-0.21 2.78,0 c 0.22,0 0.25,0 0.25,0.21 0,0.98 -0.54,1.94 -1.78,1.94 -1.16,0 -2.08,-1.02 -2.08,-2.26 0,-1.33 1.05,-2.29 2.2,-2.29 1.21,0 1.66,1.1 1.66,1.29 0,0.1 -0.08,0.12 -0.13,0.12 -0.09,0 -0.11,-0.06 -0.13,-0.14 -0.35,-1.03 -1.24,-1.03 -1.34,-1.03 -0.5,0 -0.9,0.3 -1.13,0.67 -0.3,0.48 -0.3,1.13 -0.3,1.49 z"
         inkscape:connector-curvature="0"
         style="fill:#000000;stroke-width:0" /><path
         id="path5716"
         d="m 244.94,479.4 0,0.08 0,0.07 0,0.07 0.01,0.07 0,0.07 0.01,0.07 0.01,0.06 0,0.06 0.01,0.06 0.01,0.06 0.01,0.06 0.02,0.06 0.02,0.11 0.03,0.1 0.04,0.1 0.03,0.09 0.04,0.09 0.04,0.08 0.05,0.07 0.05,0.07 0.04,0.07 0.05,0.06 0.05,0.05 0.06,0.05 0.05,0.05 0.06,0.04 0.05,0.04 0.06,0.03 0.05,0.03 0.06,0.03 0.06,0.02 0.05,0.02 0.06,0.01 0.06,0.02 0.05,0.01 0.05,0 0.05,0.01 0.06,0 c 0.08,0 0.71,-0.01 1.06,-0.37 -0.41,-0.03 -0.47,-0.33 -0.47,-0.46 0,-0.26 0.18,-0.45 0.46,-0.45 0.26,0 0.46,0.16 0.46,0.46 0,0.68 -0.76,1.06 -1.53,1.06 -1.24,0 -2.16,-1.07 -2.16,-2.3 0,-1.27 0.99,-2.25 2.15,-2.25 1.33,0 1.65,1.19 1.65,1.29 0,0.1 -0.1,0.1 -0.13,0.1 -0.09,0 -0.11,-0.04 -0.13,-0.1 -0.29,-0.93 -0.94,-1.05 -1.31,-1.05 -0.52,0 -1.4,0.43 -1.4,2.03 z"
         inkscape:connector-curvature="0"
         style="fill:#000000;stroke-width:0" /><path
         id="path5718"
         d="m 249.92,481.21 1.43,0 0,0.31 -1.43,0 0,1.82 -0.24,0 c -0.02,-0.81 -0.31,-1.87 -1.29,-1.91 l 0,-0.22 0.85,0 0,-2.74 c 0,-1.23 0.92,-1.34 1.28,-1.34 0.71,0 0.99,0.7 0.99,1.34 l 0,0.56 -0.25,0 0,-0.54 c 0,-0.74 -0.3,-1.12 -0.67,-1.12 -0.67,0 -0.67,0.91 -0.67,1.08 z"
         inkscape:connector-curvature="0"
         style="fill:#000000;stroke-width:0" /><path
         id="path5720"
         d="m 256.77,479.36 0,0.12 -0.01,0.12 -0.02,0.11 -0.02,0.12 -0.02,0.11 -0.03,0.11 -0.03,0.11 -0.04,0.1 -0.05,0.1 -0.05,0.1 -0.05,0.1 -0.06,0.09 -0.06,0.1 -0.07,0.08 -0.07,0.09 -0.07,0.08 -0.08,0.08 -0.08,0.07 -0.08,0.07 -0.09,0.06 -0.09,0.07 -0.09,0.05 -0.09,0.05 -0.1,0.05 -0.1,0.04 -0.1,0.04 -0.11,0.03 -0.1,0.03 -0.11,0.02 -0.11,0.01 -0.11,0.01 -0.11,0 -0.01,-0.21 c 0.43,0 0.86,-0.22 1.12,-0.65 0.26,-0.43 0.26,-1 0.26,-1.38 0,-0.36 0,-0.89 -0.22,-1.33 -0.22,-0.45 -0.65,-0.74 -1.15,-0.74 l 0,0 c -0.43,0 -0.87,0.21 -1.14,0.67 -0.25,0.44 -0.25,1.04 -0.25,1.4 0,0.39 0,0.92 0.24,1.36 0.27,0.46 0.74,0.67 1.14,0.67 l 0.01,0.21 c -1.25,0 -2.22,-1.08 -2.22,-2.32 0,-1.28 1.04,-2.23 2.21,-2.23 1.2,0 2.21,0.97 2.21,2.23 z"
         inkscape:connector-curvature="0"
         style="fill:#000000;stroke-width:0" /><path
         id="path5722"
         d="m 258.72,480.53 0,1.1 -1.39,-0.11 0,-0.31 c 0.7,0 0.78,-0.07 0.78,-0.56 l 0,-2.66 c 0,-0.45 -0.11,-0.45 -0.78,-0.45 l 0,-0.31 c 0.39,0.01 0.86,0.04 1.14,0.04 0.4,0 0.87,0 1.27,-0.04 l 0,0.31 -0.21,0 c -0.74,0 -0.76,0.11 -0.76,0.47 l 0,1.53 c 0,0.98 0.42,1.87 1.18,1.87 0.07,0 0.09,0 0.11,-0.01 -0.03,-0.01 -0.23,-0.13 -0.23,-0.39 0,-0.28 0.21,-0.43 0.43,-0.43 0.17,0 0.42,0.12 0.42,0.44 0,0.32 -0.3,0.61 -0.73,0.61 -0.73,0 -1.09,-0.67 -1.23,-1.1 z"
         inkscape:connector-curvature="0"
         style="fill:#000000;stroke-width:0" /></g>  </g>
</svg>
