<?xml version="1.0" encoding="UTF-8" standalone="no"?>
<svg
   xmlns:ns0="http://www.iki.fi/pav/software/textext/"
   xmlns:dc="http://purl.org/dc/elements/1.1/"
   xmlns:cc="http://creativecommons.org/ns#"
   xmlns:rdf="http://www.w3.org/1999/02/22-rdf-syntax-ns#"
   xmlns:svg="http://www.w3.org/2000/svg"
   xmlns="http://www.w3.org/2000/svg"
   xmlns:sodipodi="http://sodipodi.sourceforge.net/DTD/sodipodi-0.dtd"
   xmlns:inkscape="http://www.inkscape.org/namespaces/inkscape"
   sodipodi:docname="Induction-Square-Loop.svg"
   inkscape:version="1.0 (4035a4fb49, 2020-05-01)"
   version="1.1"
   id="svg2"
   viewBox="0 0 375.59057 223.22824"
   height="63mm"
   width="106mm">
  <sodipodi:namedview
     inkscape:document-rotation="0"
     inkscape:window-maximized="1"
     inkscape:window-y="-6"
     inkscape:window-x="-6"
     inkscape:window-height="842"
     inkscape:window-width="1368"
     showgrid="false"
     inkscape:current-layer="layer1"
     inkscape:document-units="px"
     inkscape:cy="70.74562"
     inkscape:cx="127.28631"
     inkscape:zoom="1.4"
     inkscape:pageshadow="2"
     inkscape:pageopacity="0.0"
     borderopacity="1.0"
     bordercolor="#666666"
     pagecolor="#ffffff"
     id="base" />
  <defs
     id="defs4">
    <marker
       inkscape:stockid="Arrow1Lstart"
       orient="auto"
       refY="0"
       refX="0"
       id="Arrow1Lstart"
       style="overflow:visible"
       inkscape:isstock="true">
      <path
         inkscape:connector-curvature="0"
         id="path4156"
         d="M 0,0 5,-5 -12.5,0 5,5 0,0 Z"
         style="fill:#000000;fill-opacity:1;fill-rule:evenodd;stroke:#000000;stroke-width:1pt;stroke-opacity:1"
         transform="matrix(0.8,0,0,0.8,10,0)" />
    </marker>
    <marker
       inkscape:isstock="true"
       style="overflow:visible"
       id="marker4618"
       refX="0"
       refY="0"
       orient="auto"
       inkscape:stockid="Arrow1Lend">
      <path
         inkscape:connector-curvature="0"
         transform="matrix(-0.8,0,0,-0.8,-10,0)"
         style="fill:#000000;fill-opacity:1;fill-rule:evenodd;stroke:#000000;stroke-width:1pt;stroke-opacity:1"
         d="M 0,0 5,-5 -12.5,0 5,5 0,0 Z"
         id="path4620" />
    </marker>
    <marker
       inkscape:isstock="true"
       style="overflow:visible"
       id="marker4584"
       refX="0"
       refY="0"
       orient="auto"
       inkscape:stockid="Arrow1Lend">
      <path
         inkscape:connector-curvature="0"
         transform="matrix(-0.8,0,0,-0.8,-10,0)"
         style="fill:#000000;fill-opacity:1;fill-rule:evenodd;stroke:#000000;stroke-width:1pt;stroke-opacity:1"
         d="M 0,0 5,-5 -12.5,0 5,5 0,0 Z"
         id="path4586" />
    </marker>
  </defs>
  <metadata
     id="metadata7">
    <rdf:RDF>
      <cc:Work
         rdf:about="">
        <dc:format>image/svg+xml</dc:format>
        <dc:type
           rdf:resource="http://purl.org/dc/dcmitype/StillImage" />
        <dc:title />
      </cc:Work>
    </rdf:RDF>
  </metadata>
  <g
     transform="translate(0,-829.13397)"
     inkscape:label="Layer 1"
     inkscape:groupmode="layer"
     id="layer1">
    <g
       transform="translate(-7.5532932,1.5141475)"
       id="g6777">
      <rect
         y="841.80353"
         x="67.5756"
         height="207.50893"
         width="204.98354"
         id="rect4136"
         style="opacity:1;fill:#ffdd55;fill-opacity:1;stroke:#000000;stroke-width:1.57233846;stroke-linecap:butt;stroke-miterlimit:4;stroke-dasharray:none;stroke-dashoffset:5.69999981;stroke-opacity:1" />
      <rect
         style="opacity:1;fill:#ffffff;fill-opacity:1;stroke:#000000;stroke-width:1.39861786;stroke-linecap:butt;stroke-miterlimit:4;stroke-dasharray:none;stroke-dashoffset:5.69999981;stroke-opacity:1"
         id="rect4140"
         width="148.67323"
         height="161.56445"
         x="95.730751"
         y="864.77576" />
      <g
         transform="translate(20.995943,752.05293)"
         id="g4521">
        <g
           id="g4506">
          <circle
             r="7.1428571"
             cy="149.50507"
             cx="106.07143"
             id="path4488"
             style="opacity:1;fill:#008080;fill-opacity:1;stroke:#000000;stroke-width:2;stroke-linecap:butt;stroke-miterlimit:4;stroke-dasharray:none;stroke-dashoffset:5.69999981;stroke-opacity:0" />
          <circle
             style="opacity:1;fill:#008080;fill-opacity:1;stroke:#000000;stroke-width:2;stroke-linecap:butt;stroke-miterlimit:4;stroke-dasharray:none;stroke-dashoffset:5.69999981;stroke-opacity:0"
             id="circle4490"
             cx="149.07143"
             cy="149.50507"
             r="7.1428571" />
          <circle
             r="7.1428571"
             cy="149.50507"
             cx="192.07143"
             id="circle4492"
             style="opacity:1;fill:#008080;fill-opacity:1;stroke:#000000;stroke-width:2;stroke-linecap:butt;stroke-miterlimit:4;stroke-dasharray:none;stroke-dashoffset:5.69999981;stroke-opacity:0" />
        </g>
        <g
           id="g4511">
          <circle
             style="opacity:1;fill:#008080;fill-opacity:1;stroke:#000000;stroke-width:2;stroke-linecap:butt;stroke-miterlimit:4;stroke-dasharray:none;stroke-dashoffset:5.69999981;stroke-opacity:0"
             id="circle4494"
             cx="106.07143"
             cy="193.50507"
             r="7.1428571" />
          <circle
             r="7.1428571"
             cy="193.50507"
             cx="149.07143"
             id="circle4496"
             style="opacity:1;fill:#008080;fill-opacity:1;stroke:#000000;stroke-width:2;stroke-linecap:butt;stroke-miterlimit:4;stroke-dasharray:none;stroke-dashoffset:5.69999981;stroke-opacity:0" />
          <circle
             style="opacity:1;fill:#008080;fill-opacity:1;stroke:#000000;stroke-width:2;stroke-linecap:butt;stroke-miterlimit:4;stroke-dasharray:none;stroke-dashoffset:5.69999981;stroke-opacity:0"
             id="circle4498"
             cx="192.07143"
             cy="193.50507"
             r="7.1428571" />
        </g>
        <g
           id="g4516">
          <circle
             r="7.1428571"
             cy="237.50507"
             cx="106.07143"
             id="circle4500"
             style="opacity:1;fill:#008080;fill-opacity:1;stroke:#000000;stroke-width:2;stroke-linecap:butt;stroke-miterlimit:4;stroke-dasharray:none;stroke-dashoffset:5.69999981;stroke-opacity:0" />
          <circle
             style="opacity:1;fill:#008080;fill-opacity:1;stroke:#000000;stroke-width:2;stroke-linecap:butt;stroke-miterlimit:4;stroke-dasharray:none;stroke-dashoffset:5.69999981;stroke-opacity:0"
             id="circle4502"
             cx="149.07143"
             cy="237.50507"
             r="7.1428571" />
          <circle
             r="7.1428571"
             cy="237.50507"
             cx="192.07143"
             id="circle4504"
             style="opacity:1;fill:#008080;fill-opacity:1;stroke:#000000;stroke-width:2;stroke-linecap:butt;stroke-miterlimit:4;stroke-dasharray:none;stroke-dashoffset:5.69999981;stroke-opacity:0" />
        </g>
      </g>
      <path
         inkscape:connector-curvature="0"
         id="path4576"
         d="m 50.056614,856.60329 0,182.83761"
         style="fill:none;fill-rule:evenodd;stroke:#000000;stroke-width:1.5;stroke-linecap:butt;stroke-linejoin:miter;stroke-miterlimit:4;stroke-dasharray:none;stroke-opacity:1;marker-start:url(#Arrow1Lstart);marker-end:url(#marker4584)" />
      <g
         ns0:preamble="/home/mpnerem/.config/inkscape/extensions/textextLib/CircuitSymbolsLatexPreamble.tex"
         ns0:text="$L$"
         word-spacing="normal"
         letter-spacing="normal"
         font-size-adjust="none"
         font-stretch="normal"
         font-weight="normal"
         font-variant="normal"
         font-style="normal"
         stroke-miterlimit="10.433"
         xml:space="preserve"
         transform="matrix(5,0,0,-5,-1110.8194,3345.7031)"
         id="g4957"
         style="font-style:normal;font-variant:normal;font-weight:normal;font-stretch:normal;letter-spacing:normal;word-spacing:normal;text-anchor:start;fill:none;fill-opacity:1;fill-rule:evenodd;stroke:#000000;stroke-linecap:butt;stroke-linejoin:miter;stroke-miterlimit:10.43299961;stroke-dasharray:none;stroke-dashoffset:0;stroke-opacity:1"><path
           id="path4959"
           d="m 227.16,483.26 0.01,0.03 0.01,0.03 0,0.03 0.01,0.03 0.01,0.03 0.01,0.03 0.01,0.02 0.01,0.02 0.01,0.03 0.01,0.02 0.02,0.02 0.02,0.02 0.01,0.01 0.02,0.02 0.02,0.01 0.03,0.02 0.03,0.01 0.03,0.01 0.03,0.01 0.03,0.01 0.02,0.01 0.02,0 0.02,0.01 0.02,0 0.03,0.01 0.02,0 0.02,0 0.03,0.01 0.02,0 0.03,0 0.03,0 0.03,0.01 0.03,0 0.03,0 0.03,0 0.03,0 0.04,0 0.03,0.01 0.04,0 0.04,0 0.04,0 0.04,0 0.04,0 0.04,0 c 0.3,0 0.38,0 0.38,0.19 0,0.12 -0.11,0.12 -0.16,0.12 -0.33,0 -1.14,-0.03 -1.47,-0.03 -0.3,0 -1.03,0.03 -1.33,0.03 -0.07,0 -0.18,0 -0.18,-0.2 0,-0.11 0.09,-0.11 0.27,-0.11 0.02,0 0.21,0 0.38,-0.02 0.18,-0.02 0.27,-0.03 0.27,-0.16 0,-0.04 -0.01,-0.07 -0.04,-0.19 L 225,478.01 c -0.1,-0.39 -0.12,-0.47 -0.91,-0.47 -0.17,0 -0.27,0 -0.27,-0.2 0,-0.11 0.09,-0.11 0.27,-0.11 l 4.61,0 c 0.24,0 0.25,0 0.31,0.17 l 0.79,2.15 c 0.04,0.11 0.04,0.13 0.04,0.14 0,0.04 -0.03,0.11 -0.12,0.11 -0.09,0 -0.1,-0.05 -0.17,-0.21 -0.34,-0.91 -0.78,-2.05 -2.5,-2.05 l -0.94,0 c -0.14,0 -0.16,0 -0.22,0.01 -0.1,0.01 -0.13,0.02 -0.13,0.1 0,0.03 0,0.05 0.05,0.23 z"
           inkscape:connector-curvature="0"
           style="fill:#000000;stroke-width:0" /></g>
      <path
         style="fill:none;fill-rule:evenodd;stroke:#000000;stroke-width:1.50000012;stroke-linecap:butt;stroke-linejoin:miter;stroke-miterlimit:4;stroke-dasharray:none;stroke-opacity:1;marker-end:url(#marker4618)"
         d="m 240.17265,829.11853 c 55.36185,2.44316 59.52862,-2.9849 61.11423,60.10407"
         id="path5135"
         inkscape:connector-curvature="0"
         sodipodi:nodetypes="cc" />
      <g
         style="font-style:normal;font-variant:normal;font-weight:normal;font-stretch:normal;letter-spacing:normal;word-spacing:normal;text-anchor:start;fill:none;fill-opacity:1;fill-rule:evenodd;stroke:#000000;stroke-linecap:butt;stroke-linejoin:miter;stroke-miterlimit:10.43299961;stroke-dasharray:none;stroke-dashoffset:0;stroke-opacity:1"
         id="content"
         transform="matrix(5,0,0,-5,-826.25375,3320.18)"
         xml:space="preserve"
         stroke-miterlimit="10.433"
         font-style="normal"
         font-variant="normal"
         font-weight="normal"
         font-stretch="normal"
         font-size-adjust="none"
         letter-spacing="normal"
         word-spacing="normal"
         ns0:text="$I$"
         ns0:preamble="/home/mpnerem/.config/inkscape/extensions/textextLib/CircuitSymbolsLatexPreamble.tex"><path
           style="fill:#000000;stroke-width:0"
           inkscape:connector-curvature="0"
           d="m 227.16,483.27 0.01,0.03 0.01,0.03 0,0.03 0.01,0.03 0.01,0.03 0.01,0.03 0.01,0.02 0.01,0.02 0.01,0.02 0.01,0.03 0.01,0.01 0.02,0.02 0.01,0.02 0.02,0.02 0.02,0.01 0.02,0.01 0.02,0.02 0.03,0.01 0.03,0.01 0.03,0.01 0.03,0.01 0.02,0 0.01,0 0.02,0.01 0.02,0 0.02,0 0.02,0.01 0.03,0 0.02,0 0.02,0 0.03,0.01 0.02,0 0.03,0 0.03,0 0.02,0 0.03,0 0.03,0.01 0.03,0 0.04,0 0.03,0 0.03,0 0.04,0 0.04,0 c 0.23,0 0.31,0 0.31,0.19 0,0.12 -0.11,0.12 -0.15,0.12 -0.28,0 -1.02,-0.03 -1.31,-0.03 -0.3,0 -1.03,0.03 -1.33,0.03 -0.07,0 -0.19,0 -0.19,-0.2 0,-0.11 0.09,-0.11 0.27,-0.11 0.42,0 0.69,0 0.69,-0.19 0,-0.05 0,-0.07 -0.02,-0.16 L 225,478.01 c -0.09,-0.37 -0.12,-0.47 -0.91,-0.47 -0.23,0 -0.32,0 -0.32,-0.2 0,-0.11 0.12,-0.11 0.15,-0.11 0.29,0 1.02,0.03 1.31,0.03 0.29,0 1.03,-0.03 1.33,-0.03 0.08,0 0.2,0 0.2,0.19 0,0.12 -0.08,0.12 -0.3,0.12 -0.18,0 -0.23,0 -0.43,0.02 -0.21,0.02 -0.25,0.06 -0.25,0.17 0,0.08 0.02,0.16 0.04,0.23 z"
           id="path6668" /></g>
      <g
         ns0:preamble="/home/mpnerem/.config/inkscape/extensions/textextLib/CircuitSymbolsLatexPreamble.tex"
         ns0:text="$B_\\text{ext}$"
         word-spacing="normal"
         letter-spacing="normal"
         font-size-adjust="none"
         font-stretch="normal"
         font-weight="normal"
         font-variant="normal"
         font-style="normal"
         stroke-miterlimit="10.433"
         xml:space="preserve"
         transform="matrix(5,0,0,-5,-824.23344,3423.2155)"
         id="g6732"
         style="font-style:normal;font-variant:normal;font-weight:normal;font-stretch:normal;letter-spacing:normal;word-spacing:normal;text-anchor:start;fill:#008080;fill-opacity:1;fill-rule:evenodd;stroke:#000000;stroke-linecap:butt;stroke-linejoin:miter;stroke-miterlimit:10.43299961;stroke-dasharray:none;stroke-dashoffset:0;stroke-opacity:1"><path
           id="path6734"
           d="m 225.03,478.01 -0.01,-0.04 -0.01,-0.03 -0.01,-0.03 -0.01,-0.03 -0.01,-0.03 -0.01,-0.03 -0.01,-0.02 -0.01,-0.03 -0.01,-0.02 -0.01,-0.02 -0.01,-0.02 -0.02,-0.02 -0.01,-0.02 -0.02,-0.01 -0.02,-0.02 -0.02,-0.01 -0.02,-0.01 -0.03,-0.01 -0.02,-0.01 -0.03,-0.01 -0.04,-0.01 -0.01,-0.01 -0.02,0 -0.02,0 -0.02,0 -0.02,-0.01 -0.02,0 -0.02,0 -0.02,-0.01 -0.03,0 -0.02,0 -0.03,0 -0.02,0 -0.03,0 -0.03,0 -0.03,-0.01 -0.03,0 -0.03,0 -0.03,0 -0.03,0 -0.04,0 -0.03,0 -0.04,0 c -0.17,0 -0.27,0 -0.27,-0.2 0,-0.11 0.09,-0.11 0.27,-0.11 l 3.56,0 c 1.57,0 2.75,1.18 2.75,2.15 0,0.72 -0.58,1.3 -1.55,1.41 1.04,0.19 2.08,0.93 2.08,1.87 0,0.74 -0.65,1.38 -1.85,1.38 l -0.14,-0.31 c 0.88,0 1.09,-0.59 1.09,-1.03 0,-0.87 -0.86,-1.82 -2.07,-1.82 l -1.46,0 -0.06,-0.22 1.88,0 c 0.96,0 1.15,-0.74 1.15,-1.17 0,-0.98 -0.89,-1.95 -2.06,-1.95 l -1.36,0 c -0.14,0 -0.16,0 -0.22,0.01 -0.1,0.01 -0.13,0.02 -0.13,0.1 0,0.03 0,0.05 0.05,0.23 l 0.69,2.78 0.06,0.22 0.62,2.47 c 0.09,0.35 0.11,0.38 0.54,0.38 l 1.28,0 0.14,0.31 -3.35,0 c -0.19,0 -0.28,0 -0.28,-0.2 0,-0.11 0.08,-0.11 0.27,-0.11 0.02,0 0.21,0 0.38,-0.02 0.18,-0.02 0.27,-0.03 0.27,-0.16 0,-0.04 -0.01,-0.07 -0.04,-0.19 z"
           inkscape:connector-curvature="0"
           style="fill:#008080;fill-opacity:1;stroke-width:0" /><path
           id="path6736"
           d="m 234.06,477.33 0.01,0 0.02,0 0.01,0 0.01,0 0.01,0 0.01,0 0.01,0 0.01,0 0.01,0 0.01,0 0.01,0.01 0.01,0 0,0 0.01,0 0.01,0.01 0,0 0.01,0 0,0.01 0.01,0 0,0.01 0.01,0 0,0.01 0,0.01 0,0 0.01,0 0,0.01 0,0 0,0.01 0,0 0,0.01 0,0 0,0.01 0,0 0,0.01 0,0 0.01,0.01 0,0.01 0,0 0,0.01 0,0.01 0,0 c 0,0.62 -0.35,1.37 -1.38,1.37 -0.92,0 -1.62,-0.73 -1.62,-1.58 0,-0.89 0.78,-1.6 1.71,-1.6 0.94,0 1.29,0.75 1.29,0.91 0,0.03 -0.02,0.09 -0.12,0.09 -0.09,0 -0.11,-0.04 -0.13,-0.11 -0.21,-0.56 -0.74,-0.67 -1,-0.67 -0.32,0 -0.64,0.15 -0.85,0.41 -0.25,0.33 -0.26,0.76 -0.26,1.03 l 0.01,0.18 c 0.07,0.98 0.7,1.14 0.97,1.14 0.85,0 0.88,-0.96 0.89,-1.14 l -1.86,0 -0.01,-0.18 z"
           inkscape:connector-curvature="0"
           style="fill:#008080;fill-opacity:1;stroke-width:0" /><path
           id="path6738"
           d="m 236.9,477.3 0,0 0,0 0,0 0,0 -0.01,0 0,0.01 0,0 0,0 0,0 0,0 0,0 0,0 0,0 -0.01,0.01 0,0 0,0 0,0.01 -0.01,0 0,0 0,0.01 -0.01,0 0,0.01 0,0 -0.01,0 0,0 0,0.01 0,0 0,0 0,0 -0.01,0 0,0.01 0,0 0,0 0,0 0,0 0,0 0,0 0,0 0,0 0,0 0,0 c 0,0.02 0.46,0.52 0.52,0.58 0.25,0.27 0.49,0.54 1.04,0.54 l 0,0.26 c -0.19,-0.02 -0.39,-0.03 -0.58,-0.03 -0.21,0 -0.48,0.01 -0.69,0.03 l 0,-0.26 c 0.11,-0.02 0.14,-0.09 0.14,-0.16 0,-0.01 0,-0.11 -0.11,-0.23 l -0.49,-0.55 -0.57,0.66 c -0.08,0.08 -0.08,0.11 -0.08,0.14 0,0.1 0.1,0.14 0.19,0.14 l 0,0.26 c -0.26,-0.02 -0.53,-0.03 -0.78,-0.03 -0.21,0 -0.48,0.01 -0.68,0.03 l 0,-0.26 c 0.32,0 0.5,0 0.68,-0.2 l 0.87,-1.01 c 0.01,-0.01 0.06,-0.06 0.06,-0.07 0,-0.02 -0.52,-0.59 -0.59,-0.67 -0.26,-0.28 -0.5,-0.53 -1.06,-0.55 l 0,-0.25 c 0.21,0.01 0.37,0.03 0.58,0.03 0.21,0 0.49,-0.01 0.7,-0.03 l 0,0.25 c -0.08,0.02 -0.14,0.06 -0.14,0.16 0,0.13 0.08,0.23 0.19,0.34 l 0.49,0.54 0.6,-0.69 c 0.14,-0.15 0.14,-0.16 0.14,-0.2 0,-0.14 -0.16,-0.15 -0.19,-0.15 l 0,-0.25 c 0.06,0.01 0.56,0.03 0.79,0.03 0.22,0 0.44,-0.01 0.67,-0.03 l 0,0.25 c -0.47,0 -0.53,0.04 -0.69,0.22 z"
           inkscape:connector-curvature="0"
           style="fill:#008080;fill-opacity:1;stroke-width:0" /><path
           id="path6740"
           d="m 240.12,478.49 1.09,0 0,0.26 -1.09,0 0,1.28 -0.24,0 c 0,-0.63 -0.29,-1.32 -0.96,-1.34 l 0,-0.2 0.65,0 0,-1.88 c 0,-0.78 0.58,-0.94 0.97,-0.94 0.47,0 0.79,0.4 0.79,0.95 l 0,0.38 -0.23,0 0,-0.37 c 0,-0.48 -0.23,-0.74 -0.5,-0.74 -0.48,0 -0.48,0.59 -0.48,0.72 z"
           inkscape:connector-curvature="0"
           style="fill:#008080;fill-opacity:1;stroke-width:0" /></g>
    </g>
    <text
       id="text883"
       y="941.17358"
       x="311.89569"
       style="font-style:normal;font-weight:normal;font-size:23.6734px;line-height:1.25;font-family:sans-serif;fill:#000000;fill-opacity:1;stroke:none;stroke-width:0.591834"
       xml:space="preserve"><tspan
         style="font-style:normal;font-variant:normal;font-weight:normal;font-stretch:normal;font-family:'Times New Roman';-inkscape-font-specification:'Times New Roman, ';stroke-width:0.591834"
         y="941.17358"
         x="311.89569"
         id="tspan881"
         sodipodi:role="line">ind</tspan></text>
  </g>
</svg>
