<?xml version="1.0" encoding="UTF-8" standalone="no"?>
<!-- Created with Inkscape (http://www.inkscape.org/) -->

<svg
   xmlns:ns0="http://www.iki.fi/pav/software/textext/"
   xmlns:dc="http://purl.org/dc/elements/1.1/"
   xmlns:cc="http://creativecommons.org/ns#"
   xmlns:rdf="http://www.w3.org/1999/02/22-rdf-syntax-ns#"
   xmlns:svg="http://www.w3.org/2000/svg"
   xmlns="http://www.w3.org/2000/svg"
   xmlns:sodipodi="http://sodipodi.sourceforge.net/DTD/sodipodi-0.dtd"
   xmlns:inkscape="http://www.inkscape.org/namespaces/inkscape"
   width="85.419212mm"
   height="40.501175mm"
   viewBox="0 0 302.66646 143.50802"
   id="svg2"
   version="1.1"
   inkscape:version="0.92.3 (2405546, 2018-03-11)"
   sodipodi:docname="Lenzs-Law-Square-Loop.svg">
  <sodipodi:namedview
     id="base"
     pagecolor="#ffffff"
     bordercolor="#666666"
     borderopacity="1.0"
     inkscape:pageopacity="0.0"
     inkscape:pageshadow="2"
     inkscape:zoom="2.8"
     inkscape:cx="136.99651"
     inkscape:cy="77.254269"
     inkscape:document-units="px"
     inkscape:current-layer="svg2"
     showgrid="false"
     inkscape:window-width="1920"
     inkscape:window-height="1035"
     inkscape:window-x="1920"
     inkscape:window-y="20"
     inkscape:window-maximized="1"
     fit-margin-top="0"
     fit-margin-left="0"
     fit-margin-right="0"
     fit-margin-bottom="0" />
  <defs
     id="defs4">
    <marker
       inkscape:stockid="Arrow2Mend"
       orient="auto"
       refY="0"
       refX="0"
       id="marker4039"
       style="overflow:visible"
       inkscape:isstock="true">
      <path
         inkscape:connector-curvature="0"
         id="path4037"
         style="fill:#ff7f2a;fill-opacity:1;fill-rule:evenodd;stroke:#ff7f2a;stroke-width:0.625;stroke-linejoin:round;stroke-opacity:1"
         d="M 8.7185878,4.0337352 -2.2072895,0.01601326 8.7185884,-4.0017078 c -1.7454984,2.3720609 -1.7354408,5.6174519 -6e-7,8.035443 z"
         transform="scale(-0.6)" />
    </marker>
    <marker
       inkscape:stockid="Arrow1Lend"
       orient="auto"
       refY="0"
       refX="0"
       id="marker3556"
       style="overflow:visible"
       inkscape:isstock="true">
      <path
         id="path3554"
         d="M 0,0 5,-5 -12.5,0 5,5 Z"
         style="fill:#32bef2;fill-opacity:1;fill-rule:evenodd;stroke:#32bef2;stroke-width:1.00000003pt;stroke-opacity:1"
         transform="matrix(-0.8,0,0,-0.8,-10,0)"
         inkscape:connector-curvature="0" />
    </marker>
    <marker
       inkscape:isstock="true"
       style="overflow:visible"
       id="marker3468"
       refX="0"
       refY="0"
       orient="auto"
       inkscape:stockid="Arrow1Lend">
      <path
         transform="matrix(-0.8,0,0,-0.8,-10,0)"
         style="fill:#32bef2;fill-opacity:1;fill-rule:evenodd;stroke:#32bef2;stroke-width:1.00000003pt;stroke-opacity:1"
         d="M 0,0 5,-5 -12.5,0 5,5 Z"
         id="path3466"
         inkscape:connector-curvature="0" />
    </marker>
    <marker
       inkscape:stockid="Arrow1Lend"
       orient="auto"
       refY="0"
       refX="0"
       id="marker3424"
       style="overflow:visible"
       inkscape:isstock="true">
      <path
         id="path3422"
         d="M 0,0 5,-5 -12.5,0 5,5 Z"
         style="fill:#32bef2;fill-opacity:1;fill-rule:evenodd;stroke:#32bef2;stroke-width:1.00000003pt;stroke-opacity:1"
         transform="matrix(-0.8,0,0,-0.8,-10,0)"
         inkscape:connector-curvature="0" />
    </marker>
    <marker
       inkscape:isstock="true"
       style="overflow:visible"
       id="marker1744"
       refX="0"
       refY="0"
       orient="auto"
       inkscape:stockid="Arrow1Lend">
      <path
         transform="matrix(-0.8,0,0,-0.8,-10,0)"
         style="fill:#32bef2;fill-opacity:1;fill-rule:evenodd;stroke:#32bef2;stroke-width:1.00000003pt;stroke-opacity:1"
         d="M 0,0 5,-5 -12.5,0 5,5 Z"
         id="path1742"
         inkscape:connector-curvature="0" />
    </marker>
    <marker
       inkscape:isstock="true"
       style="overflow:visible"
       id="marker1560"
       refX="0"
       refY="0"
       orient="auto"
       inkscape:stockid="Arrow1Lend"
       inkscape:collect="always">
      <path
         transform="matrix(-0.8,0,0,-0.8,-10,0)"
         style="fill:#32bef2;fill-opacity:1;fill-rule:evenodd;stroke:#32bef2;stroke-width:1.00000003pt;stroke-opacity:1"
         d="M 0,0 5,-5 -12.5,0 5,5 Z"
         id="path1558"
         inkscape:connector-curvature="0" />
    </marker>
    <marker
       inkscape:stockid="Arrow1Lend"
       orient="auto"
       refY="0"
       refX="0"
       id="marker1470"
       style="overflow:visible"
       inkscape:isstock="true"
       inkscape:collect="always">
      <path
         id="path1468"
         d="M 0,0 5,-5 -12.5,0 5,5 Z"
         style="fill:#32bef2;fill-opacity:1;fill-rule:evenodd;stroke:#32bef2;stroke-width:1.00000003pt;stroke-opacity:1"
         transform="matrix(-0.8,0,0,-0.8,-10,0)"
         inkscape:connector-curvature="0" />
    </marker>
    <marker
       inkscape:isstock="true"
       style="overflow:visible"
       id="marker1398"
       refX="0"
       refY="0"
       orient="auto"
       inkscape:stockid="Arrow1Lend"
       inkscape:collect="always">
      <path
         transform="matrix(-0.8,0,0,-0.8,-10,0)"
         style="fill:#32bef2;fill-opacity:1;fill-rule:evenodd;stroke:#32bef2;stroke-width:1.00000003pt;stroke-opacity:1"
         d="M 0,0 5,-5 -12.5,0 5,5 Z"
         id="path1396"
         inkscape:connector-curvature="0" />
    </marker>
    <marker
       inkscape:stockid="Arrow1Lend"
       orient="auto"
       refY="0"
       refX="0"
       id="Arrow1Lend"
       style="overflow:visible"
       inkscape:isstock="true"
       inkscape:collect="always">
      <path
         id="path1055"
         d="M 0,0 5,-5 -12.5,0 5,5 Z"
         style="fill:#32bef2;fill-opacity:1;fill-rule:evenodd;stroke:#32bef2;stroke-width:1.00000003pt;stroke-opacity:1"
         transform="matrix(-0.8,0,0,-0.8,-10,0)"
         inkscape:connector-curvature="0" />
    </marker>
    <marker
       inkscape:isstock="true"
       style="overflow:visible"
       id="marker4754"
       refX="0"
       refY="0"
       orient="auto"
       inkscape:stockid="Arrow2Mend"
       inkscape:collect="always">
      <path
         transform="scale(-0.6)"
         d="M 8.7185878,4.0337352 -2.2072895,0.01601326 8.7185884,-4.0017078 c -1.7454984,2.3720609 -1.7354408,5.6174519 -6e-7,8.035443 z"
         style="fill:#ff7f2a;fill-opacity:1;fill-rule:evenodd;stroke:#ff7f2a;stroke-width:0.625;stroke-linejoin:round;stroke-opacity:1"
         id="path4756"
         inkscape:connector-curvature="0" />
    </marker>
    <marker
       inkscape:isstock="true"
       style="overflow:visible"
       id="marker4708"
       refX="0"
       refY="0"
       orient="auto"
       inkscape:stockid="Arrow2Mstart">
      <path
         transform="scale(0.6)"
         d="M 8.7185878,4.0337352 -2.2072895,0.01601326 8.7185884,-4.0017078 c -1.7454984,2.3720609 -1.7354408,5.6174519 -6e-7,8.035443 z"
         style="fill:#000000;fill-opacity:1;fill-rule:evenodd;stroke:#000000;stroke-width:0.625;stroke-linejoin:round;stroke-opacity:1"
         id="path4710"
         inkscape:connector-curvature="0" />
    </marker>
    <marker
       inkscape:stockid="Arrow1Send"
       orient="auto"
       refY="0"
       refX="0"
       id="Arrow1Send"
       style="overflow:visible"
       inkscape:isstock="true">
      <path
         id="path4225"
         d="M 0,0 5,-5 -12.5,0 5,5 Z"
         style="fill:#000000;fill-opacity:1;fill-rule:evenodd;stroke:#000000;stroke-width:1.00000003pt;stroke-opacity:1"
         transform="matrix(-0.2,0,0,-0.2,-1.2,0)"
         inkscape:connector-curvature="0" />
    </marker>
    <marker
       id="arrowSwitchStart"
       orient="auto"
       refX="0"
       refY="0"
       style="overflow:visible"
       inkscape:stockid="arrowSwitchStart">
      <path
         d="M 0,0 5,-5 -12.5,0 5,5 Z"
         style="fill:#ff0000;fill-rule:evenodd;stroke:#ff0000;stroke-width:1"
         transform="matrix(0.25,0,0,0.25,1.823125,0)"
         id="path4250"
         inkscape:connector-curvature="0" />
    </marker>
    <marker
       id="arrowSwitchEnd"
       orient="auto"
       refX="0"
       refY="0"
       style="overflow:visible"
       inkscape:stockid="arrowSwitchEnd">
      <path
         d="M 0,0 5,-5 -12.5,0 5,5 Z"
         style="fill:#ff0000;fill-rule:evenodd;stroke:#ff0000;stroke-width:1"
         transform="matrix(-0.25,0,0,-0.25,-1.823125,0)"
         id="path4253"
         inkscape:connector-curvature="0" />
    </marker>
  </defs>
  <metadata
     id="metadata7">
    <rdf:RDF>
      <cc:Work
         rdf:about="">
        <dc:format>image/svg+xml</dc:format>
        <dc:type
           rdf:resource="http://purl.org/dc/dcmitype/StillImage" />
        <dc:title></dc:title>
      </cc:Work>
    </rdf:RDF>
  </metadata>
  <g
     inkscape:label="Layer 1"
     inkscape:groupmode="layer"
     id="layer1"
     transform="translate(-37.642675,-878.0506)" />
  <path
     style="fill:none;stroke:#32bef2;stroke-width:0.93749964px;stroke-linecap:butt;stroke-linejoin:miter;stroke-opacity:1;marker-end:url(#Arrow1Lend)"
     d="M 56.371301,49.291515 171.67448,80.18691"
     id="path1038"
     inkscape:connector-curvature="0" />
  <path
     inkscape:connector-curvature="0"
     id="path1394"
     d="M 56.371301,86.791505 171.67448,117.68689"
     style="fill:none;stroke:#32bef2;stroke-width:0.93749964px;stroke-linecap:butt;stroke-linejoin:miter;stroke-opacity:1;marker-end:url(#marker1398)" />
  <path
     style="fill:none;stroke:#32bef2;stroke-width:0.93749964px;stroke-linecap:butt;stroke-linejoin:miter;stroke-opacity:1;marker-end:url(#marker1470)"
     d="M 56.371301,68.041508 171.67448,98.936905"
     id="path1466"
     inkscape:connector-curvature="0" />
  <path
     inkscape:connector-curvature="0"
     id="path1556"
     d="M 56.371301,30.541522 171.67448,61.436918"
     style="fill:none;stroke:#32bef2;stroke-width:0.93749964px;stroke-linecap:butt;stroke-linejoin:miter;stroke-opacity:1;marker-end:url(#marker1560)" />
  <path
     inkscape:connector-curvature="0"
     id="path1642"
     d="M 127.76765,25.384589 26.441608,52.534826 v 0 81.387414 L 127.76765,106.772 Z"
     style="fill:none;stroke:#000000;stroke-width:1.71424305px;stroke-linecap:butt;stroke-linejoin:miter;stroke-opacity:1"
     sodipodi:nodetypes="cccccc" />
  <path
     inkscape:connector-curvature="0"
     id="path1734"
     d="M 0.12132138,64.29151 115.42451,95.186905"
     style="fill:none;stroke:#32bef2;stroke-width:0.93749964px;stroke-linecap:butt;stroke-linejoin:miter;stroke-opacity:1;marker-end:url(#marker1744)" />
  <path
     style="fill:none;stroke:#32bef2;stroke-width:0.93749964px;stroke-linecap:butt;stroke-linejoin:miter;stroke-opacity:1;marker-end:url(#marker3556)"
     d="M 0.12132138,101.79149 115.42451,132.68688"
     id="path1736"
     inkscape:connector-curvature="0" />
  <path
     inkscape:connector-curvature="0"
     id="path1738"
     d="M 0.12132138,83.041505 115.42451,113.93689"
     style="fill:none;stroke:#32bef2;stroke-width:0.93749964px;stroke-linecap:butt;stroke-linejoin:miter;stroke-opacity:1;marker-end:url(#marker3468)" />
  <path
     style="fill:none;stroke:#32bef2;stroke-width:0.93749964px;stroke-linecap:butt;stroke-linejoin:miter;stroke-opacity:1;marker-end:url(#marker3424)"
     d="M 0.12132138,45.541517 115.42451,76.436913"
     id="path1740"
     inkscape:connector-curvature="0" />
  <g
     style="fill:#32bef2;fill-opacity:1"
     transform="matrix(1.6873832,0,0,1.6873832,-71.67904,-83.892148)"
     ns0:version="0.11.0"
     ns0:texconverter="pdflatex"
     ns0:pdfconverter="pdf2svg"
     ns0:text="$\\vec{B}$"
     ns0:preamble="/home/mpnerem/.config/inkscape/extensions/textext/default_packages.tex"
     ns0:scale="0.750000000002"
     ns0:alignment="middle center"
     inkscapeversion="0.92.3"
     ns0:jacobian_sqrt="1.0"
     id="g3732">
    <g
       style="fill:#32bef2;fill-opacity:1"
       id="surface1">
      <g
         style="fill:#32bef2;fill-opacity:1"
         id="g3725">
        <path
           inkscape:connector-curvature="0"
           style="fill:#32bef2;fill-opacity:1;stroke:none;stroke-width:0"
           d="m 5.359375,-5.9375 c -0.140625,0.140625 -0.46875,0.421875 -0.46875,0.59375 0,0.09375 0.09375,0.203125 0.1875,0.203125 0.09375,0 0.140625,-0.078125 0.203125,-0.140625 C 5.390625,-5.421875 5.625,-5.703125 6.0625,-5.921875 6.125,-5.96875 6.234375,-6.015625 6.234375,-6.125 6.234375,-6.234375 6.15625,-6.28125 6.09375,-6.328125 5.875,-6.484375 5.765625,-6.65625 5.6875,-6.890625 5.65625,-6.984375 5.625,-7.125 5.484375,-7.125 c -0.140625,0 -0.203125,0.140625 -0.203125,0.21875 0,0.046875 0.078125,0.359375 0.234375,0.578125 H 2.15625 c -0.15625,0 -0.34375,0 -0.34375,0.203125 0,0.1875 0.1875,0.1875 0.34375,0.1875 z m 0,0"
           transform="translate(135.37,132.246)"
           id="path3723" />
      </g>
      <g
         style="fill:#32bef2;fill-opacity:1"
         id="g3729">
        <path
           inkscape:connector-curvature="0"
           style="fill:#32bef2;fill-opacity:1;stroke:none;stroke-width:0"
           d="M 1.59375,-0.78125 C 1.5,-0.390625 1.46875,-0.3125 0.6875,-0.3125 c -0.171875,0 -0.265625,0 -0.265625,0.203125 C 0.421875,0 0.515625,0 0.6875,0 H 4.25 C 5.828125,0 7,-1.171875 7,-2.15625 7,-2.875 6.421875,-3.453125 5.453125,-3.5625 6.484375,-3.75 7.53125,-4.484375 7.53125,-5.4375 c 0,-0.734375 -0.65625,-1.375 -1.84375,-1.375 H 2.328125 c -0.1875,0 -0.28125,0 -0.28125,0.203125 0,0.109375 0.09375,0.109375 0.28125,0.109375 0.015625,0 0.203125,0 0.375,0.015625 0.171875,0.03125 0.265625,0.03125 0.265625,0.171875 0,0.03125 -0.015625,0.0625 -0.03125,0.1875 z m 1.5,-2.875 0.625,-2.46875 C 3.8125,-6.46875 3.828125,-6.5 4.25,-6.5 h 1.296875 c 0.875,0 1.078125,0.59375 1.078125,1.03125 0,0.875 -0.859375,1.8125 -2.0625,1.8125 z m -0.4375,3.34375 c -0.140625,0 -0.15625,0 -0.21875,0 -0.109375,-0.015625 -0.140625,-0.03125 -0.140625,-0.109375 0,-0.03125 0,-0.046875 0.0625,-0.21875 l 0.6875,-2.78125 h 1.875 c 0.953125,0 1.15625,0.734375 1.15625,1.15625 C 6.078125,-1.28125 5.1875,-0.3125 4,-0.3125 Z m 0,0"
           transform="translate(133.768,134.765)"
           id="path3727" />
      </g>
    </g>
  </g>
  <path
     inkscape:connector-curvature="0"
     id="path3779"
     d="M 113.00679,26.298985 V 6.4116127"
     style="fill:none;stroke:#ff7f2a;stroke-width:1.49999952;stroke-linecap:butt;stroke-linejoin:miter;stroke-miterlimit:4;stroke-dasharray:none;stroke-opacity:1;marker-end:url(#marker4754)" />
  <g
     id="g3909"
     style="fill:#ff7f2a;fill-opacity:1;stroke:#ff7f2a;stroke-opacity:1"
     ns0:jacobian_sqrt="1.687383"
     inkscapeversion="0.92.3"
     ns0:alignment="middle center"
     ns0:scale="1.2655374"
     ns0:preamble="/home/mpnerem/.config/inkscape/extensions/textext/default_packages.tex"
     ns0:text="$\\vec{v}$"
     ns0:pdfconverter="pdf2svg"
     ns0:texconverter="pdflatex"
     ns0:version="0.11.0"
     transform="matrix(1.687383,0,0,1.687383,-104.22783,-215.37757)">
    <g
       style="fill:#ff7f2a;fill-opacity:1;stroke:#ff7f2a;stroke-opacity:1"
       id="g3907">
      <g
         id="g3901"
         style="fill:#ff7f2a;fill-opacity:1;stroke:#ff7f2a;stroke-opacity:1">
        <path
           id="path3899"
           transform="translate(133.382,134.765)"
           d="m 5.359375,-5.9375 c -0.140625,0.140625 -0.46875,0.421875 -0.46875,0.59375 0,0.09375 0.09375,0.203125 0.1875,0.203125 0.09375,0 0.140625,-0.078125 0.203125,-0.140625 C 5.390625,-5.421875 5.625,-5.703125 6.0625,-5.921875 6.125,-5.96875 6.234375,-6.015625 6.234375,-6.125 6.234375,-6.234375 6.15625,-6.28125 6.09375,-6.328125 5.875,-6.484375 5.765625,-6.65625 5.6875,-6.890625 5.65625,-6.984375 5.625,-7.125 5.484375,-7.125 c -0.140625,0 -0.203125,0.140625 -0.203125,0.21875 0,0.046875 0.078125,0.359375 0.234375,0.578125 H 2.15625 c -0.15625,0 -0.34375,0 -0.34375,0.203125 0,0.1875 0.1875,0.1875 0.34375,0.1875 z m 0,0"
           style="fill:#ff7f2a;fill-opacity:1;stroke:#ff7f2a;stroke-width:0;stroke-opacity:1"
           inkscape:connector-curvature="0" />
      </g>
      <g
         id="g3905"
         style="fill:#ff7f2a;fill-opacity:1;stroke:#ff7f2a;stroke-opacity:1">
        <path
           id="path3903"
           transform="translate(133.77054,134.765)"
           d="m 4.671875,-3.703125 c 0,-0.546875 -0.265625,-0.703125 -0.4375,-0.703125 -0.25,0 -0.5,0.265625 -0.5,0.484375 0,0.125 0.046875,0.1875 0.15625,0.296875 0.21875,0.203125 0.34375,0.453125 0.34375,0.8125 0,0.421875 -0.609375,2.703125 -1.765625,2.703125 -0.515625,0 -0.75,-0.34375 -0.75,-0.875 0,-0.546875 0.28125,-1.28125 0.578125,-2.109375 0.078125,-0.171875 0.125,-0.3125 0.125,-0.5 0,-0.4375 -0.3125,-0.8125 -0.8125,-0.8125 -0.9375,0 -1.3125,1.453125 -1.3125,1.53125 0,0.109375 0.09375,0.109375 0.109375,0.109375 0.109375,0 0.109375,-0.03125 0.15625,-0.1875 0.296875,-1 0.71875,-1.234375 1.015625,-1.234375 0.078125,0 0.25,0 0.25,0.3125 0,0.25 -0.109375,0.53125 -0.171875,0.703125 -0.4375,1.15625 -0.5625,1.609375 -0.5625,2.046875 0,1.078125 0.875,1.234375 1.328125,1.234375 1.671875,0 2.25,-3.296875 2.25,-3.8125 z m 0,0"
           style="fill:#ff7f2a;fill-opacity:1;stroke:#ff7f2a;stroke-width:0;stroke-opacity:1"
           inkscape:connector-curvature="0" />
      </g>
    </g>
  </g>
  <rect
     style="opacity:1;fill:none;fill-opacity:1;fill-rule:nonzero;stroke:#000000;stroke-width:1.49999952;stroke-linecap:round;stroke-linejoin:miter;stroke-miterlimit:4;stroke-dasharray:none;stroke-dashoffset:15.11811161;stroke-opacity:1"
     id="rect3987"
     width="81.91703"
     height="81.91703"
     x="219.99937"
     y="26.853395"
     rx="1.7622838"
     ry="0.66964293" />
  <circle
     style="opacity:1;fill:#32bef2;fill-opacity:1;fill-rule:nonzero;stroke:none;stroke-width:1.6874994;stroke-linecap:round;stroke-linejoin:miter;stroke-miterlimit:4;stroke-dasharray:none;stroke-dashoffset:15.11811161;stroke-opacity:1"
     id="path3989"
     cx="236.58289"
     cy="82.81189"
     r="4.26158" />
  <circle
     r="4.26158"
     cy="82.81189"
     cx="260.95789"
     id="circle3991"
     style="opacity:1;fill:#32bef2;fill-opacity:1;fill-rule:nonzero;stroke:none;stroke-width:1.6874994;stroke-linecap:round;stroke-linejoin:miter;stroke-miterlimit:4;stroke-dasharray:none;stroke-dashoffset:15.11811161;stroke-opacity:1" />
  <circle
     style="opacity:1;fill:#32bef2;fill-opacity:1;fill-rule:nonzero;stroke:none;stroke-width:1.6874994;stroke-linecap:round;stroke-linejoin:miter;stroke-miterlimit:4;stroke-dasharray:none;stroke-dashoffset:15.11811161;stroke-opacity:1"
     id="circle3993"
     cx="260.95789"
     cy="120.31189"
     r="4.26158" />
  <circle
     r="4.26158"
     cy="120.31189"
     cx="236.58289"
     id="circle3995"
     style="opacity:1;fill:#32bef2;fill-opacity:1;fill-rule:nonzero;stroke:none;stroke-width:1.6874994;stroke-linecap:round;stroke-linejoin:miter;stroke-miterlimit:4;stroke-dasharray:none;stroke-dashoffset:15.11811161;stroke-opacity:1" />
  <circle
     style="opacity:1;fill:#32bef2;fill-opacity:1;fill-rule:nonzero;stroke:none;stroke-width:1.6874994;stroke-linecap:round;stroke-linejoin:miter;stroke-miterlimit:4;stroke-dasharray:none;stroke-dashoffset:15.11811161;stroke-opacity:1"
     id="circle4007"
     cx="285.33289"
     cy="82.81189"
     r="4.26158" />
  <circle
     r="4.26158"
     cy="120.31189"
     cx="285.33289"
     id="circle4009"
     style="opacity:1;fill:#32bef2;fill-opacity:1;fill-rule:nonzero;stroke:none;stroke-width:1.6874994;stroke-linecap:round;stroke-linejoin:miter;stroke-miterlimit:4;stroke-dasharray:none;stroke-dashoffset:15.11811161;stroke-opacity:1" />
  <circle
     r="4.26158"
     cy="101.56188"
     cx="236.58289"
     id="circle4011"
     style="opacity:1;fill:#32bef2;fill-opacity:1;fill-rule:nonzero;stroke:none;stroke-width:1.6874994;stroke-linecap:round;stroke-linejoin:miter;stroke-miterlimit:4;stroke-dasharray:none;stroke-dashoffset:15.11811161;stroke-opacity:1" />
  <circle
     style="opacity:1;fill:#32bef2;fill-opacity:1;fill-rule:nonzero;stroke:none;stroke-width:1.6874994;stroke-linecap:round;stroke-linejoin:miter;stroke-miterlimit:4;stroke-dasharray:none;stroke-dashoffset:15.11811161;stroke-opacity:1"
     id="circle4013"
     cx="260.95789"
     cy="101.56188"
     r="4.26158" />
  <circle
     r="4.26158"
     cy="101.56188"
     cx="285.33289"
     id="circle4015"
     style="opacity:1;fill:#32bef2;fill-opacity:1;fill-rule:nonzero;stroke:none;stroke-width:1.6874994;stroke-linecap:round;stroke-linejoin:miter;stroke-miterlimit:4;stroke-dasharray:none;stroke-dashoffset:15.11811161;stroke-opacity:1" />
  <path
     style="fill:none;stroke:#ff7f2a;stroke-width:1.49999952;stroke-linecap:butt;stroke-linejoin:miter;stroke-miterlimit:4;stroke-dasharray:none;stroke-opacity:1;marker-end:url(#marker4039)"
     d="M 244.25672,26.298985 V 6.4116127"
     id="path4023"
     inkscape:connector-curvature="0" />
  <g
     transform="matrix(1.687383,0,0,1.687383,27.022128,-215.37757)"
     ns0:version="0.11.0"
     ns0:texconverter="pdflatex"
     ns0:pdfconverter="pdf2svg"
     ns0:text="$\\vec{v}$"
     ns0:preamble="/home/mpnerem/.config/inkscape/extensions/textext/default_packages.tex"
     ns0:scale="1.2655374"
     ns0:alignment="middle center"
     inkscapeversion="0.92.3"
     ns0:jacobian_sqrt="1.687383"
     style="fill:#ff7f2a;fill-opacity:1;stroke:#ff7f2a;stroke-opacity:1"
     id="g4035">
    <g
       id="g4033"
       style="fill:#ff7f2a;fill-opacity:1;stroke:#ff7f2a;stroke-opacity:1">
      <g
         style="fill:#ff7f2a;fill-opacity:1;stroke:#ff7f2a;stroke-opacity:1"
         id="g4027">
        <path
           inkscape:connector-curvature="0"
           style="fill:#ff7f2a;fill-opacity:1;stroke:#ff7f2a;stroke-width:0;stroke-opacity:1"
           d="m 5.359375,-5.9375 c -0.140625,0.140625 -0.46875,0.421875 -0.46875,0.59375 0,0.09375 0.09375,0.203125 0.1875,0.203125 0.09375,0 0.140625,-0.078125 0.203125,-0.140625 C 5.390625,-5.421875 5.625,-5.703125 6.0625,-5.921875 6.125,-5.96875 6.234375,-6.015625 6.234375,-6.125 6.234375,-6.234375 6.15625,-6.28125 6.09375,-6.328125 5.875,-6.484375 5.765625,-6.65625 5.6875,-6.890625 5.65625,-6.984375 5.625,-7.125 5.484375,-7.125 c -0.140625,0 -0.203125,0.140625 -0.203125,0.21875 0,0.046875 0.078125,0.359375 0.234375,0.578125 H 2.15625 c -0.15625,0 -0.34375,0 -0.34375,0.203125 0,0.1875 0.1875,0.1875 0.34375,0.1875 z m 0,0"
           transform="translate(133.382,134.765)"
           id="path4025" />
      </g>
      <g
         style="fill:#ff7f2a;fill-opacity:1;stroke:#ff7f2a;stroke-opacity:1"
         id="g4031">
        <path
           inkscape:connector-curvature="0"
           style="fill:#ff7f2a;fill-opacity:1;stroke:#ff7f2a;stroke-width:0;stroke-opacity:1"
           d="m 4.671875,-3.703125 c 0,-0.546875 -0.265625,-0.703125 -0.4375,-0.703125 -0.25,0 -0.5,0.265625 -0.5,0.484375 0,0.125 0.046875,0.1875 0.15625,0.296875 0.21875,0.203125 0.34375,0.453125 0.34375,0.8125 0,0.421875 -0.609375,2.703125 -1.765625,2.703125 -0.515625,0 -0.75,-0.34375 -0.75,-0.875 0,-0.546875 0.28125,-1.28125 0.578125,-2.109375 0.078125,-0.171875 0.125,-0.3125 0.125,-0.5 0,-0.4375 -0.3125,-0.8125 -0.8125,-0.8125 -0.9375,0 -1.3125,1.453125 -1.3125,1.53125 0,0.109375 0.09375,0.109375 0.109375,0.109375 0.109375,0 0.109375,-0.03125 0.15625,-0.1875 0.296875,-1 0.71875,-1.234375 1.015625,-1.234375 0.078125,0 0.25,0 0.25,0.3125 0,0.25 -0.109375,0.53125 -0.171875,0.703125 -0.4375,1.15625 -0.5625,1.609375 -0.5625,2.046875 0,1.078125 0.875,1.234375 1.328125,1.234375 1.671875,0 2.25,-3.296875 2.25,-3.8125 z m 0,0"
           transform="translate(133.77054,134.765)"
           id="path4029" />
      </g>
    </g>
  </g>
</svg>
