<?xml version="1.0" encoding="utf-8" standalone="no"?>
<!DOCTYPE svg PUBLIC "-//W3C//DTD SVG 1.1//EN"
  "http://www.w3.org/Graphics/SVG/1.1/DTD/svg11.dtd">
<!-- Created with matplotlib (http://matplotlib.org/) -->
<svg height="287pt" version="1.1" viewBox="0 0 287 287" width="287pt" xmlns="http://www.w3.org/2000/svg" xmlns:xlink="http://www.w3.org/1999/xlink">
 <defs>
  <style type="text/css">
*{stroke-linecap:butt;stroke-linejoin:round;}
  </style>
 </defs>
 <g id="figure_1">
  <g id="patch_1">
   <path d="M -0 287.512 
L 287.512 287.512 
L 287.512 0 
L -0 0 
z
" style="fill:#ffffff;"/>
  </g>
  <g id="axes_1">
   <g id="patch_2">
    <path d="M 10.7 276.812 
L 276.812 276.812 
L 276.812 10.7 
L 10.7 10.7 
z
" style="fill:#ffffff;"/>
   </g>
   <g id="LineCollection_1"/>
   <g id="LineCollection_2"/>
   <g id="LineCollection_3"/>
   <g id="LineCollection_4"/>
   <g id="LineCollection_5"/>
   <g id="LineCollection_6"/>
   <g id="LineCollection_7"/>
   <g id="LineCollection_8"/>
   <g id="LineCollection_9"/>
   <g id="LineCollection_10"/>
   <g id="LineCollection_11"/>
   <g id="LineCollection_12"/>
   <g id="LineCollection_13"/>
   <g id="LineCollection_14"/>
   <g id="LineCollection_15"/>
   <g id="LineCollection_16"/>
   <g id="LineCollection_17"/>
   <g id="LineCollection_18"/>
   <g id="LineCollection_19"/>
   <g id="LineCollection_20"/>
   <g id="LineCollection_21"/>
   <g id="LineCollection_22"/>
   <g id="LineCollection_23"/>
   <g id="LineCollection_24"/>
   <g id="LineCollection_25"/>
   <g id="LineCollection_26"/>
   <g id="LineCollection_27"/>
   <g id="LineCollection_28"/>
   <g id="LineCollection_29"/>
   <g id="LineCollection_30"/>
   <g id="LineCollection_31"/>
   <g id="LineCollection_32"/>
   <g id="LineCollection_33"/>
   <g id="LineCollection_34"/>
   <g id="LineCollection_35"/>
   <g id="LineCollection_36"/>
   <g id="LineCollection_37"/>
   <g id="LineCollection_38"/>
   <g id="LineCollection_39"/>
   <g id="LineCollection_40"/>
   <g id="LineCollection_41"/>
   <g id="LineCollection_42"/>
   <g id="LineCollection_43"/>
   <g id="LineCollection_44"/>
   <g id="LineCollection_45"/>
   <g id="LineCollection_46"/>
   <g id="LineCollection_47"/>
   <g id="LineCollection_48"/>
   <g id="LineCollection_49"/>
   <g id="LineCollection_50"/>
   <g id="LineCollection_51"/>
   <g id="LineCollection_52"/>
   <g id="LineCollection_53"/>
   <g id="LineCollection_54"/>
   <g id="LineCollection_55"/>
   <g id="LineCollection_56"/>
   <g id="LineCollection_57"/>
   <g id="LineCollection_58"/>
   <g id="LineCollection_59"/>
   <g id="LineCollection_60"/>
   <g id="LineCollection_61"/>
   <g id="LineCollection_62"/>
   <g id="LineCollection_63"/>
   <g id="LineCollection_64"/>
   <g id="LineCollection_65"/>
   <g id="LineCollection_66"/>
   <g id="LineCollection_67"/>
   <g id="LineCollection_68"/>
   <g id="LineCollection_69"/>
   <g id="LineCollection_70"/>
   <g id="LineCollection_71"/>
   <g id="LineCollection_72">
    <path clip-path="url(#p484fc7f60e)" d="M 41.7464 134.904318 
L 41.718601 134.8856 
L 39.5288 133.263014 
L 38.935375 132.668 
L 37.3344 130.4504 
L 37.3112 130.399778 
L 36.250872 128.2328 
L 35.733616 126.0152 
L 35.63682 123.7976 
L 35.928534 121.58 
L 36.700018 119.3624 
L 37.3112 118.300193 
L 37.987964 117.1448 
L 39.5288 115.416897 
L 40.097776 114.9272 
L 41.7464 113.700098 
L 43.964 112.739839 
L 44.098028 112.7096 
L 46.1816 112.13248 
L 48.3992 111.993684 
L 50.6168 112.301823 
L 51.785166 112.7096 
L 52.8344 113.021438 
L 55.052 114.253707 
L 55.877977 114.9272 
L 57.2696 116.288583 
L 57.978142 117.1448 
L 59.239446 119.3624 
L 59.4872 120.147762 
L 60.005215 121.58 
L 60.334371 123.7976 
L 60.22191 126.0152 
L 59.63887 128.2328 
L 59.4872 128.563353 
L 58.68873 130.4504 
L 57.2696 132.356538 
L 57.001853 132.668 
L 55.052 134.40039 
L 54.211091 134.8856 
L 52.8344 135.671249 
L 50.6168 136.399645 
L 48.3992 136.662786 
L 46.1816 136.547033 
L 43.964 136.01304 
L 41.7464 134.904318 
" style="fill:none;stroke:#000000;stroke-width:1.5;"/>
   </g>
   <g id="LineCollection_73">
    <path clip-path="url(#p484fc7f60e)" d="M 46.1816 139.742563 
L 44.12126 139.3208 
L 43.964 139.294136 
L 41.7464 138.590437 
L 39.5288 137.385581 
L 39.128541 137.1032 
L 37.3112 135.689094 
L 36.494668 134.8856 
L 35.0936 133.119547 
L 34.763229 132.668 
L 33.53958 130.4504 
L 32.876 128.398652 
L 32.815421 128.2328 
L 32.347152 126.0152 
L 32.241223 123.7976 
L 32.480199 121.58 
L 32.876 120.114765 
L 33.049976 119.3624 
L 33.934395 117.1448 
L 35.0936 115.313119 
L 35.350095 114.9272 
L 37.3112 112.760786 
L 37.368323 112.7096 
L 39.5288 111.016182 
L 40.515863 110.492 
L 41.7464 109.830446 
L 43.964 109.051669 
L 46.1816 108.659581 
L 48.3992 108.576993 
L 50.6168 108.786176 
L 52.8344 109.331059 
L 55.052 110.314481 
L 55.346482 110.492 
L 57.2696 111.667374 
L 58.489619 112.7096 
L 59.4872 113.707202 
L 60.51282 114.9272 
L 61.7048 116.890535 
L 61.85457 117.1448 
L 62.82904 119.3624 
L 63.368455 121.58 
L 63.570543 123.7976 
L 63.477422 126.0152 
L 63.069538 128.2328 
L 62.266465 130.4504 
L 61.7048 131.480915 
L 61.069324 132.668 
L 59.4872 134.670933 
L 59.293784 134.8856 
L 57.2696 136.708407 
L 56.672052 137.1032 
L 55.052 138.125802 
L 52.8344 139.032032 
L 51.589228 139.3208 
L 50.6168 139.585899 
L 48.3992 139.83791 
L 46.1816 139.742563 
" style="fill:none;stroke:#000000;stroke-width:1.5;"/>
   </g>
   <g id="LineCollection_74">
    <path clip-path="url(#p484fc7f60e)" d="M 41.7464 144.393436 
L 39.986589 143.756 
L 39.5288 143.600521 
L 37.3112 142.571582 
L 35.674926 141.5384 
L 35.0936 141.152247 
L 32.896553 139.3208 
L 32.876 139.301207 
L 30.848856 137.1032 
L 30.6584 136.844735 
L 29.272732 134.8856 
L 28.4408 133.273313 
L 28.118588 132.668 
L 27.225235 130.4504 
L 26.648788 128.2328 
L 26.328925 126.0152 
L 26.229559 123.7976 
L 26.339307 121.58 
L 26.67113 119.3624 
L 27.261018 117.1448 
L 28.165918 114.9272 
L 28.4408 114.405386 
L 29.328595 112.7096 
L 30.6584 110.823712 
L 30.908058 110.492 
L 32.876 108.353779 
L 32.960761 108.2744 
L 35.0936 106.487725 
L 35.747076 106.0568 
L 37.3112 105.057823 
L 39.5288 104.017921 
L 40.053567 103.8392 
L 41.7464 103.217034 
L 43.964 102.685714 
L 46.1816 102.410648 
L 48.3992 102.365596 
L 50.6168 102.546176 
L 52.8344 102.970377 
L 55.052 103.678371 
L 55.42155 103.8392 
L 57.2696 104.595396 
L 59.4872 105.895836 
L 59.713011 106.0568 
L 61.7048 107.543401 
L 62.49989 108.2744 
L 63.9224 109.755835 
L 64.544702 110.492 
L 66.073691 112.7096 
L 66.14 112.829406 
L 67.287813 114.9272 
L 68.129468 117.1448 
L 68.3576 118.030971 
L 68.734992 119.3624 
L 69.104671 121.58 
L 69.224301 123.7976 
L 69.104104 126.0152 
L 68.732864 128.2328 
L 68.3576 129.539172 
L 68.126239 130.4504 
L 67.284728 132.668 
L 66.14 134.746834 
L 66.064856 134.8856 
L 64.534216 137.1032 
L 63.9224 137.815641 
L 62.484523 139.3208 
L 61.7048 140.02822 
L 59.685713 141.5384 
L 59.4872 141.67786 
L 57.2696 142.979148 
L 55.379478 143.756 
L 55.052 143.897486 
L 52.8344 144.608517 
L 50.6168 145.037354 
L 48.3992 145.223086 
L 46.1816 145.183877 
L 43.964 144.915777 
L 41.7464 144.393436 
" style="fill:none;stroke:#000000;stroke-width:1.5;"/>
   </g>
   <g id="LineCollection_75">
    <path clip-path="url(#p484fc7f60e)" d="M 39.5288 155.140628 
L 38.302972 154.844 
L 37.3112 154.615854 
L 35.0936 153.954059 
L 32.876 153.101759 
L 31.838783 152.6264 
L 30.6584 152.079921 
L 28.4408 150.853036 
L 27.734135 150.4088 
L 26.2232 149.405455 
L 24.624023 148.1912 
L 24.0056 147.679705 
L 22.126021 145.9736 
L 21.788 145.628497 
L 20.052579 143.756 
L 19.5704 143.151722 
L 18.310341 141.5384 
L 17.3528 140.069242 
L 16.86103 139.3208 
L 15.637231 137.1032 
L 15.1352 135.976686 
L 14.623624 134.8856 
L 13.787041 132.668 
L 13.153184 130.4504 
L 12.9176 129.330553 
L 12.662168 128.2328 
L 12.31175 126.0152 
L 12.120279 123.7976 
L 12.079923 121.58 
L 12.188612 119.3624 
L 12.449747 117.1448 
L 12.871895 114.9272 
L 12.9176 114.749125 
L 13.409583 112.7096 
L 14.122659 110.492 
L 15.041329 108.2744 
L 15.1352 108.079855 
L 16.102269 106.0568 
L 17.3528 103.943085 
L 17.415239 103.8392 
L 18.929817 101.6216 
L 19.5704 100.805824 
L 20.7371 99.404 
L 21.788 98.273052 
L 22.890448 97.1864 
L 24.0056 96.169797 
L 25.48975 94.9688 
L 26.2232 94.403271 
L 28.4408 92.9156 
L 28.723038 92.7512 
L 30.6584 91.630391 
L 32.876 90.592236 
L 33.024638 90.5336 
L 35.0936 89.689056 
L 37.3112 88.981682 
L 39.5288 88.451619 
L 40.315063 88.316 
L 41.7464 88.047562 
L 43.964 87.78496 
L 46.1816 87.672449 
L 48.3992 87.706392 
L 50.6168 87.888227 
L 52.8344 88.224596 
L 53.247587 88.316 
L 55.052 88.679824 
L 57.2696 89.291573 
L 59.4872 90.095347 
L 60.469703 90.5336 
L 61.7048 91.060713 
L 63.9224 92.227057 
L 64.763452 92.7512 
L 66.14 93.605976 
L 67.976902 94.9688 
L 68.3576 95.25822 
L 70.548996 97.1864 
L 70.5752 97.210793 
L 72.677199 99.404 
L 72.7928 99.53623 
L 74.471769 101.6216 
L 75.0104 102.38411 
L 75.986242 103.8392 
L 77.228 106.041057 
L 77.23667 106.0568 
L 78.323897 108.2744 
L 79.184076 110.492 
L 79.4456 111.328918 
L 79.892149 112.7096 
L 80.444374 114.9272 
L 80.83013 117.1448 
L 81.062932 119.3624 
L 81.151597 121.58 
L 81.099716 123.7976 
L 80.905239 126.0152 
L 80.560213 128.2328 
L 80.05069 130.4504 
L 79.4456 132.394195 
L 79.367109 132.668 
L 78.561625 134.8856 
L 77.525905 137.1032 
L 77.228 137.640741 
L 76.316682 139.3208 
L 75.0104 141.284637 
L 74.840272 141.5384 
L 73.114361 143.756 
L 72.7928 144.119608 
L 71.053078 145.9736 
L 70.5752 146.431208 
L 68.554734 148.1912 
L 68.3576 148.35069 
L 66.14 149.977267 
L 65.456352 150.4088 
L 63.9224 151.352616 
L 61.7048 152.483087 
L 61.372086 152.6264 
L 59.4872 153.457202 
L 57.2696 154.234543 
L 55.052 154.827129 
L 54.968473 154.844 
L 52.8344 155.312592 
L 50.6168 155.641877 
L 48.3992 155.82411 
L 46.1816 155.865822 
L 43.964 155.768663 
L 41.7464 155.529476 
L 39.5288 155.140628 
" style="fill:none;stroke:#000000;stroke-width:1.5;"/>
   </g>
   <g id="LineCollection_76">
    <path clip-path="url(#p484fc7f60e)" d="M 101.350614 -1 
L 103.8392 3.04377 
L 106.909806 8.4824 
L 109.217535 12.9176 
L 111.350865 17.3528 
L 113.316878 21.788 
L 115.965631 28.4408 
L 118.26928 35.0936 
L 120.241593 41.7464 
L 121.891742 48.3992 
L 123.232351 55.052 
L 124.264952 61.7048 
L 124.997311 68.3576 
L 125.424437 75.0104 
L 125.549271 81.6632 
L 125.370382 88.316 
L 124.879201 94.9688 
L 124.369432 99.404 
L 123.330118 106.0568 
L 122.448536 110.492 
L 120.813901 117.1448 
L 119.3624 121.977892 
L 118.010528 126.0152 
L 116.309842 130.4504 
L 114.381404 134.8856 
L 112.203 139.3208 
L 109.738979 143.756 
L 106.933771 148.1912 
L 103.708075 152.6264 
L 101.6216 155.183679 
L 99.404 157.670703 
L 97.1864 159.93897 
L 94.9688 162.008172 
L 92.7512 163.895254 
L 90.105892 165.932 
L 86.0984 168.614558 
L 81.6632 171.096192 
L 77.228 173.138504 
L 72.7928 174.808307 
L 68.3576 176.18061 
L 63.9224 177.288663 
L 59.4872 178.196265 
L 52.853344 179.2376 
L 48.3992 179.786136 
L 41.7464 180.419972 
L 32.876 180.997429 
L 24.0056 181.31813 
L 15.1352 181.382672 
L 8.4824 181.243531 
L 1.8296 180.92099 
L -1 180.720243 
L -1 180.720243 
" style="fill:none;stroke:#000000;stroke-width:1.5;"/>
   </g>
   <g id="LineCollection_77">
    <path clip-path="url(#p484fc7f60e)" d="M 212.5016 287.986179 
L 216.9368 288.11367 
L 221.372 287.971517 
L 225.8072 287.574519 
L 230.2424 286.908409 
L 234.6776 285.945785 
L 239.1128 284.710656 
L 243.548 283.150781 
L 248.012954 281.2472 
L 252.4184 279.018989 
L 256.8536 276.382706 
L 261.2888 273.284864 
L 265.13379 270.1592 
L 267.9416 267.587664 
L 270.1592 265.349438 
L 273.737787 261.2888 
L 275.476299 259.0712 
L 278.557829 254.636 
L 279.92656 252.4184 
L 282.34145 247.9832 
L 284.370095 243.548 
L 286.041348 239.1128 
L 287.39527 234.6776 
L 288.512 229.849503 
M 288.512 202.787491 
L 287.709538 199.196 
L 286.444679 194.7608 
L 284.84173 190.3256 
L 282.879814 185.8904 
L 280.529843 181.4552 
L 277.737632 177.02 
L 276.152617 174.8024 
L 274.424111 172.5848 
L 272.3768 170.175884 
L 270.1592 167.798421 
L 267.9416 165.634007 
L 265.724 163.657687 
L 263.059186 161.4968 
L 259.0712 158.645611 
L 254.636 155.955521 
L 250.2008 153.70722 
L 245.7656 151.854058 
L 241.3304 150.373037 
L 236.8952 149.200448 
L 232.46 148.372855 
L 228.0248 147.836865 
L 223.5896 147.599286 
L 219.1544 147.66238 
L 214.7192 148.027638 
L 210.284 148.675514 
L 205.8488 149.632523 
L 201.4136 150.911876 
L 196.9784 152.526803 
L 192.5432 154.476403 
L 187.682572 157.0616 
L 183.6728 159.547977 
L 179.2376 162.733256 
L 175.37508 165.932 
L 172.5848 168.50333 
L 168.631053 172.5848 
L 165.932 175.714648 
L 163.167571 179.2376 
L 160.063426 183.6728 
L 157.0616 188.589051 
L 154.844 192.686391 
L 152.784667 196.9784 
L 150.10921 203.6312 
L 148.660866 208.0664 
L 147.487363 212.5016 
L 146.604903 216.9368 
L 146.042734 221.372 
L 145.792346 225.8072 
L 145.908264 230.2424 
L 146.396405 234.6776 
L 146.793343 236.8952 
L 147.303535 239.1128 
L 148.662853 243.548 
L 149.505442 245.7656 
L 151.559263 250.2008 
L 154.115539 254.636 
L 157.0616 258.860258 
L 158.979805 261.2888 
L 161.4968 264.146426 
L 163.7144 266.429992 
L 165.932 268.523131 
L 168.1496 270.449286 
L 172.5848 273.882394 
L 174.8024 275.410817 
L 179.2376 278.13897 
L 183.6728 280.473118 
L 188.108 282.455456 
L 192.5432 284.109586 
L 196.9784 285.455982 
L 201.4136 286.529925 
L 205.8488 287.316304 
L 210.284 287.825385 
L 212.5016 287.986179 
L 212.5016 287.986179 
" style="fill:none;stroke:#000000;stroke-width:1.5;"/>
    <path clip-path="url(#p484fc7f60e)" d="M 43.964 268.248523 
L 46.1816 268.914128 
L 48.3992 269.403242 
L 50.6168 269.736453 
L 52.8344 269.928072 
L 55.052 269.986444 
L 57.2696 269.914298 
L 59.4872 269.709169 
L 61.7048 269.36387 
L 63.9224 268.867036 
L 66.14 268.203728 
L 66.862847 267.9416 
L 68.3576 267.409041 
L 70.5752 266.437809 
L 71.946982 265.724 
L 72.7928 265.273122 
L 75.0104 263.903386 
L 75.587181 263.5064 
L 77.228 262.298127 
L 78.45717 261.2888 
L 79.4456 260.392921 
L 80.802324 259.0712 
L 81.6632 258.113678 
L 82.753932 256.8536 
L 83.8808 255.311583 
L 84.371498 254.636 
L 85.718532 252.4184 
L 86.0984 251.643349 
L 86.834275 250.2008 
L 87.711804 247.9832 
L 88.316 245.873639 
L 88.349635 245.7656 
L 88.844756 243.548 
L 89.127077 241.3304 
L 89.210978 239.1128 
L 89.101075 236.8952 
L 88.791823 234.6776 
L 88.316 232.666033 
L 88.274229 232.46 
L 87.622949 230.2424 
L 86.72422 228.0248 
L 86.0984 226.839077 
L 85.607563 225.8072 
L 84.251037 223.5896 
L 83.8808 223.096995 
L 82.658489 221.372 
L 81.6632 220.234492 
L 80.743894 219.1544 
L 79.4456 217.885615 
L 78.465981 216.9368 
L 77.228 215.910156 
L 75.716674 214.7192 
L 75.0104 214.227864 
L 72.7928 212.790673 
L 72.306361 212.5016 
L 70.5752 211.552746 
L 68.3576 210.516495 
L 67.788151 210.284 
L 66.14 209.630957 
L 63.9224 208.906852 
L 61.7048 208.348267 
L 60.200178 208.0664 
L 59.4872 207.927045 
L 57.2696 207.624199 
L 55.052 207.46449 
L 52.8344 207.445407 
L 50.6168 207.568412 
L 48.3992 207.839533 
L 47.212526 208.0664 
L 46.1816 208.245918 
L 43.964 208.785894 
L 41.7464 209.510829 
L 39.891248 210.284 
L 39.5288 210.431992 
L 37.3112 211.515656 
L 35.662148 212.5016 
L 35.0936 212.855459 
L 32.876 214.454272 
L 32.543547 214.7192 
L 30.6584 216.378121 
L 30.075602 216.9368 
L 28.4408 218.738125 
L 28.078535 219.1544 
L 26.436185 221.372 
L 26.2232 221.720305 
L 25.055597 223.5896 
L 24.0056 225.75879 
L 23.980882 225.8072 
L 23.053513 228.0248 
L 22.367496 230.2424 
L 21.884569 232.46 
L 21.788 233.150031 
L 21.542867 234.6776 
L 21.368378 236.8952 
L 21.367094 239.1128 
L 21.537426 241.3304 
L 21.788 242.95083 
L 21.872963 243.548 
L 22.348406 245.7656 
L 23.017035 247.9832 
L 23.904358 250.2008 
L 24.0056 250.416445 
L 24.949937 252.4184 
L 26.2232 254.568364 
L 26.264772 254.636 
L 27.804146 256.8536 
L 28.4408 257.655585 
L 29.665273 259.0712 
L 30.6584 260.116884 
L 31.912311 261.2888 
L 32.876 262.142358 
L 34.668248 263.5064 
L 35.0936 263.824109 
L 37.3112 265.254221 
L 38.194841 265.724 
L 39.5288 266.455409 
L 41.7464 267.44464 
L 43.154888 267.9416 
L 43.964 268.248523 
" style="fill:none;stroke:#000000;stroke-width:1.5;"/>
   </g>
   <g id="LineCollection_78">
    <path clip-path="url(#p484fc7f60e)" d="M 214.7192 252.584834 
L 216.9368 252.740543 
L 219.1544 252.759716 
L 221.372 252.642946 
L 225.8072 252.030713 
L 228.0248 251.526902 
L 230.2424 250.862903 
L 234.6776 249.081439 
L 236.8952 247.908115 
L 240.273945 245.7656 
L 241.3304 245.004965 
L 243.548 243.166361 
L 245.7656 241.01733 
L 247.9832 238.468944 
L 249.185367 236.8952 
L 250.646669 234.6776 
L 252.4184 231.389535 
L 252.97577 230.2424 
L 253.878802 228.0248 
L 255.203973 223.5896 
L 255.660256 221.372 
L 255.971223 219.1544 
L 256.14644 216.9368 
L 256.191454 214.7192 
L 256.107662 212.5016 
L 255.892249 210.284 
L 255.538201 208.0664 
L 254.636 204.503756 
L 254.393191 203.6312 
L 253.621263 201.4136 
L 252.4184 198.738862 
L 251.535869 196.9784 
L 250.186074 194.7608 
L 247.9832 191.700144 
L 245.7656 189.16606 
L 243.548 187.035518 
L 241.3304 185.224857 
L 239.083845 183.6728 
L 236.8952 182.343694 
L 234.6776 181.230344 
L 232.46 180.262861 
L 229.32172 179.2376 
L 228.0248 178.856741 
L 225.8072 178.356824 
L 223.5896 178.006968 
L 221.372 177.79626 
L 219.1544 177.717805 
L 216.9368 177.768865 
L 214.7192 177.950918 
L 212.5016 178.269608 
L 210.284 178.734618 
L 205.8488 180.071501 
L 202.668838 181.4552 
L 201.4136 182.05729 
L 198.664757 183.6728 
L 196.9784 184.79035 
L 194.7608 186.508228 
L 192.5432 188.51002 
L 190.3256 190.85988 
L 188.108 193.673973 
L 187.336953 194.7608 
L 185.8904 197.152689 
L 184.787885 199.196 
L 183.6728 201.792736 
L 182.962117 203.6312 
L 182.279331 205.8488 
L 181.75902 208.0664 
L 181.104002 212.5016 
L 180.973138 214.7192 
L 180.979849 216.9368 
L 181.124789 219.1544 
L 181.81021 223.5896 
L 182.354465 225.8072 
L 183.068146 228.0248 
L 183.945312 230.2424 
L 184.972932 232.46 
L 186.215182 234.6776 
L 188.108 237.508234 
L 190.3256 240.253182 
L 192.5432 242.539225 
L 194.7608 244.476459 
L 196.9784 246.123366 
L 199.997862 247.9832 
L 201.4136 248.761165 
L 204.735632 250.2008 
L 205.8488 250.639624 
L 208.0664 251.354141 
L 210.284 251.902564 
L 213.463371 252.4184 
L 214.7192 252.584834 
L 214.7192 252.584834 
" style="fill:none;stroke:#000000;stroke-width:1.5;"/>
    <path clip-path="url(#p484fc7f60e)" d="M 46.1816 250.916387 
L 48.3992 251.572011 
L 50.6168 251.88523 
L 52.8344 251.910026 
L 55.052 251.650694 
L 57.2696 251.063154 
L 59.211892 250.2008 
L 59.4872 250.084841 
L 61.7048 248.759844 
L 62.667885 247.9832 
L 63.9224 246.821689 
L 64.877603 245.7656 
L 66.14 243.921655 
L 66.383441 243.548 
L 67.482874 241.3304 
L 68.131206 239.1128 
L 68.3576 237.535003 
L 68.468327 236.8952 
L 68.518536 234.6776 
L 68.3576 233.458449 
L 68.2538 232.46 
L 67.716792 230.2424 
L 66.763142 228.0248 
L 66.14 227.025632 
L 65.384455 225.8072 
L 63.9224 224.124168 
L 63.393799 223.5896 
L 61.7048 222.178586 
L 60.413594 221.372 
L 59.4872 220.824684 
L 57.2696 219.874339 
L 55.052 219.325676 
L 53.501109 219.1544 
L 52.8344 219.064902 
L 50.6168 219.089877 
L 50.208633 219.1544 
L 48.3992 219.386738 
L 46.1816 219.988929 
L 43.964 221.016527 
L 43.391912 221.372 
L 41.7464 222.43937 
L 40.418957 223.5896 
L 39.5288 224.513785 
L 38.441119 225.8072 
L 37.3112 227.678817 
L 37.102717 228.0248 
L 36.119181 230.2424 
L 35.559804 232.46 
L 35.325393 234.6776 
L 35.369961 236.8952 
L 35.702973 239.1128 
L 36.385588 241.3304 
L 37.3112 243.190669 
L 37.486673 243.548 
L 38.999972 245.7656 
L 39.5288 246.374748 
L 41.201567 247.9832 
L 41.7464 248.443961 
L 43.964 249.888733 
L 44.668721 250.2008 
L 46.1816 250.916387 
" style="fill:none;stroke:#000000;stroke-width:1.5;"/>
   </g>
   <g id="LineCollection_79">
    <path clip-path="url(#p484fc7f60e)" d="M 50.6168 246.221324 
L 52.8344 246.203611 
L 54.654929 245.7656 
L 55.052 245.690895 
L 57.2696 244.770324 
L 58.903137 243.548 
L 59.4872 243.029225 
L 60.949371 241.3304 
L 61.7048 239.874457 
L 62.107548 239.1128 
L 62.773019 236.8952 
L 62.922495 234.6776 
L 62.604897 232.46 
L 61.713753 230.2424 
L 61.7048 230.227648 
L 60.352192 228.0248 
L 59.4872 227.10826 
L 57.840647 225.8072 
L 57.2696 225.413424 
L 55.052 224.37895 
L 52.8344 223.939687 
L 50.6168 223.925338 
L 48.3992 224.329226 
L 46.1816 225.313749 
L 45.460457 225.8072 
L 43.964 226.951971 
L 42.945177 228.0248 
L 41.7464 229.93904 
L 41.561662 230.2424 
L 40.689191 232.46 
L 40.379712 234.6776 
L 40.525953 236.8952 
L 41.17795 239.1128 
L 41.7464 240.178196 
L 42.359341 241.3304 
L 43.964 243.173707 
L 44.402636 243.548 
L 46.1816 244.860868 
L 48.3992 245.73081 
L 48.601648 245.7656 
L 50.6168 246.221324 
" style="fill:none;stroke:#000000;stroke-width:1.5;"/>
    <path clip-path="url(#p484fc7f60e)" d="M 210.284 239.117465 
L 212.5016 239.793036 
L 214.7192 240.231762 
L 216.9368 240.461746 
L 219.1544 240.498592 
L 221.372 240.344917 
L 223.5896 239.990282 
L 225.8072 239.411556 
L 226.638038 239.1128 
L 228.0248 238.647178 
L 230.2424 237.637542 
L 231.515601 236.8952 
L 232.46 236.341116 
L 234.6776 234.701772 
L 234.706395 234.6776 
L 236.8952 232.673861 
L 237.101265 232.46 
L 238.977644 230.2424 
L 239.1128 230.053019 
L 240.498938 228.0248 
L 241.3304 226.454266 
L 241.675601 225.8072 
L 242.624891 223.5896 
L 243.297912 221.372 
L 243.548 220.155165 
L 243.777196 219.1544 
L 244.075017 216.9368 
L 244.165571 214.7192 
L 244.054299 212.5016 
L 243.734228 210.284 
L 243.548 209.50452 
L 243.239709 208.0664 
L 242.539913 205.8488 
L 241.556748 203.6312 
L 241.3304 203.216053 
L 240.355151 201.4136 
L 239.1128 199.628177 
L 238.798713 199.196 
L 236.8952 197.019442 
L 236.855419 196.9784 
L 234.6776 194.986508 
L 234.385801 194.7608 
L 232.46 193.357862 
L 231.045181 192.5432 
L 230.2424 192.084033 
L 228.0248 191.06533 
L 225.8072 190.337401 
L 225.757321 190.3256 
L 223.5896 189.759529 
L 221.372 189.407262 
L 219.1544 189.260522 
L 216.9368 189.309612 
L 214.7192 189.557624 
L 212.5016 190.020298 
L 211.504866 190.3256 
L 210.284 190.668689 
L 208.0664 191.532423 
L 206.14132 192.5432 
L 205.8488 192.694897 
L 203.6312 194.108547 
L 202.787534 194.7608 
L 201.4136 195.900393 
L 200.291746 196.9784 
L 199.196 198.175544 
L 198.340003 199.196 
L 196.9784 201.157636 
L 196.80642 201.4136 
L 195.545492 203.6312 
L 194.7608 205.490851 
L 194.602883 205.8488 
L 193.838439 208.0664 
L 193.321291 210.284 
L 193.017235 212.5016 
L 192.904711 214.7192 
L 192.975594 216.9368 
L 193.235478 219.1544 
L 193.70342 221.372 
L 194.411214 223.5896 
L 194.7608 224.419703 
L 195.320161 225.8072 
L 196.507451 228.0248 
L 196.9784 228.745906 
L 197.989218 230.2424 
L 199.196 231.710842 
L 199.868753 232.46 
L 201.4136 233.96714 
L 202.258921 234.6776 
L 203.6312 235.750331 
L 205.442324 236.8952 
L 205.8488 237.14728 
L 208.0664 238.289506 
L 210.272176 239.1128 
L 210.284 239.117465 
" style="fill:none;stroke:#000000;stroke-width:1.5;"/>
   </g>
   <g id="LineCollection_80">
    <path clip-path="url(#p484fc7f60e)" d="M 212.5016 233.294291 
L 214.7192 233.877282 
L 216.9368 234.174485 
L 219.1544 234.223165 
L 221.372 234.029757 
L 223.5896 233.569501 
L 225.8072 232.788008 
L 226.482059 232.46 
L 228.0248 231.735571 
L 230.23742 230.2424 
L 230.2424 230.238857 
L 232.46 228.281769 
L 232.706269 228.0248 
L 234.494782 225.8072 
L 234.6776 225.515749 
L 235.855666 223.5896 
L 236.781287 221.372 
L 236.8952 220.970117 
L 237.469365 219.1544 
L 237.867105 216.9368 
L 237.991455 214.7192 
L 237.856307 212.5016 
L 237.446337 210.284 
L 236.8952 208.570482 
L 236.749951 208.0664 
L 235.806727 205.8488 
L 234.6776 204.021249 
L 234.43055 203.6312 
L 232.607644 201.4136 
L 232.46 201.261032 
L 230.2424 199.298087 
L 230.097723 199.196 
L 228.0248 197.809188 
L 226.23734 196.9784 
L 225.8072 196.77162 
L 223.5896 195.987144 
L 221.372 195.525781 
L 219.1544 195.334212 
L 216.9368 195.388348 
L 214.7192 195.694973 
L 212.5016 196.291258 
L 210.848908 196.9784 
L 210.284 197.198145 
L 208.0664 198.402487 
L 206.96707 199.196 
L 205.8488 200.0649 
L 204.438499 201.4136 
L 203.6312 202.333775 
L 202.603491 203.6312 
L 201.4136 205.628213 
L 201.2835 205.8488 
L 200.255072 208.0664 
L 199.598405 210.284 
L 199.234314 212.5016 
L 199.196 213.189714 
L 199.09105 214.7192 
L 199.196 216.520961 
L 199.215673 216.9368 
L 199.558927 219.1544 
L 200.190318 221.372 
L 201.186768 223.5896 
L 201.4136 223.980852 
L 202.484391 225.8072 
L 203.6312 227.271458 
L 204.285463 228.0248 
L 205.8488 229.531898 
L 206.757217 230.2424 
L 208.0664 231.192924 
L 210.284 232.376504 
L 210.49838 232.46 
L 212.5016 233.294291 
" style="fill:none;stroke:#000000;stroke-width:1.5;"/>
   </g>
   <g id="LineCollection_81">
    <path clip-path="url(#p484fc7f60e)" d="M 216.9368 230.309765 
L 219.1544 230.382922 
L 220.262332 230.2424 
L 221.372 230.130724 
L 223.5896 229.589983 
L 225.8072 228.6138 
L 226.744532 228.0248 
L 228.0248 227.188559 
L 229.575909 225.8072 
L 230.2424 225.089143 
L 231.448156 223.5896 
L 232.46 221.783555 
L 232.69032 221.372 
L 233.58069 219.1544 
L 234.056004 216.9368 
L 234.202894 214.7192 
L 234.05092 212.5016 
L 233.569405 210.284 
L 232.670228 208.0664 
L 232.46 207.693207 
L 231.420725 205.8488 
L 230.2424 204.39053 
L 229.534551 203.6312 
L 228.0248 202.292843 
L 226.672336 201.4136 
L 225.8072 200.872881 
L 223.5896 199.894243 
L 221.372 199.351914 
L 219.802624 199.196 
L 219.1544 199.114919 
L 216.9368 199.191437 
L 216.912835 199.196 
L 214.7192 199.538165 
L 212.5016 200.249418 
L 210.353969 201.4136 
L 210.284 201.451144 
L 208.0664 203.090402 
L 207.498186 203.6312 
L 205.8488 205.575792 
L 205.641211 205.8488 
L 204.319583 208.0664 
L 203.6312 209.982907 
L 203.512293 210.284 
L 202.974844 212.5016 
L 202.801115 214.7192 
L 202.963442 216.9368 
L 203.487724 219.1544 
L 203.6312 219.522928 
L 204.286759 221.372 
L 205.588746 223.5896 
L 205.8488 223.934099 
L 207.428017 225.8072 
L 208.0664 226.417757 
L 210.247767 228.0248 
L 210.284 228.049696 
L 212.5016 229.249904 
L 214.7192 229.953017 
L 216.581854 230.2424 
L 216.9368 230.309765 
" style="fill:none;stroke:#000000;stroke-width:1.5;"/>
   </g>
   <g id="LineCollection_82">
    <path clip-path="url(#p484fc7f60e)" d="M 212.5016 226.417101 
L 214.7192 227.337152 
L 216.9368 227.76761 
L 219.1544 227.835744 
L 221.372 227.564074 
L 223.5896 226.867179 
L 225.462418 225.8072 
L 225.8072 225.611147 
L 228.0248 223.718393 
L 228.146829 223.5896 
L 229.825894 221.372 
L 230.2424 220.476719 
L 230.888343 219.1544 
L 231.498989 216.9368 
L 231.685664 214.7192 
L 231.497084 212.5016 
L 230.883807 210.284 
L 230.2424 208.974925 
L 229.81908 208.0664 
L 228.133384 205.8488 
L 228.0248 205.734553 
L 225.8072 203.841103 
L 225.437506 203.6312 
L 223.5896 202.587958 
L 221.372 201.890588 
L 219.1544 201.619274 
L 216.9368 201.689027 
L 214.7192 202.122631 
L 212.5016 203.047152 
L 211.581521 203.6312 
L 210.284 204.500467 
L 208.856938 205.8488 
L 208.0664 206.830925 
L 207.17798 208.0664 
L 206.151981 210.284 
L 205.8488 211.543678 
L 205.571757 212.5016 
L 205.35633 214.7192 
L 205.565976 216.9368 
L 205.8488 217.924115 
L 206.142567 219.1544 
L 207.160883 221.372 
L 208.0664 222.635755 
L 208.832657 223.5896 
L 210.284 224.963747 
L 211.542087 225.8072 
L 212.5016 226.417101 
" style="fill:none;stroke:#000000;stroke-width:1.5;"/>
   </g>
   <g id="LineCollection_83">
    <path clip-path="url(#p484fc7f60e)" d="M 216.9368 225.87894 
L 219.1544 225.985608 
L 220.135496 225.8072 
L 221.372 225.638549 
L 223.5896 224.846334 
L 225.436025 223.5896 
L 225.8072 223.308074 
L 227.623462 221.372 
L 228.0248 220.706307 
L 228.936091 219.1544 
L 229.631418 216.9368 
L 229.8359 214.7192 
L 229.631967 212.5016 
L 228.937233 210.284 
L 228.0248 208.730961 
L 227.624735 208.0664 
L 225.8072 206.129734 
L 225.437119 205.8488 
L 223.5896 204.592264 
L 221.372 203.800643 
L 220.126423 203.6312 
L 219.1544 203.454983 
L 216.9368 203.562836 
L 216.683158 203.6312 
L 214.7192 204.05441 
L 212.5016 205.136749 
L 211.564071 205.8488 
L 210.284 207.000031 
L 209.363951 208.0664 
L 208.144902 210.284 
L 208.0664 210.551654 
L 207.385542 212.5016 
L 207.145199 214.7192 
L 207.383987 216.9368 
L 208.0664 218.895664 
L 208.142288 219.1544 
L 209.359344 221.372 
L 210.284 222.445 
L 211.557404 223.5896 
L 212.5016 224.307122 
L 214.7192 225.387551 
L 216.67027 225.8072 
L 216.9368 225.87894 
" style="fill:none;stroke:#000000;stroke-width:1.5;"/>
   </g>
   <g id="LineCollection_84"/>
   <g id="LineCollection_85"/>
   <g id="LineCollection_86"/>
   <g id="LineCollection_87"/>
   <g id="LineCollection_88"/>
   <g id="LineCollection_89"/>
   <g id="LineCollection_90"/>
   <g id="LineCollection_91"/>
   <g id="LineCollection_92"/>
   <g id="LineCollection_93"/>
   <g id="LineCollection_94"/>
   <g id="LineCollection_95"/>
   <g id="LineCollection_96"/>
   <g id="LineCollection_97"/>
   <g id="LineCollection_98"/>
   <g id="LineCollection_99"/>
   <g id="LineCollection_100"/>
   <g id="LineCollection_101"/>
   <g id="LineCollection_102"/>
   <g id="LineCollection_103"/>
   <g id="LineCollection_104"/>
   <g id="LineCollection_105"/>
   <g id="LineCollection_106"/>
   <g id="LineCollection_107"/>
   <g id="LineCollection_108"/>
   <g id="LineCollection_109"/>
   <g id="LineCollection_110"/>
   <g id="LineCollection_111"/>
   <g id="LineCollection_112"/>
   <g id="LineCollection_113"/>
   <g id="LineCollection_114"/>
   <g id="LineCollection_115"/>
   <g id="LineCollection_116"/>
   <g id="LineCollection_117"/>
   <g id="LineCollection_118"/>
   <g id="LineCollection_119"/>
   <g id="LineCollection_120"/>
   <g id="LineCollection_121"/>
   <g id="LineCollection_122"/>
   <g id="LineCollection_123"/>
   <g id="LineCollection_124"/>
   <g id="LineCollection_125"/>
   <g id="LineCollection_126"/>
   <g id="LineCollection_127"/>
   <g id="LineCollection_128"/>
   <g id="LineCollection_129"/>
   <g id="LineCollection_130"/>
   <g id="LineCollection_131"/>
   <g id="LineCollection_132"/>
   <g id="LineCollection_133"/>
   <g id="LineCollection_134"/>
   <g id="LineCollection_135"/>
   <g id="LineCollection_136"/>
   <g id="LineCollection_137"/>
   <g id="LineCollection_138"/>
   <g id="LineCollection_139"/>
   <g id="LineCollection_140"/>
   <g id="LineCollection_141"/>
   <g id="LineCollection_142"/>
   <g id="LineCollection_143"/>
   <g id="LineCollection_144"/>
   <g id="LineCollection_145"/>
   <g id="LineCollection_146"/>
   <g id="LineCollection_147"/>
   <g id="LineCollection_148"/>
   <g id="LineCollection_149"/>
   <g id="LineCollection_150"/>
   <g id="LineCollection_151"/>
   <g id="LineCollection_152"/>
   <g id="LineCollection_153"/>
   <g id="LineCollection_154"/>
   <g id="LineCollection_155"/>
   <g id="LineCollection_156"/>
   <g id="LineCollection_157"/>
   <g id="LineCollection_158"/>
   <g id="LineCollection_159"/>
   <g id="LineCollection_160"/>
   <g id="LineCollection_161"/>
   <g id="LineCollection_162"/>
   <g id="LineCollection_163"/>
   <g id="LineCollection_164"/>
   <g id="LineCollection_165"/>
   <g id="LineCollection_166"/>
   <g id="LineCollection_167"/>
   <g id="LineCollection_168"/>
   <g id="LineCollection_169"/>
   <g id="LineCollection_170"/>
   <g id="LineCollection_171"/>
   <g id="LineCollection_172"/>
   <g id="LineCollection_173"/>
   <g id="LineCollection_174"/>
   <g id="LineCollection_175"/>
   <g id="LineCollection_176"/>
   <g id="LineCollection_177"/>
   <g id="LineCollection_178"/>
   <g id="LineCollection_179"/>
   <g id="LineCollection_180"/>
   <g id="LineCollection_181"/>
   <g id="LineCollection_182"/>
   <g id="LineCollection_183"/>
   <g id="LineCollection_184"/>
   <g id="LineCollection_185"/>
   <g id="LineCollection_186"/>
   <g id="LineCollection_187"/>
   <g id="LineCollection_188"/>
   <g id="LineCollection_189"/>
   <g id="LineCollection_190"/>
   <g id="LineCollection_191"/>
   <g id="LineCollection_192"/>
   <g id="LineCollection_193"/>
   <g id="LineCollection_194"/>
   <g id="LineCollection_195"/>
   <g id="LineCollection_196"/>
   <g id="LineCollection_197"/>
   <g id="LineCollection_198"/>
   <g id="patch_3">
    <path clip-path="url(#p484fc7f60e)" d="M 218.501667 220.248924 
C 219.971953 220.248924 221.382218 219.664773 222.421867 218.625124 
C 223.461516 217.585475 224.045667 216.17521 224.045667 214.704924 
C 224.045667 213.234638 223.461516 211.824373 222.421867 210.784724 
C 221.382218 209.745075 219.971953 209.160924 218.501667 209.160924 
C 217.031381 209.160924 215.621116 209.745075 214.581467 210.784724 
C 213.541818 211.824373 212.957667 213.234638 212.957667 214.704924 
C 212.957667 216.17521 213.541818 217.585475 214.581467 218.625124 
C 215.621116 219.664773 217.031381 220.248924 218.501667 220.248924 
z
" style="fill:#dc5050;stroke:#000000;stroke-linejoin:miter;"/>
   </g>
   <g id="patch_4">
    <path clip-path="url(#p484fc7f60e)" d="M 51.529312 240.44222 
C 52.999598 240.44222 54.409863 239.858069 55.449512 238.81842 
C 56.489162 237.778771 57.073312 236.368506 57.073312 234.89822 
C 57.073312 233.427934 56.489162 232.017669 55.449512 230.97802 
C 54.409863 229.938371 52.999598 229.35422 51.529312 229.35422 
C 50.059026 229.35422 48.648762 229.938371 47.609112 230.97802 
C 46.569463 232.017669 45.985312 233.427934 45.985312 234.89822 
C 45.985312 236.368506 46.569463 237.778771 47.609112 238.81842 
C 48.648762 239.858069 50.059026 240.44222 51.529312 240.44222 
z
" style="fill:#dc5050;stroke:#000000;stroke-linejoin:miter;"/>
   </g>
   <g id="patch_5">
    <path clip-path="url(#p484fc7f60e)" d="M 48.045264 130.001633 
C 49.51555 130.001633 50.925815 129.417482 51.965464 128.377833 
C 53.005113 127.338184 53.589264 125.927919 53.589264 124.457633 
C 53.589264 122.987347 53.005113 121.577082 51.965464 120.537433 
C 50.925815 119.497784 49.51555 118.913633 48.045264 118.913633 
C 46.574978 118.913633 45.164713 119.497784 44.125064 120.537433 
C 43.085415 121.577082 42.501264 122.987347 42.501264 124.457633 
C 42.501264 125.927919 43.085415 127.338184 44.125064 128.377833 
C 45.164713 129.417482 46.574978 130.001633 48.045264 130.001633 
z
" style="fill:#5092dc;stroke:#000000;stroke-linejoin:miter;"/>
   </g>
   <g id="matplotlib.axis_1"/>
   <g id="matplotlib.axis_2"/>
   <g id="patch_6">
    <path d="M 10.7 276.812 
L 10.7 10.7 
" style="fill:none;stroke:#000000;stroke-linecap:square;stroke-linejoin:miter;stroke-width:0.8;"/>
   </g>
   <g id="patch_7">
    <path d="M 276.812 276.812 
L 276.812 10.7 
" style="fill:none;stroke:#000000;stroke-linecap:square;stroke-linejoin:miter;stroke-width:0.8;"/>
   </g>
   <g id="patch_8">
    <path d="M 10.7 276.812 
L 276.812 276.812 
" style="fill:none;stroke:#000000;stroke-linecap:square;stroke-linejoin:miter;stroke-width:0.8;"/>
   </g>
   <g id="patch_9">
    <path d="M 10.7 10.7 
L 276.812 10.7 
" style="fill:none;stroke:#000000;stroke-linecap:square;stroke-linejoin:miter;stroke-width:0.8;"/>
   </g>
   <g id="text_1">
    <!-- $+$ -->
    <defs>
     <path d="M 37.703125 23 
L 64.203125 23 
C 65.59375 23 67.296875 23 67.296875 24.6875 
C 67.296875 26.484375 65.703125 26.484375 64.203125 26.484375 
L 37.703125 26.484375 
L 37.703125 52.90625 
C 37.703125 54.296875 37.703125 56 36 56 
C 34.203125 56 34.203125 54.40625 34.203125 52.90625 
L 34.203125 26.484375 
L 7.703125 26.484375 
C 6.296875 26.484375 4.59375 26.484375 4.59375 24.796875 
C 4.59375 23 6.203125 23 7.703125 23 
L 34.203125 23 
L 34.203125 -3.40625 
C 34.203125 -4.796875 34.203125 -6.5 35.90625 -6.5 
C 37.703125 -6.5 37.703125 -4.90625 37.703125 -3.40625 
z
" id="CMR17-43"/>
    </defs>
    <g transform="translate(213.19062 218.191848)scale(0.14 -0.14)">
     <use transform="scale(0.996264)" xlink:href="#CMR17-43"/>
    </g>
   </g>
   <g id="text_2">
    <!-- $+$ -->
    <g transform="translate(46.218266 238.385144)scale(0.14 -0.14)">
     <use transform="scale(0.996264)" xlink:href="#CMR17-43"/>
    </g>
   </g>
   <g id="text_3">
    <!-- $-$ -->
    <defs>
     <path d="M 65.90625 23 
C 67.59375 23 69.40625 23 69.40625 25 
C 69.40625 27 67.59375 27 65.90625 27 
L 11.796875 27 
C 10.09375 27 8.296875 27 8.296875 25 
C 8.296875 23 10.09375 23 11.796875 23 
z
" id="CMSY10-0"/>
    </defs>
    <g transform="translate(42.621147 127.944557)scale(0.14 -0.14)">
     <use transform="scale(0.996264)" xlink:href="#CMSY10-0"/>
    </g>
   </g>
  </g>
 </g>
 <defs>
  <clipPath id="p484fc7f60e">
   <rect height="266.112" width="266.112" x="10.7" y="10.7"/>
  </clipPath>
 </defs>
</svg>
