<?xml version="1.0" encoding="utf-8" standalone="no"?>
<!DOCTYPE svg PUBLIC "-//W3C//DTD SVG 1.1//EN"
  "http://www.w3.org/Graphics/SVG/1.1/DTD/svg11.dtd">
<!-- Created with matplotlib (http://matplotlib.org/) -->
<svg height="313pt" version="1.1" viewBox="0 0 413 313" width="413pt" xmlns="http://www.w3.org/2000/svg" xmlns:xlink="http://www.w3.org/1999/xlink">
 <defs>
  <style type="text/css">
*{stroke-linecap:butt;stroke-linejoin:round;}
  </style>
 </defs>
 <g id="figure_1">
  <g id="patch_1">
   <path d="M 0 313.830317 
L 413.694054 313.830317 
L 413.694054 0 
L 0 0 
z
" style="fill:#ffffff;"/>
  </g>
  <g id="axes_1">
   <g id="patch_2">
    <path d="M 45.874054 123.939149 
L 197.840012 123.939149 
L 197.840012 10.7 
L 45.874054 10.7 
z
" style="fill:#ffffff;"/>
   </g>
   <g id="matplotlib.axis_1">
    <g id="xtick_1">
     <g id="line2d_1">
      <path clip-path="url(#pbea6d78aba)" d="M 61.07065 123.939149 
L 61.07065 10.7 
" style="fill:none;stroke:#b0b0b0;stroke-linecap:square;stroke-width:0.8;"/>
     </g>
     <g id="line2d_2">
      <defs>
       <path d="M 0 0 
L 0 3.5 
" id="mdaf538c9f8" style="stroke:#000000;stroke-width:0.8;"/>
      </defs>
      <g>
       <use style="stroke:#000000;stroke-width:0.8;" x="61.07065" xlink:href="#mdaf538c9f8" y="123.939149"/>
      </g>
     </g>
     <g id="text_1">
      <!-- $-4$ -->
      <defs>
       <path d="M 65.90625 23 
C 67.59375 23 69.40625 23 69.40625 25 
C 69.40625 27 67.59375 27 65.90625 27 
L 11.796875 27 
C 10.09375 27 8.296875 27 8.296875 25 
C 8.296875 23 10.09375 23 11.796875 23 
z
" id="CMSY10-0"/>
       <path d="M 33.59375 64.40625 
C 33.59375 66.5 33.5 66.5 31.703125 66.5 
L 2 19.59375 
L 2 17 
L 27.796875 17 
L 27.796875 7.140625 
C 27.796875 3.5 27.59375 2.5 20.59375 2.5 
L 18.703125 2.5 
L 18.703125 0 
C 21.90625 0 27.296875 0 30.703125 0 
C 34.09375 0 39.5 0 42.703125 0 
L 42.703125 2.5 
L 40.796875 2.5 
C 33.796875 2.5 33.59375 3.5 33.59375 7.140625 
L 33.59375 17 
L 43.796875 17 
L 43.796875 19.59375 
L 33.59375 19.59375 
z
M 28.09375 57.859375 
L 28.09375 19.59375 
L 4 19.59375 
z
" id="CMR17-52"/>
      </defs>
      <g transform="translate(54.705611 137.857647)scale(0.1 -0.1)">
       <use transform="scale(0.996264)" xlink:href="#CMSY10-0"/>
       <use transform="translate(77.487468 0)scale(0.996264)" xlink:href="#CMR17-52"/>
      </g>
     </g>
    </g>
    <g id="xtick_2">
     <g id="line2d_3">
      <path clip-path="url(#pbea6d78aba)" d="M 91.463842 123.939149 
L 91.463842 10.7 
" style="fill:none;stroke:#b0b0b0;stroke-linecap:square;stroke-width:0.8;"/>
     </g>
     <g id="line2d_4">
      <g>
       <use style="stroke:#000000;stroke-width:0.8;" x="91.463842" xlink:href="#mdaf538c9f8" y="123.939149"/>
      </g>
     </g>
     <g id="text_2">
      <!-- $-2$ -->
      <defs>
       <path d="M 41.703125 15.453125 
L 39.90625 15.453125 
C 38.90625 8.375 38.09375 7.171875 37.703125 6.5625 
C 37.203125 5.765625 30 5.765625 28.59375 5.765625 
L 9.40625 5.765625 
C 13 9.671875 20 16.75 28.5 24.953125 
C 34.59375 30.734375 41.703125 37.53125 41.703125 47.421875 
C 41.703125 59.21875 32.296875 66 21.796875 66 
C 10.796875 66 4.09375 56.3125 4.09375 47.34375 
C 4.09375 43.4375 7 42.9375 8.203125 42.9375 
C 9.203125 42.9375 12.203125 43.546875 12.203125 47.03125 
C 12.203125 50.109375 9.59375 51 8.203125 51 
C 7.59375 51 7 50.90625 6.59375 50.703125 
C 8.5 59.21875 14.296875 63.40625 20.40625 63.40625 
C 29.09375 63.40625 34.796875 56.515625 34.796875 47.421875 
C 34.796875 38.734375 29.703125 31.25 24 24.75 
L 4.09375 2.28125 
L 4.09375 0 
L 39.296875 0 
z
" id="CMR17-50"/>
      </defs>
      <g transform="translate(85.098802 137.857647)scale(0.1 -0.1)">
       <use transform="scale(0.996264)" xlink:href="#CMSY10-0"/>
       <use transform="translate(77.487468 0)scale(0.996264)" xlink:href="#CMR17-50"/>
      </g>
     </g>
    </g>
    <g id="xtick_3">
     <g id="line2d_5">
      <path clip-path="url(#pbea6d78aba)" d="M 121.857033 123.939149 
L 121.857033 10.7 
" style="fill:none;stroke:#b0b0b0;stroke-linecap:square;stroke-width:0.8;"/>
     </g>
     <g id="line2d_6">
      <g>
       <use style="stroke:#000000;stroke-width:0.8;" x="121.857033" xlink:href="#mdaf538c9f8" y="123.939149"/>
      </g>
     </g>
     <g id="text_3">
      <!-- $0$ -->
      <defs>
       <path d="M 42 31.640625 
C 42 37.75 41.90625 48.125 37.703125 56.109375 
C 34 63.109375 28.09375 65.59375 22.90625 65.59375 
C 18.09375 65.59375 12 63.40625 8.203125 56.203125 
C 4.203125 48.71875 3.796875 39.4375 3.796875 31.640625 
C 3.796875 25.953125 3.90625 17.28125 7 9.671875 
C 11.296875 -0.609375 19 -2 22.90625 -2 
C 27.5 -2 34.5 -0.109375 38.59375 9.375 
C 41.59375 16.28125 42 24.359375 42 31.640625 
z
M 22.90625 -0.40625 
C 16.5 -0.40625 12.703125 5.078125 11.296875 12.6875 
C 10.203125 18.5625 10.203125 27.15625 10.203125 32.75 
C 10.203125 40.4375 10.203125 46.828125 11.5 52.921875 
C 13.40625 61.390625 19 64 22.90625 64 
C 27 64 32.296875 61.296875 34.203125 53.125 
C 35.5 47.4375 35.59375 40.734375 35.59375 32.75 
C 35.59375 26.25 35.59375 18.265625 34.40625 12.375 
C 32.296875 1.484375 26.40625 -0.40625 22.90625 -0.40625 
z
" id="CMR17-48"/>
      </defs>
      <g transform="translate(119.366365 137.857647)scale(0.1 -0.1)">
       <use transform="scale(0.996264)" xlink:href="#CMR17-48"/>
      </g>
     </g>
    </g>
    <g id="xtick_4">
     <g id="line2d_7">
      <path clip-path="url(#pbea6d78aba)" d="M 152.250225 123.939149 
L 152.250225 10.7 
" style="fill:none;stroke:#b0b0b0;stroke-linecap:square;stroke-width:0.8;"/>
     </g>
     <g id="line2d_8">
      <g>
       <use style="stroke:#000000;stroke-width:0.8;" x="152.250225" xlink:href="#mdaf538c9f8" y="123.939149"/>
      </g>
     </g>
     <g id="text_4">
      <!-- $2$ -->
      <g transform="translate(149.759557 137.857647)scale(0.1 -0.1)">
       <use transform="scale(0.996264)" xlink:href="#CMR17-50"/>
      </g>
     </g>
    </g>
    <g id="xtick_5">
     <g id="line2d_9">
      <path clip-path="url(#pbea6d78aba)" d="M 182.643416 123.939149 
L 182.643416 10.7 
" style="fill:none;stroke:#b0b0b0;stroke-linecap:square;stroke-width:0.8;"/>
     </g>
     <g id="line2d_10">
      <g>
       <use style="stroke:#000000;stroke-width:0.8;" x="182.643416" xlink:href="#mdaf538c9f8" y="123.939149"/>
      </g>
     </g>
     <g id="text_5">
      <!-- $4$ -->
      <g transform="translate(180.152748 137.857647)scale(0.1 -0.1)">
       <use transform="scale(0.996264)" xlink:href="#CMR17-52"/>
      </g>
     </g>
    </g>
    <g id="text_6">
     <!-- Position (m) -->
     <defs>
      <path d="M 32.90625 29 
C 44.90625 29 54.703125 38.328125 54.703125 49.34375 
C 54.703125 60.15625 45.296875 69.578125 32.296875 69.578125 
L 8.90625 69.578125 
L 8.90625 0 
L 17.296875 0 
L 17.296875 29 
z
M 30.09375 64 
C 41.703125 64 46.796875 56.671875 46.796875 49.328125 
C 46.796875 42.5 42.09375 34.78125 30.09375 34.78125 
L 17.09375 34.78125 
L 17.09375 64 
z
" id="CMSS17-80"/>
      <path d="M 44.203125 21.1875 
C 44.203125 34 34.703125 44 23.5 44 
C 12 44 2.703125 33.703125 2.703125 21.1875 
C 2.703125 8.5 12.296875 -1 23.40625 -1 
C 34.796875 -1 44.203125 8.796875 44.203125 21.1875 
z
M 23.5 5.265625 
C 16.40625 5.265625 10.296875 11.078125 10.296875 22 
C 10.296875 33.609375 17.40625 37.921875 23.40625 37.921875 
C 29.90625 37.921875 36.59375 33.21875 36.59375 22 
C 36.59375 10.671875 30.09375 5.265625 23.5 5.265625 
z
" id="CMSS17-111"/>
      <path d="M 32.203125 41.046875 
C 26.296875 43.859375 21.703125 43.859375 18.703125 43.859375 
C 11.59375 43.859375 3.09375 41.375 3.09375 31.296875 
C 3.09375 21.234375 14.09375 19.03125 17.09375 18.421875 
C 21.703125 17.53125 26.796875 16.53125 26.796875 11.5625 
C 26.796875 5.265625 19.59375 5.265625 18.296875 5.265625 
C 14.296875 5.265625 8.796875 6.359375 3.796875 9.96875 
L 2.59375 3.28125 
C 8.296875 0 13.796875 -1 18.40625 -1 
C 30.703125 -1 33.796875 6.5 33.796875 12.203125 
C 33.796875 17.09375 31 20.390625 29.09375 21.890625 
C 25.796875 24.5 24.59375 24.796875 16.40625 26.5 
C 15 26.703125 10.09375 27.796875 10.09375 32.28125 
C 10.09375 38 16.40625 38 17.796875 38 
C 24.296875 38 28.296875 35.984375 31 34.5 
z
" id="CMSS17-115"/>
      <path d="M 15.296875 65.359375 
L 6.90625 65.359375 
L 6.90625 57 
L 15.296875 57 
z
M 14.796875 42.796875 
L 7.40625 42.796875 
L 7.40625 0 
L 14.796875 0 
z
" id="CMSS17-105"/>
      <path d="M 16.703125 37 
L 29.703125 37 
L 29.703125 42.765625 
L 16.703125 42.765625 
L 16.703125 55 
L 9.59375 55 
L 9.59375 42.765625 
L 1.703125 42.765625 
L 1.703125 37 
L 9.40625 37 
L 9.40625 11.703125 
C 9.40625 6 10.703125 -1 17.296875 -1 
C 22.296875 -1 26.90625 0.390625 31.296875 2.6875 
L 29.703125 8.5625 
C 27.296875 6.46875 24.40625 5.265625 21.296875 5.265625 
C 16.90625 5.265625 16.703125 10.875 16.703125 13.375 
z
" id="CMSS17-116"/>
      <path d="M 40.90625 29.328125 
C 40.90625 35.671875 39.40625 44 28.09375 44 
C 21.703125 44 17.5 40.71875 14.703125 37.328125 
L 14.703125 43.09375 
L 7.40625 43.09375 
L 7.40625 0 
L 15 0 
L 15 24.359375 
C 15 30.6875 17.40625 37.9375 24.203125 37.9375 
C 33 37.9375 33.296875 32 33.296875 28.578125 
L 33.296875 0 
L 40.90625 0 
z
" id="CMSS17-110"/>
      <path d="M 25.203125 74.5 
C 19.796875 69.015625 7.40625 56.265625 7.40625 24.8125 
C 7.40625 -6.765625 19.796875 -19.421875 25.203125 -25 
L 31.296875 -25 
C 19 -12.25 15 5.578125 15 24.703125 
C 15 43.71875 18.796875 61.65625 31.296875 74.5 
z
" id="CMSS17-40"/>
      <path d="M 67 29.328125 
C 67 36.0625 65.296875 44 54.09375 44 
C 46.59375 44 42.09375 39.3125 40.09375 36.421875 
C 38.296875 41.71875 34.09375 44 28.09375 44 
C 21.296875 44 17 40.125 14.703125 37.328125 
L 14.703125 43.09375 
L 7.40625 43.09375 
L 7.40625 0 
L 15 0 
L 15 24.359375 
C 15 30.296875 17.203125 37.9375 24.296875 37.9375 
C 33.40625 37.9375 33.40625 31.5 33.40625 28.578125 
L 33.40625 0 
L 41 0 
L 41 24.359375 
C 41 30.296875 43.203125 37.9375 50.296875 37.9375 
C 59.40625 37.9375 59.40625 31.5 59.40625 28.578125 
L 59.40625 0 
L 67 0 
z
" id="CMSS17-109"/>
      <path d="M 11.296875 -25 
C 16.703125 -19.515625 29.09375 -6.765625 29.09375 24.703125 
C 29.09375 56.265625 16.703125 68.921875 11.296875 74.5 
L 5.203125 74.5 
C 17.5 61.75 21.5 43.921875 21.5 24.8125 
C 21.5 5.78125 17.703125 -12.15625 5.203125 -25 
z
" id="CMSS17-41"/>
     </defs>
     <g transform="translate(95.677398 151.266806)scale(0.1 -0.1)">
      <use transform="scale(0.996264)" xlink:href="#CMSS17-80"/>
      <use transform="translate(57.133132 0)scale(0.996264)" xlink:href="#CMSS17-111"/>
      <use transform="translate(103.976756 0)scale(0.996264)" xlink:href="#CMSS17-115"/>
      <use transform="translate(139.890298 0)scale(0.996264)" xlink:href="#CMSS17-105"/>
      <use transform="translate(162.071021 0)scale(0.996264)" xlink:href="#CMSS17-116"/>
      <use transform="translate(195.902588 0)scale(0.996264)" xlink:href="#CMSS17-105"/>
      <use transform="translate(218.083311 0)scale(0.996264)" xlink:href="#CMSS17-111"/>
      <use transform="translate(264.926934 0)scale(0.996264)" xlink:href="#CMSS17-110"/>
      <use transform="translate(344.36099 0)scale(0.996264)" xlink:href="#CMSS17-40"/>
      <use transform="translate(380.794904 0)scale(0.996264)" xlink:href="#CMSS17-109"/>
      <use transform="translate(455.024159 0)scale(0.996264)" xlink:href="#CMSS17-41"/>
     </g>
    </g>
   </g>
   <g id="matplotlib.axis_2">
    <g id="ytick_1">
     <g id="line2d_11">
      <path clip-path="url(#pbea6d78aba)" d="M 45.874054 123.939149 
L 197.840012 123.939149 
" style="fill:none;stroke:#b0b0b0;stroke-linecap:square;stroke-width:0.8;"/>
     </g>
     <g id="line2d_12">
      <defs>
       <path d="M 0 0 
L -3.5 0 
" id="m1e08a046a9" style="stroke:#000000;stroke-width:0.8;"/>
      </defs>
      <g>
       <use style="stroke:#000000;stroke-width:0.8;" x="45.874054" xlink:href="#m1e08a046a9" y="123.939149"/>
      </g>
     </g>
     <g id="text_7">
      <!-- $-10$ -->
      <defs>
       <path d="M 26.59375 63.40625 
C 26.59375 65.5 26.5 65.5 25.09375 65.5 
C 21.203125 61.1875 15.296875 59.796875 9.703125 59.796875 
C 9.40625 59.796875 8.90625 59.796875 8.796875 59.5 
C 8.703125 59.296875 8.703125 59.09375 8.703125 57 
C 11.796875 57 17 57.59375 21 59.984375 
L 21 7.203125 
C 21 3.6875 20.796875 2.5 12.203125 2.5 
L 9.203125 2.5 
L 9.203125 0 
C 14 0 19 0 23.796875 0 
C 28.59375 0 33.59375 0 38.40625 0 
L 38.40625 2.5 
L 35.40625 2.5 
C 26.796875 2.5 26.59375 3.59375 26.59375 7.15625 
z
" id="CMR17-49"/>
      </defs>
      <g transform="translate(21.16264 127.398398)scale(0.1 -0.1)">
       <use transform="scale(0.996264)" xlink:href="#CMSY10-0"/>
       <use transform="translate(77.487468 0)scale(0.996264)" xlink:href="#CMR17-49"/>
       <use transform="translate(123.177945 0)scale(0.996264)" xlink:href="#CMR17-48"/>
      </g>
     </g>
    </g>
    <g id="ytick_2">
     <g id="line2d_13">
      <path clip-path="url(#pbea6d78aba)" d="M 45.874054 95.629362 
L 197.840012 95.629362 
" style="fill:none;stroke:#b0b0b0;stroke-linecap:square;stroke-width:0.8;"/>
     </g>
     <g id="line2d_14">
      <g>
       <use style="stroke:#000000;stroke-width:0.8;" x="45.874054" xlink:href="#m1e08a046a9" y="95.629362"/>
      </g>
     </g>
     <g id="text_8">
      <!-- $-5$ -->
      <defs>
       <path d="M 11.40625 57.6875 
C 12.40625 57.28125 16.5 56 20.703125 56 
C 30 56 35.09375 61.109375 38 64.0625 
C 38 64.953125 38 65.5 37.40625 65.5 
C 37.296875 65.5 37.09375 65.5 36.296875 65.046875 
C 32.796875 63.40625 28.703125 62.078125 23.703125 62.078125 
C 20.703125 62.078125 16.203125 62.484375 11.296875 64.671875 
C 10.203125 65.171875 10 65.171875 9.90625 65.171875 
C 9.40625 65.171875 9.296875 65.0625 9.296875 63.078125 
L 9.296875 34.421875 
C 9.296875 32.640625 9.296875 32.140625 10.296875 32.140625 
C 10.796875 32.140625 11 32.34375 11.5 33.03125 
C 14.703125 37.515625 19.09375 39.40625 24.09375 39.40625 
C 27.59375 39.40625 35.09375 37.21875 35.09375 20.140625 
C 35.09375 16.953125 35.09375 11.171875 32.09375 6.578125 
C 29.59375 2.484375 25.703125 0.390625 21.40625 0.390625 
C 14.796875 0.390625 8.09375 5 6.296875 12.71875 
C 6.703125 12.609375 7.5 12.421875 7.90625 12.421875 
C 9.203125 12.421875 11.703125 13.125 11.703125 16.21875 
C 11.703125 18.90625 9.796875 20 7.90625 20 
C 5.59375 20 4.09375 18.59375 4.09375 15.796875 
C 4.09375 7.09375 11 -2 21.59375 -2 
C 31.90625 -2 41.703125 6.875 41.703125 19.75 
C 41.703125 31.71875 33.90625 41 24.203125 41 
C 19.09375 41 14.796875 39.109375 11.40625 35.53125 
z
" id="CMR17-53"/>
      </defs>
      <g transform="translate(26.143975 99.088611)scale(0.1 -0.1)">
       <use transform="scale(0.996264)" xlink:href="#CMSY10-0"/>
       <use transform="translate(77.487468 0)scale(0.996264)" xlink:href="#CMR17-53"/>
      </g>
     </g>
    </g>
    <g id="ytick_3">
     <g id="line2d_15">
      <path clip-path="url(#pbea6d78aba)" d="M 45.874054 67.319574 
L 197.840012 67.319574 
" style="fill:none;stroke:#b0b0b0;stroke-linecap:square;stroke-width:0.8;"/>
     </g>
     <g id="line2d_16">
      <g>
       <use style="stroke:#000000;stroke-width:0.8;" x="45.874054" xlink:href="#m1e08a046a9" y="67.319574"/>
      </g>
     </g>
     <g id="text_9">
      <!-- $0$ -->
      <g transform="translate(33.892719 70.778824)scale(0.1 -0.1)">
       <use transform="scale(0.996264)" xlink:href="#CMR17-48"/>
      </g>
     </g>
    </g>
    <g id="ytick_4">
     <g id="line2d_17">
      <path clip-path="url(#pbea6d78aba)" d="M 45.874054 39.009787 
L 197.840012 39.009787 
" style="fill:none;stroke:#b0b0b0;stroke-linecap:square;stroke-width:0.8;"/>
     </g>
     <g id="line2d_18">
      <g>
       <use style="stroke:#000000;stroke-width:0.8;" x="45.874054" xlink:href="#m1e08a046a9" y="39.009787"/>
      </g>
     </g>
     <g id="text_10">
      <!-- $5$ -->
      <g transform="translate(33.892719 42.469036)scale(0.1 -0.1)">
       <use transform="scale(0.996264)" xlink:href="#CMR17-53"/>
      </g>
     </g>
    </g>
    <g id="ytick_5">
     <g id="line2d_19">
      <path clip-path="url(#pbea6d78aba)" d="M 45.874054 10.7 
L 197.840012 10.7 
" style="fill:none;stroke:#b0b0b0;stroke-linecap:square;stroke-width:0.8;"/>
     </g>
     <g id="line2d_20">
      <g>
       <use style="stroke:#000000;stroke-width:0.8;" x="45.874054" xlink:href="#m1e08a046a9" y="10.7"/>
      </g>
     </g>
     <g id="text_11">
      <!-- $10$ -->
      <g transform="translate(28.911384 14.159249)scale(0.1 -0.1)">
       <use transform="scale(0.996264)" xlink:href="#CMR17-49"/>
       <use transform="translate(45.690477 0)scale(0.996264)" xlink:href="#CMR17-48"/>
      </g>
     </g>
    </g>
    <g id="text_12">
     <!-- Potential (V) -->
     <defs>
      <path d="M 39.09375 21.515625 
C 39.09375 24.84375 38.90625 31.296875 35.703125 36.640625 
C 32.203125 42.390625 26.5 44 22.203125 44 
C 11.796875 44 3 34.1875 3 21.484375 
C 3 9.09375 12.09375 -1 23.59375 -1 
C 28.09375 -1 33.59375 0.296875 38.59375 3.875 
C 38.59375 4.28125 38.40625 6.46875 38.296875 6.5625 
C 38.296875 6.765625 38 9.84375 38 10.25 
C 33.203125 6.359375 27.703125 5.078125 23.703125 5.078125 
C 17.296875 5.078125 10.40625 10.421875 10.09375 21.515625 
z
M 10.90625 27 
C 12.203125 32.5625 16.59375 37.828125 22.203125 37.828125 
C 23.703125 37.828125 30.703125 37.828125 32.5 27 
z
" id="CMSS17-101"/>
      <path d="M 37.59375 27.984375 
C 37.59375 37.375 30.90625 43.875 21.90625 43.875 
C 17.5 43.875 12.703125 43.078125 7.203125 39.890625 
L 7.796875 33.359375 
C 10.296875 35.125 14.59375 38 21.796875 38 
C 26.90625 38 30 34.0625 30 27.84375 
L 30 24 
C 14 24 4 19.34375 4 11.34375 
C 4 7.203125 6.5 -1 14.796875 -1 
C 16.296875 -1 24.40625 -1 30.203125 3.390625 
L 30.203125 -0.296875 
L 37.59375 -0.296875 
z
M 30 12.75 
C 30 10.953125 30 8.5625 27 6.78125 
C 24.40625 5.078125 21.09375 5.078125 19.703125 5.078125 
C 14.703125 5.078125 11.296875 7.984375 11.296875 11.625 
C 11.296875 18.921875 26.90625 18.921875 30 18.921875 
z
" id="CMSS17-97"/>
      <path d="M 14.796875 69 
L 7.40625 69 
L 7.40625 0 
L 14.796875 0 
z
" id="CMSS17-108"/>
      <path d="M 61.09375 69 
L 53.296875 69 
L 36 21.28125 
C 35.5 19.890625 32.40625 10.75 31.796875 7.5625 
L 31.703125 7.5625 
C 30.90625 11.34375 27.703125 20.1875 26 25.0625 
L 14.40625 57.375 
L 10.09375 69 
L 1.296875 69 
L 26.796875 0 
L 35.59375 0 
z
" id="CMSS17-86"/>
     </defs>
     <g transform="translate(14.67198 94.869081)rotate(-90)scale(0.1 -0.1)">
      <use transform="scale(0.996264)" xlink:href="#CMSS17-80"/>
      <use transform="translate(57.133132 0)scale(0.996264)" xlink:href="#CMSS17-111"/>
      <use transform="translate(103.976756 0)scale(0.996264)" xlink:href="#CMSS17-116"/>
      <use transform="translate(137.808323 0)scale(0.996264)" xlink:href="#CMSS17-101"/>
      <use transform="translate(179.447145 0)scale(0.996264)" xlink:href="#CMSS17-110"/>
      <use transform="translate(227.652088 0)scale(0.996264)" xlink:href="#CMSS17-116"/>
      <use transform="translate(261.483654 0)scale(0.996264)" xlink:href="#CMSS17-105"/>
      <use transform="translate(283.664377 0)scale(0.996264)" xlink:href="#CMSS17-97"/>
      <use transform="translate(328.586298 0)scale(0.996264)" xlink:href="#CMSS17-108"/>
      <use transform="translate(381.996134 0)scale(0.996264)" xlink:href="#CMSS17-40"/>
      <use transform="translate(418.430048 0)scale(0.996264)" xlink:href="#CMSS17-86"/>
      <use transform="translate(480.647903 0)scale(0.996264)" xlink:href="#CMSS17-41"/>
     </g>
    </g>
   </g>
   <g id="line2d_21">
    <path clip-path="url(#pbea6d78aba)" d="M 45.874054 64.623404 
L 55.305375 64.05244 
L 62.150688 63.429317 
L 67.322703 62.742303 
L 71.125655 62.028365 
L 74.168016 61.242873 
L 76.601906 60.39272 
L 78.579441 59.473607 
L 80.252739 58.449742 
L 81.621802 57.358991 
L 82.838747 56.104145 
L 83.903573 54.679785 
L 84.816282 53.100154 
L 85.72899 51.022679 
L 86.48958 48.713616 
L 87.250171 45.576006 
L 87.858643 42.117111 
L 88.467115 37.258429 
L 88.92347 32.090835 
L 89.379824 24.664177 
L 89.836178 13.078424 
L 90.17498 -1 
M 92.752884 -1 
L 93.182776 15.80718 
L 93.63913 26.297037 
L 94.247602 34.927432 
L 94.856075 40.45587 
L 95.616665 45.081259 
L 96.377255 48.267858 
L 97.137846 50.594025 
L 98.050554 52.669027 
L 98.963263 54.231658 
L 100.028089 55.625244 
L 101.245034 56.835912 
L 102.614096 57.869472 
L 104.135277 58.741035 
L 105.960694 59.525533 
L 108.090347 60.196125 
L 110.676355 60.771485 
L 113.718716 61.220302 
L 117.36955 61.531437 
L 121.476738 61.65673 
L 125.736044 61.563863 
L 129.691114 61.25467 
L 133.037712 60.771485 
L 135.775837 60.155029 
L 138.057608 59.410441 
L 139.883025 58.585229 
L 141.404206 57.663577 
L 142.773268 56.563515 
L 143.838095 55.448353 
L 144.902921 53.998714 
L 145.81563 52.364651 
L 146.57622 50.594025 
L 147.336811 48.267858 
L 148.097401 45.081259 
L 148.705873 41.540494 
L 149.314346 36.525019 
L 149.7707 31.142691 
L 150.227054 23.326813 
L 150.683408 10.951144 
L 150.961182 -1 
M 153.539087 -1 
L 153.877888 13.078424 
L 154.334242 24.664177 
L 154.942714 34.007652 
L 155.551187 39.911115 
L 156.159659 43.980688 
L 156.920249 47.580659 
L 157.68084 50.176208 
L 158.593548 52.473582 
L 159.506257 54.196971 
L 160.571083 55.73394 
L 161.788028 57.074858 
L 163.157091 58.230591 
L 164.678271 59.221112 
L 166.503688 60.136349 
L 168.633341 60.952695 
L 171.219349 61.704824 
L 174.413828 62.400141 
L 178.521016 63.056015 
L 183.845149 63.66489 
L 190.84258 64.224249 
L 197.840012 64.623404 
L 197.840012 64.623404 
" style="fill:none;stroke:#1f77b4;stroke-linecap:square;stroke-width:1.5;"/>
   </g>
   <g id="line2d_22">
    <defs>
     <path d="M 0 5 
C 1.326016 5 2.597899 4.473168 3.535534 3.535534 
C 4.473168 2.597899 5 1.326016 5 0 
C 5 -1.326016 4.473168 -2.597899 3.535534 -3.535534 
C 2.597899 -4.473168 1.326016 -5 0 -5 
C -1.326016 -5 -2.597899 -4.473168 -3.535534 -3.535534 
C -4.473168 -2.597899 -5 -1.326016 -5 0 
C -5 1.326016 -4.473168 2.597899 -3.535534 3.535534 
C -2.597899 4.473168 -1.326016 5 0 5 
z
" id="md5c3511406" style="stroke:#000000;"/>
    </defs>
    <g clip-path="url(#pbea6d78aba)">
     <use style="fill:#5092dc;stroke:#000000;" x="91.463842" xlink:href="#md5c3511406" y="67.319574"/>
    </g>
   </g>
   <g id="line2d_23">
    <defs>
     <path d="M 0 5 
C 1.326016 5 2.597899 4.473168 3.535534 3.535534 
C 4.473168 2.597899 5 1.326016 5 0 
C 5 -1.326016 4.473168 -2.597899 3.535534 -3.535534 
C 2.597899 -4.473168 1.326016 -5 0 -5 
C -1.326016 -5 -2.597899 -4.473168 -3.535534 -3.535534 
C -4.473168 -2.597899 -5 -1.326016 -5 0 
C -5 1.326016 -4.473168 2.597899 -3.535534 3.535534 
C -2.597899 4.473168 -1.326016 5 0 5 
z
" id="md297a0ea29" style="stroke:#000000;"/>
    </defs>
    <g clip-path="url(#pbea6d78aba)">
     <use style="fill:#dc5050;stroke:#000000;" x="152.250225" xlink:href="#md297a0ea29" y="67.319574"/>
    </g>
   </g>
   <g id="patch_3">
    <path d="M 45.874054 123.939149 
L 45.874054 10.7 
" style="fill:none;stroke:#000000;stroke-linecap:square;stroke-linejoin:miter;stroke-width:0.8;"/>
   </g>
   <g id="patch_4">
    <path d="M 197.840012 123.939149 
L 197.840012 10.7 
" style="fill:none;stroke:#000000;stroke-linecap:square;stroke-linejoin:miter;stroke-width:0.8;"/>
   </g>
   <g id="patch_5">
    <path d="M 45.874054 123.939149 
L 197.840012 123.939149 
" style="fill:none;stroke:#000000;stroke-linecap:square;stroke-linejoin:miter;stroke-width:0.8;"/>
   </g>
   <g id="patch_6">
    <path d="M 45.874054 10.7 
L 197.840012 10.7 
" style="fill:none;stroke:#000000;stroke-linecap:square;stroke-linejoin:miter;stroke-width:0.8;"/>
   </g>
   <g id="text_13">
    <g id="patch_7">
     <path d="M 59.15065 32.705349 
L 73.303706 32.705349 
L 73.303706 14.696284 
L 59.15065 14.696284 
z
" style="fill:#ffffff;stroke:#000000;stroke-linejoin:miter;"/>
    </g>
    <!-- A -->
    <defs>
     <path d="M 35.5 69 
L 26.90625 69 
L 2.59375 0 
L 10.203125 0 
L 17.203125 20 
L 44 20 
L 51.09375 0 
L 59.796875 0 
z
M 42.09375 25.578125 
L 19.09375 25.578125 
C 23.90625 39.5 29.90625 56.84375 30.59375 61.328125 
L 30.703125 61.328125 
C 31.40625 57.234375 33.40625 51.265625 35.09375 46.1875 
z
" id="CMSS17-65"/>
    </defs>
    <g transform="translate(61.07065 27.685872)scale(0.16 -0.16)">
     <use transform="scale(0.996264)" xlink:href="#CMSS17-65"/>
    </g>
   </g>
   <g id="text_14">
    <!-- $-$ -->
    <g transform="translate(86.814597 70.308366)scale(0.12 -0.12)">
     <use transform="scale(0.996264)" xlink:href="#CMSY10-0"/>
    </g>
   </g>
   <g id="text_15">
    <!-- $+$ -->
    <defs>
     <path d="M 37.703125 23 
L 64.203125 23 
C 65.59375 23 67.296875 23 67.296875 24.6875 
C 67.296875 26.484375 65.703125 26.484375 64.203125 26.484375 
L 37.703125 26.484375 
L 37.703125 52.90625 
C 37.703125 54.296875 37.703125 56 36 56 
C 34.203125 56 34.203125 54.40625 34.203125 52.90625 
L 34.203125 26.484375 
L 7.703125 26.484375 
C 6.296875 26.484375 4.59375 26.484375 4.59375 24.796875 
C 4.59375 23 6.203125 23 7.703125 23 
L 34.203125 23 
L 34.203125 -3.40625 
C 34.203125 -4.796875 34.203125 -6.5 35.90625 -6.5 
C 37.703125 -6.5 37.703125 -4.90625 37.703125 -3.40625 
z
" id="CMR17-43"/>
    </defs>
    <g transform="translate(147.697899 70.308366)scale(0.12 -0.12)">
     <use transform="scale(0.996264)" xlink:href="#CMR17-43"/>
    </g>
   </g>
  </g>
  <g id="axes_2">
   <g id="patch_8">
    <path d="M 251.028097 123.939149 
L 402.994054 123.939149 
L 402.994054 10.7 
L 251.028097 10.7 
z
" style="fill:#ffffff;"/>
   </g>
   <g id="matplotlib.axis_3">
    <g id="xtick_6">
     <g id="line2d_24">
      <path clip-path="url(#p51edbec6ab)" d="M 266.224693 123.939149 
L 266.224693 10.7 
" style="fill:none;stroke:#b0b0b0;stroke-linecap:square;stroke-width:0.8;"/>
     </g>
     <g id="line2d_25">
      <g>
       <use style="stroke:#000000;stroke-width:0.8;" x="266.224693" xlink:href="#mdaf538c9f8" y="123.939149"/>
      </g>
     </g>
     <g id="text_16">
      <!-- $-4$ -->
      <g transform="translate(259.859653 137.857647)scale(0.1 -0.1)">
       <use transform="scale(0.996264)" xlink:href="#CMSY10-0"/>
       <use transform="translate(77.487468 0)scale(0.996264)" xlink:href="#CMR17-52"/>
      </g>
     </g>
    </g>
    <g id="xtick_7">
     <g id="line2d_26">
      <path clip-path="url(#p51edbec6ab)" d="M 296.617884 123.939149 
L 296.617884 10.7 
" style="fill:none;stroke:#b0b0b0;stroke-linecap:square;stroke-width:0.8;"/>
     </g>
     <g id="line2d_27">
      <g>
       <use style="stroke:#000000;stroke-width:0.8;" x="296.617884" xlink:href="#mdaf538c9f8" y="123.939149"/>
      </g>
     </g>
     <g id="text_17">
      <!-- $-2$ -->
      <g transform="translate(290.252845 137.857647)scale(0.1 -0.1)">
       <use transform="scale(0.996264)" xlink:href="#CMSY10-0"/>
       <use transform="translate(77.487468 0)scale(0.996264)" xlink:href="#CMR17-50"/>
      </g>
     </g>
    </g>
    <g id="xtick_8">
     <g id="line2d_28">
      <path clip-path="url(#p51edbec6ab)" d="M 327.011076 123.939149 
L 327.011076 10.7 
" style="fill:none;stroke:#b0b0b0;stroke-linecap:square;stroke-width:0.8;"/>
     </g>
     <g id="line2d_29">
      <g>
       <use style="stroke:#000000;stroke-width:0.8;" x="327.011076" xlink:href="#mdaf538c9f8" y="123.939149"/>
      </g>
     </g>
     <g id="text_18">
      <!-- $0$ -->
      <g transform="translate(324.520408 137.857647)scale(0.1 -0.1)">
       <use transform="scale(0.996264)" xlink:href="#CMR17-48"/>
      </g>
     </g>
    </g>
    <g id="xtick_9">
     <g id="line2d_30">
      <path clip-path="url(#p51edbec6ab)" d="M 357.404267 123.939149 
L 357.404267 10.7 
" style="fill:none;stroke:#b0b0b0;stroke-linecap:square;stroke-width:0.8;"/>
     </g>
     <g id="line2d_31">
      <g>
       <use style="stroke:#000000;stroke-width:0.8;" x="357.404267" xlink:href="#mdaf538c9f8" y="123.939149"/>
      </g>
     </g>
     <g id="text_19">
      <!-- $2$ -->
      <g transform="translate(354.913599 137.857647)scale(0.1 -0.1)">
       <use transform="scale(0.996264)" xlink:href="#CMR17-50"/>
      </g>
     </g>
    </g>
    <g id="xtick_10">
     <g id="line2d_32">
      <path clip-path="url(#p51edbec6ab)" d="M 387.797459 123.939149 
L 387.797459 10.7 
" style="fill:none;stroke:#b0b0b0;stroke-linecap:square;stroke-width:0.8;"/>
     </g>
     <g id="line2d_33">
      <g>
       <use style="stroke:#000000;stroke-width:0.8;" x="387.797459" xlink:href="#mdaf538c9f8" y="123.939149"/>
      </g>
     </g>
     <g id="text_20">
      <!-- $4$ -->
      <g transform="translate(385.306791 137.857647)scale(0.1 -0.1)">
       <use transform="scale(0.996264)" xlink:href="#CMR17-52"/>
      </g>
     </g>
    </g>
    <g id="text_21">
     <!-- Position (m) -->
     <g transform="translate(300.83144 151.266806)scale(0.1 -0.1)">
      <use transform="scale(0.996264)" xlink:href="#CMSS17-80"/>
      <use transform="translate(57.133132 0)scale(0.996264)" xlink:href="#CMSS17-111"/>
      <use transform="translate(103.976756 0)scale(0.996264)" xlink:href="#CMSS17-115"/>
      <use transform="translate(139.890298 0)scale(0.996264)" xlink:href="#CMSS17-105"/>
      <use transform="translate(162.071021 0)scale(0.996264)" xlink:href="#CMSS17-116"/>
      <use transform="translate(195.902588 0)scale(0.996264)" xlink:href="#CMSS17-105"/>
      <use transform="translate(218.083311 0)scale(0.996264)" xlink:href="#CMSS17-111"/>
      <use transform="translate(264.926934 0)scale(0.996264)" xlink:href="#CMSS17-110"/>
      <use transform="translate(344.36099 0)scale(0.996264)" xlink:href="#CMSS17-40"/>
      <use transform="translate(380.794904 0)scale(0.996264)" xlink:href="#CMSS17-109"/>
      <use transform="translate(455.024159 0)scale(0.996264)" xlink:href="#CMSS17-41"/>
     </g>
    </g>
   </g>
   <g id="matplotlib.axis_4">
    <g id="ytick_6">
     <g id="line2d_34">
      <path clip-path="url(#p51edbec6ab)" d="M 251.028097 123.939149 
L 402.994054 123.939149 
" style="fill:none;stroke:#b0b0b0;stroke-linecap:square;stroke-width:0.8;"/>
     </g>
     <g id="line2d_35">
      <g>
       <use style="stroke:#000000;stroke-width:0.8;" x="251.028097" xlink:href="#m1e08a046a9" y="123.939149"/>
      </g>
     </g>
     <g id="text_22">
      <!-- $-10$ -->
      <g transform="translate(226.316683 127.398398)scale(0.1 -0.1)">
       <use transform="scale(0.996264)" xlink:href="#CMSY10-0"/>
       <use transform="translate(77.487468 0)scale(0.996264)" xlink:href="#CMR17-49"/>
       <use transform="translate(123.177945 0)scale(0.996264)" xlink:href="#CMR17-48"/>
      </g>
     </g>
    </g>
    <g id="ytick_7">
     <g id="line2d_36">
      <path clip-path="url(#p51edbec6ab)" d="M 251.028097 95.629362 
L 402.994054 95.629362 
" style="fill:none;stroke:#b0b0b0;stroke-linecap:square;stroke-width:0.8;"/>
     </g>
     <g id="line2d_37">
      <g>
       <use style="stroke:#000000;stroke-width:0.8;" x="251.028097" xlink:href="#m1e08a046a9" y="95.629362"/>
      </g>
     </g>
     <g id="text_23">
      <!-- $-5$ -->
      <g transform="translate(231.298018 99.088611)scale(0.1 -0.1)">
       <use transform="scale(0.996264)" xlink:href="#CMSY10-0"/>
       <use transform="translate(77.487468 0)scale(0.996264)" xlink:href="#CMR17-53"/>
      </g>
     </g>
    </g>
    <g id="ytick_8">
     <g id="line2d_38">
      <path clip-path="url(#p51edbec6ab)" d="M 251.028097 67.319574 
L 402.994054 67.319574 
" style="fill:none;stroke:#b0b0b0;stroke-linecap:square;stroke-width:0.8;"/>
     </g>
     <g id="line2d_39">
      <g>
       <use style="stroke:#000000;stroke-width:0.8;" x="251.028097" xlink:href="#m1e08a046a9" y="67.319574"/>
      </g>
     </g>
     <g id="text_24">
      <!-- $0$ -->
      <g transform="translate(239.046762 70.778824)scale(0.1 -0.1)">
       <use transform="scale(0.996264)" xlink:href="#CMR17-48"/>
      </g>
     </g>
    </g>
    <g id="ytick_9">
     <g id="line2d_40">
      <path clip-path="url(#p51edbec6ab)" d="M 251.028097 39.009787 
L 402.994054 39.009787 
" style="fill:none;stroke:#b0b0b0;stroke-linecap:square;stroke-width:0.8;"/>
     </g>
     <g id="line2d_41">
      <g>
       <use style="stroke:#000000;stroke-width:0.8;" x="251.028097" xlink:href="#m1e08a046a9" y="39.009787"/>
      </g>
     </g>
     <g id="text_25">
      <!-- $5$ -->
      <g transform="translate(239.046762 42.469036)scale(0.1 -0.1)">
       <use transform="scale(0.996264)" xlink:href="#CMR17-53"/>
      </g>
     </g>
    </g>
    <g id="ytick_10">
     <g id="line2d_42">
      <path clip-path="url(#p51edbec6ab)" d="M 251.028097 10.7 
L 402.994054 10.7 
" style="fill:none;stroke:#b0b0b0;stroke-linecap:square;stroke-width:0.8;"/>
     </g>
     <g id="line2d_43">
      <g>
       <use style="stroke:#000000;stroke-width:0.8;" x="251.028097" xlink:href="#m1e08a046a9" y="10.7"/>
      </g>
     </g>
     <g id="text_26">
      <!-- $10$ -->
      <g transform="translate(234.065426 14.159249)scale(0.1 -0.1)">
       <use transform="scale(0.996264)" xlink:href="#CMR17-49"/>
       <use transform="translate(45.690477 0)scale(0.996264)" xlink:href="#CMR17-48"/>
      </g>
     </g>
    </g>
    <g id="text_27">
     <!-- Potential (V) -->
     <g transform="translate(219.826023 94.869081)rotate(-90)scale(0.1 -0.1)">
      <use transform="scale(0.996264)" xlink:href="#CMSS17-80"/>
      <use transform="translate(57.133132 0)scale(0.996264)" xlink:href="#CMSS17-111"/>
      <use transform="translate(103.976756 0)scale(0.996264)" xlink:href="#CMSS17-116"/>
      <use transform="translate(137.808323 0)scale(0.996264)" xlink:href="#CMSS17-101"/>
      <use transform="translate(179.447145 0)scale(0.996264)" xlink:href="#CMSS17-110"/>
      <use transform="translate(227.652088 0)scale(0.996264)" xlink:href="#CMSS17-116"/>
      <use transform="translate(261.483654 0)scale(0.996264)" xlink:href="#CMSS17-105"/>
      <use transform="translate(283.664377 0)scale(0.996264)" xlink:href="#CMSS17-97"/>
      <use transform="translate(328.586298 0)scale(0.996264)" xlink:href="#CMSS17-108"/>
      <use transform="translate(381.996134 0)scale(0.996264)" xlink:href="#CMSS17-40"/>
      <use transform="translate(418.430048 0)scale(0.996264)" xlink:href="#CMSS17-86"/>
      <use transform="translate(480.647903 0)scale(0.996264)" xlink:href="#CMSS17-41"/>
     </g>
    </g>
   </g>
   <g id="line2d_44">
    <path clip-path="url(#p51edbec6ab)" d="M 251.028097 68.398043 
L 261.06789 68.846751 
L 268.065321 69.369949 
L 273.085218 69.955435 
L 276.88817 70.611998 
L 279.778413 71.32072 
L 282.060184 72.088025 
L 284.037719 72.986334 
L 285.5589 73.902292 
L 286.927963 74.978288 
L 288.144907 76.232181 
L 289.209734 77.672423 
L 290.122442 79.287331 
L 290.883033 81.029552 
L 291.643623 83.308695 
L 292.404213 86.415684 
L 293.012686 89.849562 
L 293.621158 94.682749 
L 294.077512 99.830901 
L 294.533866 107.237834 
L 294.990221 118.803574 
L 295.294457 130.949137 
L 295.598693 150.349748 
L 295.902929 186.267253 
L 296.055047 218.789922 
L 296.255833 314.830317 
M 296.965337 314.830317 
L 297.119874 237.295192 
L 297.42411 172.607615 
L 297.880464 134.022199 
L 298.336818 115.918605 
L 298.793173 105.406065 
L 299.401645 96.744869 
L 300.010117 91.184978 
L 300.770708 86.519321 
L 301.531298 83.291359 
L 302.291888 80.922687 
L 303.204597 78.795103 
L 304.117305 77.17809 
L 305.182132 75.718656 
L 306.399076 74.429366 
L 307.768139 73.302747 
L 309.441438 72.235355 
L 311.418973 71.261741 
L 313.852862 70.336238 
L 316.895224 69.438826 
L 320.850294 68.516446 
L 327.543489 67.220361 
L 334.997275 65.721484 
L 338.800226 64.734414 
L 341.538352 63.811913 
L 343.820123 62.808384 
L 345.64554 61.757224 
L 347.166721 60.61714 
L 348.383665 59.443283 
L 349.448492 58.133126 
L 350.3612 56.703943 
L 351.273909 54.858356 
L 352.034499 52.848722 
L 352.795089 50.183559 
L 353.403562 47.327962 
L 354.012034 43.454171 
L 354.620506 37.89428 
L 355.076861 31.822167 
L 355.533215 22.793875 
L 355.989569 7.94841 
L 356.168025 -1 
M 358.643165 -1 
L 359.031931 15.835575 
L 359.488285 27.401315 
L 360.096757 36.718553 
L 360.705229 42.596278 
L 361.313702 46.640597 
L 362.074292 50.20966 
L 362.834882 52.775011 
L 363.747591 55.037051 
L 364.660299 56.726054 
L 365.725126 58.224055 
L 366.94207 59.521881 
L 368.311133 60.630886 
L 369.832314 61.571536 
L 371.657731 62.429597 
L 373.787384 63.182656 
L 376.373391 63.86248 
L 379.719989 64.499268 
L 383.979295 65.066758 
L 389.455546 65.561855 
L 396.909331 65.999488 
L 402.994054 66.241106 
L 402.994054 66.241106 
" style="fill:none;stroke:#1f77b4;stroke-linecap:square;stroke-width:1.5;"/>
   </g>
   <g id="line2d_45">
    <g clip-path="url(#p51edbec6ab)">
     <use style="fill:#5092dc;stroke:#000000;" x="296.617884" xlink:href="#md5c3511406" y="67.319574"/>
    </g>
   </g>
   <g id="line2d_46">
    <g clip-path="url(#p51edbec6ab)">
     <use style="fill:#dc5050;stroke:#000000;" x="357.404267" xlink:href="#md297a0ea29" y="67.319574"/>
    </g>
   </g>
   <g id="patch_9">
    <path d="M 251.028097 123.939149 
L 251.028097 10.7 
" style="fill:none;stroke:#000000;stroke-linecap:square;stroke-linejoin:miter;stroke-width:0.8;"/>
   </g>
   <g id="patch_10">
    <path d="M 402.994054 123.939149 
L 402.994054 10.7 
" style="fill:none;stroke:#000000;stroke-linecap:square;stroke-linejoin:miter;stroke-width:0.8;"/>
   </g>
   <g id="patch_11">
    <path d="M 251.028097 123.939149 
L 402.994054 123.939149 
" style="fill:none;stroke:#000000;stroke-linecap:square;stroke-linejoin:miter;stroke-width:0.8;"/>
   </g>
   <g id="patch_12">
    <path d="M 251.028097 10.7 
L 402.994054 10.7 
" style="fill:none;stroke:#000000;stroke-linecap:square;stroke-linejoin:miter;stroke-width:0.8;"/>
   </g>
   <g id="text_28">
    <g id="patch_13">
     <path d="M 264.304693 32.705349 
L 278.503871 32.705349 
L 278.503871 14.696284 
L 264.304693 14.696284 
z
" style="fill:#ffffff;stroke:#000000;stroke-linejoin:miter;"/>
    </g>
    <!-- B -->
    <defs>
     <path d="M 8.90625 69 
L 8.90625 0 
L 33.796875 0 
C 47.40625 0 57.296875 8.96875 57.296875 18.75 
C 57.296875 26.328125 50.796875 34 39.09375 36.203125 
C 52.09375 39.96875 54.703125 47.5 54.703125 51.765625 
C 54.703125 60.671875 44.90625 69 31.203125 69 
z
M 17 39 
L 17 63.421875 
L 28.5 63.421875 
C 38.796875 63.421875 46.90625 58.1875 46.90625 51.65625 
C 46.90625 45.71875 40.5 39 27.59375 39 
z
M 17 5.578125 
L 17 32.921875 
L 30.296875 32.921875 
C 41.09375 32.921875 49.40625 26.234375 49.40625 18.84375 
C 49.40625 12.0625 42.09375 5.578125 31 5.578125 
z
" id="CMSS17-66"/>
    </defs>
    <g transform="translate(266.224693 27.685872)scale(0.16 -0.16)">
     <use transform="scale(0.996264)" xlink:href="#CMSS17-66"/>
    </g>
   </g>
   <g id="text_29">
    <!-- $-$ -->
    <g transform="translate(291.968639 70.308366)scale(0.12 -0.12)">
     <use transform="scale(0.996264)" xlink:href="#CMSY10-0"/>
    </g>
   </g>
   <g id="text_30">
    <!-- $+$ -->
    <g transform="translate(352.851941 70.308366)scale(0.12 -0.12)">
     <use transform="scale(0.996264)" xlink:href="#CMR17-43"/>
    </g>
   </g>
  </g>
  <g id="axes_3">
   <g id="patch_14">
    <path d="M 45.874054 276.812 
L 197.840012 276.812 
L 197.840012 163.572851 
L 45.874054 163.572851 
z
" style="fill:#ffffff;"/>
   </g>
   <g id="matplotlib.axis_5">
    <g id="xtick_11">
     <g id="line2d_47">
      <path clip-path="url(#pd907438d24)" d="M 61.07065 276.812 
L 61.07065 163.572851 
" style="fill:none;stroke:#b0b0b0;stroke-linecap:square;stroke-width:0.8;"/>
     </g>
     <g id="line2d_48">
      <g>
       <use style="stroke:#000000;stroke-width:0.8;" x="61.07065" xlink:href="#mdaf538c9f8" y="276.812"/>
      </g>
     </g>
     <g id="text_31">
      <!-- $-4$ -->
      <g transform="translate(54.705611 290.730498)scale(0.1 -0.1)">
       <use transform="scale(0.996264)" xlink:href="#CMSY10-0"/>
       <use transform="translate(77.487468 0)scale(0.996264)" xlink:href="#CMR17-52"/>
      </g>
     </g>
    </g>
    <g id="xtick_12">
     <g id="line2d_49">
      <path clip-path="url(#pd907438d24)" d="M 91.463842 276.812 
L 91.463842 163.572851 
" style="fill:none;stroke:#b0b0b0;stroke-linecap:square;stroke-width:0.8;"/>
     </g>
     <g id="line2d_50">
      <g>
       <use style="stroke:#000000;stroke-width:0.8;" x="91.463842" xlink:href="#mdaf538c9f8" y="276.812"/>
      </g>
     </g>
     <g id="text_32">
      <!-- $-2$ -->
      <g transform="translate(85.098802 290.730498)scale(0.1 -0.1)">
       <use transform="scale(0.996264)" xlink:href="#CMSY10-0"/>
       <use transform="translate(77.487468 0)scale(0.996264)" xlink:href="#CMR17-50"/>
      </g>
     </g>
    </g>
    <g id="xtick_13">
     <g id="line2d_51">
      <path clip-path="url(#pd907438d24)" d="M 121.857033 276.812 
L 121.857033 163.572851 
" style="fill:none;stroke:#b0b0b0;stroke-linecap:square;stroke-width:0.8;"/>
     </g>
     <g id="line2d_52">
      <g>
       <use style="stroke:#000000;stroke-width:0.8;" x="121.857033" xlink:href="#mdaf538c9f8" y="276.812"/>
      </g>
     </g>
     <g id="text_33">
      <!-- $0$ -->
      <g transform="translate(119.366365 290.730498)scale(0.1 -0.1)">
       <use transform="scale(0.996264)" xlink:href="#CMR17-48"/>
      </g>
     </g>
    </g>
    <g id="xtick_14">
     <g id="line2d_53">
      <path clip-path="url(#pd907438d24)" d="M 152.250225 276.812 
L 152.250225 163.572851 
" style="fill:none;stroke:#b0b0b0;stroke-linecap:square;stroke-width:0.8;"/>
     </g>
     <g id="line2d_54">
      <g>
       <use style="stroke:#000000;stroke-width:0.8;" x="152.250225" xlink:href="#mdaf538c9f8" y="276.812"/>
      </g>
     </g>
     <g id="text_34">
      <!-- $2$ -->
      <g transform="translate(149.759557 290.730498)scale(0.1 -0.1)">
       <use transform="scale(0.996264)" xlink:href="#CMR17-50"/>
      </g>
     </g>
    </g>
    <g id="xtick_15">
     <g id="line2d_55">
      <path clip-path="url(#pd907438d24)" d="M 182.643416 276.812 
L 182.643416 163.572851 
" style="fill:none;stroke:#b0b0b0;stroke-linecap:square;stroke-width:0.8;"/>
     </g>
     <g id="line2d_56">
      <g>
       <use style="stroke:#000000;stroke-width:0.8;" x="182.643416" xlink:href="#mdaf538c9f8" y="276.812"/>
      </g>
     </g>
     <g id="text_35">
      <!-- $4$ -->
      <g transform="translate(180.152748 290.730498)scale(0.1 -0.1)">
       <use transform="scale(0.996264)" xlink:href="#CMR17-52"/>
      </g>
     </g>
    </g>
    <g id="text_36">
     <!-- Position (m) -->
     <g transform="translate(95.677398 304.139657)scale(0.1 -0.1)">
      <use transform="scale(0.996264)" xlink:href="#CMSS17-80"/>
      <use transform="translate(57.133132 0)scale(0.996264)" xlink:href="#CMSS17-111"/>
      <use transform="translate(103.976756 0)scale(0.996264)" xlink:href="#CMSS17-115"/>
      <use transform="translate(139.890298 0)scale(0.996264)" xlink:href="#CMSS17-105"/>
      <use transform="translate(162.071021 0)scale(0.996264)" xlink:href="#CMSS17-116"/>
      <use transform="translate(195.902588 0)scale(0.996264)" xlink:href="#CMSS17-105"/>
      <use transform="translate(218.083311 0)scale(0.996264)" xlink:href="#CMSS17-111"/>
      <use transform="translate(264.926934 0)scale(0.996264)" xlink:href="#CMSS17-110"/>
      <use transform="translate(344.36099 0)scale(0.996264)" xlink:href="#CMSS17-40"/>
      <use transform="translate(380.794904 0)scale(0.996264)" xlink:href="#CMSS17-109"/>
      <use transform="translate(455.024159 0)scale(0.996264)" xlink:href="#CMSS17-41"/>
     </g>
    </g>
   </g>
   <g id="matplotlib.axis_6">
    <g id="ytick_11">
     <g id="line2d_57">
      <path clip-path="url(#pd907438d24)" d="M 45.874054 276.812 
L 197.840012 276.812 
" style="fill:none;stroke:#b0b0b0;stroke-linecap:square;stroke-width:0.8;"/>
     </g>
     <g id="line2d_58">
      <g>
       <use style="stroke:#000000;stroke-width:0.8;" x="45.874054" xlink:href="#m1e08a046a9" y="276.812"/>
      </g>
     </g>
     <g id="text_37">
      <!-- $-10$ -->
      <g transform="translate(21.16264 280.271249)scale(0.1 -0.1)">
       <use transform="scale(0.996264)" xlink:href="#CMSY10-0"/>
       <use transform="translate(77.487468 0)scale(0.996264)" xlink:href="#CMR17-49"/>
       <use transform="translate(123.177945 0)scale(0.996264)" xlink:href="#CMR17-48"/>
      </g>
     </g>
    </g>
    <g id="ytick_12">
     <g id="line2d_59">
      <path clip-path="url(#pd907438d24)" d="M 45.874054 248.502213 
L 197.840012 248.502213 
" style="fill:none;stroke:#b0b0b0;stroke-linecap:square;stroke-width:0.8;"/>
     </g>
     <g id="line2d_60">
      <g>
       <use style="stroke:#000000;stroke-width:0.8;" x="45.874054" xlink:href="#m1e08a046a9" y="248.502213"/>
      </g>
     </g>
     <g id="text_38">
      <!-- $-5$ -->
      <g transform="translate(26.143975 251.961462)scale(0.1 -0.1)">
       <use transform="scale(0.996264)" xlink:href="#CMSY10-0"/>
       <use transform="translate(77.487468 0)scale(0.996264)" xlink:href="#CMR17-53"/>
      </g>
     </g>
    </g>
    <g id="ytick_13">
     <g id="line2d_61">
      <path clip-path="url(#pd907438d24)" d="M 45.874054 220.192426 
L 197.840012 220.192426 
" style="fill:none;stroke:#b0b0b0;stroke-linecap:square;stroke-width:0.8;"/>
     </g>
     <g id="line2d_62">
      <g>
       <use style="stroke:#000000;stroke-width:0.8;" x="45.874054" xlink:href="#m1e08a046a9" y="220.192426"/>
      </g>
     </g>
     <g id="text_39">
      <!-- $0$ -->
      <g transform="translate(33.892719 223.651675)scale(0.1 -0.1)">
       <use transform="scale(0.996264)" xlink:href="#CMR17-48"/>
      </g>
     </g>
    </g>
    <g id="ytick_14">
     <g id="line2d_63">
      <path clip-path="url(#pd907438d24)" d="M 45.874054 191.882638 
L 197.840012 191.882638 
" style="fill:none;stroke:#b0b0b0;stroke-linecap:square;stroke-width:0.8;"/>
     </g>
     <g id="line2d_64">
      <g>
       <use style="stroke:#000000;stroke-width:0.8;" x="45.874054" xlink:href="#m1e08a046a9" y="191.882638"/>
      </g>
     </g>
     <g id="text_40">
      <!-- $5$ -->
      <g transform="translate(33.892719 195.341887)scale(0.1 -0.1)">
       <use transform="scale(0.996264)" xlink:href="#CMR17-53"/>
      </g>
     </g>
    </g>
    <g id="ytick_15">
     <g id="line2d_65">
      <path clip-path="url(#pd907438d24)" d="M 45.874054 163.572851 
L 197.840012 163.572851 
" style="fill:none;stroke:#b0b0b0;stroke-linecap:square;stroke-width:0.8;"/>
     </g>
     <g id="line2d_66">
      <g>
       <use style="stroke:#000000;stroke-width:0.8;" x="45.874054" xlink:href="#m1e08a046a9" y="163.572851"/>
      </g>
     </g>
     <g id="text_41">
      <!-- $10$ -->
      <g transform="translate(28.911384 167.0321)scale(0.1 -0.1)">
       <use transform="scale(0.996264)" xlink:href="#CMR17-49"/>
       <use transform="translate(45.690477 0)scale(0.996264)" xlink:href="#CMR17-48"/>
      </g>
     </g>
    </g>
    <g id="text_42">
     <!-- Potential (V) -->
     <g transform="translate(14.67198 247.741932)rotate(-90)scale(0.1 -0.1)">
      <use transform="scale(0.996264)" xlink:href="#CMSS17-80"/>
      <use transform="translate(57.133132 0)scale(0.996264)" xlink:href="#CMSS17-111"/>
      <use transform="translate(103.976756 0)scale(0.996264)" xlink:href="#CMSS17-116"/>
      <use transform="translate(137.808323 0)scale(0.996264)" xlink:href="#CMSS17-101"/>
      <use transform="translate(179.447145 0)scale(0.996264)" xlink:href="#CMSS17-110"/>
      <use transform="translate(227.652088 0)scale(0.996264)" xlink:href="#CMSS17-116"/>
      <use transform="translate(261.483654 0)scale(0.996264)" xlink:href="#CMSS17-105"/>
      <use transform="translate(283.664377 0)scale(0.996264)" xlink:href="#CMSS17-97"/>
      <use transform="translate(328.586298 0)scale(0.996264)" xlink:href="#CMSS17-108"/>
      <use transform="translate(381.996134 0)scale(0.996264)" xlink:href="#CMSS17-40"/>
      <use transform="translate(418.430048 0)scale(0.996264)" xlink:href="#CMSS17-86"/>
      <use transform="translate(480.647903 0)scale(0.996264)" xlink:href="#CMSS17-41"/>
     </g>
    </g>
   </g>
   <g id="line2d_67">
    <path clip-path="url(#pd907438d24)" d="M 45.874054 191.882638 
L 121.933092 220.164087 
L 197.840012 191.882638 
L 197.840012 191.882638 
" style="fill:none;stroke:#1f77b4;stroke-linecap:square;stroke-width:1.5;"/>
   </g>
   <g id="line2d_68">
    <g clip-path="url(#pd907438d24)">
     <use style="fill:#5092dc;stroke:#000000;" x="91.463842" xlink:href="#md5c3511406" y="220.192426"/>
    </g>
   </g>
   <g id="line2d_69">
    <g clip-path="url(#pd907438d24)">
     <use style="fill:#dc5050;stroke:#000000;" x="152.250225" xlink:href="#md297a0ea29" y="220.192426"/>
    </g>
   </g>
   <g id="patch_15">
    <path d="M 45.874054 276.812 
L 45.874054 163.572851 
" style="fill:none;stroke:#000000;stroke-linecap:square;stroke-linejoin:miter;stroke-width:0.8;"/>
   </g>
   <g id="patch_16">
    <path d="M 197.840012 276.812 
L 197.840012 163.572851 
" style="fill:none;stroke:#000000;stroke-linecap:square;stroke-linejoin:miter;stroke-width:0.8;"/>
   </g>
   <g id="patch_17">
    <path d="M 45.874054 276.812 
L 197.840012 276.812 
" style="fill:none;stroke:#000000;stroke-linecap:square;stroke-linejoin:miter;stroke-width:0.8;"/>
   </g>
   <g id="patch_18">
    <path d="M 45.874054 163.572851 
L 197.840012 163.572851 
" style="fill:none;stroke:#000000;stroke-linecap:square;stroke-linejoin:miter;stroke-width:0.8;"/>
   </g>
   <g id="text_43">
    <g id="patch_19">
     <path d="M 59.15065 185.5782 
L 72.962411 185.5782 
L 72.962411 167.569135 
L 59.15065 167.569135 
z
" style="fill:#ffffff;stroke:#000000;stroke-linejoin:miter;"/>
    </g>
    <!-- C -->
    <defs>
     <path d="M 54.703125 11.15625 
C 48 6.671875 44.90625 5.375 36.796875 5.375 
C 22.796875 5.375 14.59375 20.359375 14.59375 34.046875 
C 14.59375 48.625 23 63 37.203125 63 
C 43.59375 63 47.796875 61.21875 52.90625 58.046875 
L 54.296875 65.890625 
C 49.5 68.28125 43.40625 69.375 37.296875 69.375 
C 18.09375 69.375 6.203125 51.8125 6.203125 34.046875 
C 6.203125 14.484375 20.296875 -1 36.296875 -1 
C 44.90625 -1 47.90625 -0.296875 55.296875 4.375 
z
" id="CMSS17-67"/>
    </defs>
    <g transform="translate(61.07065 180.558723)scale(0.16 -0.16)">
     <use transform="scale(0.996264)" xlink:href="#CMSS17-67"/>
    </g>
   </g>
   <g id="text_44">
    <!-- $-$ -->
    <g transform="translate(86.814597 223.181218)scale(0.12 -0.12)">
     <use transform="scale(0.996264)" xlink:href="#CMSY10-0"/>
    </g>
   </g>
   <g id="text_45">
    <!-- $+$ -->
    <g transform="translate(147.697899 223.181218)scale(0.12 -0.12)">
     <use transform="scale(0.996264)" xlink:href="#CMR17-43"/>
    </g>
   </g>
  </g>
  <g id="axes_4">
   <g id="patch_20">
    <path d="M 251.028097 276.812 
L 402.994054 276.812 
L 402.994054 163.572851 
L 251.028097 163.572851 
z
" style="fill:#ffffff;"/>
   </g>
   <g id="matplotlib.axis_7">
    <g id="xtick_16">
     <g id="line2d_70">
      <path clip-path="url(#p2eddb759ac)" d="M 266.224693 276.812 
L 266.224693 163.572851 
" style="fill:none;stroke:#b0b0b0;stroke-linecap:square;stroke-width:0.8;"/>
     </g>
     <g id="line2d_71">
      <g>
       <use style="stroke:#000000;stroke-width:0.8;" x="266.224693" xlink:href="#mdaf538c9f8" y="276.812"/>
      </g>
     </g>
     <g id="text_46">
      <!-- $-4$ -->
      <g transform="translate(259.859653 290.730498)scale(0.1 -0.1)">
       <use transform="scale(0.996264)" xlink:href="#CMSY10-0"/>
       <use transform="translate(77.487468 0)scale(0.996264)" xlink:href="#CMR17-52"/>
      </g>
     </g>
    </g>
    <g id="xtick_17">
     <g id="line2d_72">
      <path clip-path="url(#p2eddb759ac)" d="M 296.617884 276.812 
L 296.617884 163.572851 
" style="fill:none;stroke:#b0b0b0;stroke-linecap:square;stroke-width:0.8;"/>
     </g>
     <g id="line2d_73">
      <g>
       <use style="stroke:#000000;stroke-width:0.8;" x="296.617884" xlink:href="#mdaf538c9f8" y="276.812"/>
      </g>
     </g>
     <g id="text_47">
      <!-- $-2$ -->
      <g transform="translate(290.252845 290.730498)scale(0.1 -0.1)">
       <use transform="scale(0.996264)" xlink:href="#CMSY10-0"/>
       <use transform="translate(77.487468 0)scale(0.996264)" xlink:href="#CMR17-50"/>
      </g>
     </g>
    </g>
    <g id="xtick_18">
     <g id="line2d_74">
      <path clip-path="url(#p2eddb759ac)" d="M 327.011076 276.812 
L 327.011076 163.572851 
" style="fill:none;stroke:#b0b0b0;stroke-linecap:square;stroke-width:0.8;"/>
     </g>
     <g id="line2d_75">
      <g>
       <use style="stroke:#000000;stroke-width:0.8;" x="327.011076" xlink:href="#mdaf538c9f8" y="276.812"/>
      </g>
     </g>
     <g id="text_48">
      <!-- $0$ -->
      <g transform="translate(324.520408 290.730498)scale(0.1 -0.1)">
       <use transform="scale(0.996264)" xlink:href="#CMR17-48"/>
      </g>
     </g>
    </g>
    <g id="xtick_19">
     <g id="line2d_76">
      <path clip-path="url(#p2eddb759ac)" d="M 357.404267 276.812 
L 357.404267 163.572851 
" style="fill:none;stroke:#b0b0b0;stroke-linecap:square;stroke-width:0.8;"/>
     </g>
     <g id="line2d_77">
      <g>
       <use style="stroke:#000000;stroke-width:0.8;" x="357.404267" xlink:href="#mdaf538c9f8" y="276.812"/>
      </g>
     </g>
     <g id="text_49">
      <!-- $2$ -->
      <g transform="translate(354.913599 290.730498)scale(0.1 -0.1)">
       <use transform="scale(0.996264)" xlink:href="#CMR17-50"/>
      </g>
     </g>
    </g>
    <g id="xtick_20">
     <g id="line2d_78">
      <path clip-path="url(#p2eddb759ac)" d="M 387.797459 276.812 
L 387.797459 163.572851 
" style="fill:none;stroke:#b0b0b0;stroke-linecap:square;stroke-width:0.8;"/>
     </g>
     <g id="line2d_79">
      <g>
       <use style="stroke:#000000;stroke-width:0.8;" x="387.797459" xlink:href="#mdaf538c9f8" y="276.812"/>
      </g>
     </g>
     <g id="text_50">
      <!-- $4$ -->
      <g transform="translate(385.306791 290.730498)scale(0.1 -0.1)">
       <use transform="scale(0.996264)" xlink:href="#CMR17-52"/>
      </g>
     </g>
    </g>
    <g id="text_51">
     <!-- Position (m) -->
     <g transform="translate(300.83144 304.139657)scale(0.1 -0.1)">
      <use transform="scale(0.996264)" xlink:href="#CMSS17-80"/>
      <use transform="translate(57.133132 0)scale(0.996264)" xlink:href="#CMSS17-111"/>
      <use transform="translate(103.976756 0)scale(0.996264)" xlink:href="#CMSS17-115"/>
      <use transform="translate(139.890298 0)scale(0.996264)" xlink:href="#CMSS17-105"/>
      <use transform="translate(162.071021 0)scale(0.996264)" xlink:href="#CMSS17-116"/>
      <use transform="translate(195.902588 0)scale(0.996264)" xlink:href="#CMSS17-105"/>
      <use transform="translate(218.083311 0)scale(0.996264)" xlink:href="#CMSS17-111"/>
      <use transform="translate(264.926934 0)scale(0.996264)" xlink:href="#CMSS17-110"/>
      <use transform="translate(344.36099 0)scale(0.996264)" xlink:href="#CMSS17-40"/>
      <use transform="translate(380.794904 0)scale(0.996264)" xlink:href="#CMSS17-109"/>
      <use transform="translate(455.024159 0)scale(0.996264)" xlink:href="#CMSS17-41"/>
     </g>
    </g>
   </g>
   <g id="matplotlib.axis_8">
    <g id="ytick_16">
     <g id="line2d_80">
      <path clip-path="url(#p2eddb759ac)" d="M 251.028097 276.812 
L 402.994054 276.812 
" style="fill:none;stroke:#b0b0b0;stroke-linecap:square;stroke-width:0.8;"/>
     </g>
     <g id="line2d_81">
      <g>
       <use style="stroke:#000000;stroke-width:0.8;" x="251.028097" xlink:href="#m1e08a046a9" y="276.812"/>
      </g>
     </g>
     <g id="text_52">
      <!-- $-10$ -->
      <g transform="translate(226.316683 280.271249)scale(0.1 -0.1)">
       <use transform="scale(0.996264)" xlink:href="#CMSY10-0"/>
       <use transform="translate(77.487468 0)scale(0.996264)" xlink:href="#CMR17-49"/>
       <use transform="translate(123.177945 0)scale(0.996264)" xlink:href="#CMR17-48"/>
      </g>
     </g>
    </g>
    <g id="ytick_17">
     <g id="line2d_82">
      <path clip-path="url(#p2eddb759ac)" d="M 251.028097 248.502213 
L 402.994054 248.502213 
" style="fill:none;stroke:#b0b0b0;stroke-linecap:square;stroke-width:0.8;"/>
     </g>
     <g id="line2d_83">
      <g>
       <use style="stroke:#000000;stroke-width:0.8;" x="251.028097" xlink:href="#m1e08a046a9" y="248.502213"/>
      </g>
     </g>
     <g id="text_53">
      <!-- $-5$ -->
      <g transform="translate(231.298018 251.961462)scale(0.1 -0.1)">
       <use transform="scale(0.996264)" xlink:href="#CMSY10-0"/>
       <use transform="translate(77.487468 0)scale(0.996264)" xlink:href="#CMR17-53"/>
      </g>
     </g>
    </g>
    <g id="ytick_18">
     <g id="line2d_84">
      <path clip-path="url(#p2eddb759ac)" d="M 251.028097 220.192426 
L 402.994054 220.192426 
" style="fill:none;stroke:#b0b0b0;stroke-linecap:square;stroke-width:0.8;"/>
     </g>
     <g id="line2d_85">
      <g>
       <use style="stroke:#000000;stroke-width:0.8;" x="251.028097" xlink:href="#m1e08a046a9" y="220.192426"/>
      </g>
     </g>
     <g id="text_54">
      <!-- $0$ -->
      <g transform="translate(239.046762 223.651675)scale(0.1 -0.1)">
       <use transform="scale(0.996264)" xlink:href="#CMR17-48"/>
      </g>
     </g>
    </g>
    <g id="ytick_19">
     <g id="line2d_86">
      <path clip-path="url(#p2eddb759ac)" d="M 251.028097 191.882638 
L 402.994054 191.882638 
" style="fill:none;stroke:#b0b0b0;stroke-linecap:square;stroke-width:0.8;"/>
     </g>
     <g id="line2d_87">
      <g>
       <use style="stroke:#000000;stroke-width:0.8;" x="251.028097" xlink:href="#m1e08a046a9" y="191.882638"/>
      </g>
     </g>
     <g id="text_55">
      <!-- $5$ -->
      <g transform="translate(239.046762 195.341887)scale(0.1 -0.1)">
       <use transform="scale(0.996264)" xlink:href="#CMR17-53"/>
      </g>
     </g>
    </g>
    <g id="ytick_20">
     <g id="line2d_88">
      <path clip-path="url(#p2eddb759ac)" d="M 251.028097 163.572851 
L 402.994054 163.572851 
" style="fill:none;stroke:#b0b0b0;stroke-linecap:square;stroke-width:0.8;"/>
     </g>
     <g id="line2d_89">
      <g>
       <use style="stroke:#000000;stroke-width:0.8;" x="251.028097" xlink:href="#m1e08a046a9" y="163.572851"/>
      </g>
     </g>
     <g id="text_56">
      <!-- $10$ -->
      <g transform="translate(234.065426 167.0321)scale(0.1 -0.1)">
       <use transform="scale(0.996264)" xlink:href="#CMR17-49"/>
       <use transform="translate(45.690477 0)scale(0.996264)" xlink:href="#CMR17-48"/>
      </g>
     </g>
    </g>
    <g id="text_57">
     <!-- Potential (V) -->
     <g transform="translate(219.826023 247.741932)rotate(-90)scale(0.1 -0.1)">
      <use transform="scale(0.996264)" xlink:href="#CMSS17-80"/>
      <use transform="translate(57.133132 0)scale(0.996264)" xlink:href="#CMSS17-111"/>
      <use transform="translate(103.976756 0)scale(0.996264)" xlink:href="#CMSS17-116"/>
      <use transform="translate(137.808323 0)scale(0.996264)" xlink:href="#CMSS17-101"/>
      <use transform="translate(179.447145 0)scale(0.996264)" xlink:href="#CMSS17-110"/>
      <use transform="translate(227.652088 0)scale(0.996264)" xlink:href="#CMSS17-116"/>
      <use transform="translate(261.483654 0)scale(0.996264)" xlink:href="#CMSS17-105"/>
      <use transform="translate(283.664377 0)scale(0.996264)" xlink:href="#CMSS17-97"/>
      <use transform="translate(328.586298 0)scale(0.996264)" xlink:href="#CMSS17-108"/>
      <use transform="translate(381.996134 0)scale(0.996264)" xlink:href="#CMSS17-40"/>
      <use transform="translate(418.430048 0)scale(0.996264)" xlink:href="#CMSS17-86"/>
      <use transform="translate(480.647903 0)scale(0.996264)" xlink:href="#CMSS17-41"/>
     </g>
    </g>
   </g>
   <g id="line2d_90">
    <path clip-path="url(#p2eddb759ac)" d="M 251.028097 290.966894 
L 254.070458 282.801311 
L 257.11282 275.289265 
L 260.003063 268.733331 
L 262.893307 262.719242 
L 265.78355 257.223626 
L 268.521676 252.474332 
L 271.259801 248.149523 
L 273.997926 244.229327 
L 276.736052 240.693873 
L 279.474177 237.523289 
L 282.212302 234.697703 
L 284.950428 232.197243 
L 287.688553 230.002036 
L 290.426678 228.092212 
L 293.164804 226.447899 
L 296.055047 224.978323 
L 298.945291 223.759065 
L 301.987652 222.720372 
L 305.182132 221.870556 
L 308.528729 221.211015 
L 312.179563 220.718787 
L 316.286751 220.391418 
L 321.306648 220.222373 
L 331.346441 220.179279 
L 337.279046 220.01777 
L 341.69047 219.682094 
L 345.493422 219.173837 
L 348.992138 218.478967 
L 352.186617 217.618096 
L 355.228979 216.567477 
L 358.119222 215.335627 
L 360.857347 213.936952 
L 363.595473 212.292639 
L 366.333598 210.382815 
L 369.071723 208.187609 
L 371.657731 205.834409 
L 374.243738 203.19219 
L 376.829745 200.24421 
L 379.415753 196.97373 
L 382.153878 193.14075 
L 384.892003 188.907572 
L 387.630129 184.254325 
L 390.368254 179.161137 
L 393.106379 173.608136 
L 395.996623 167.225836 
L 398.886866 160.285701 
L 401.77711 152.76436 
L 402.994054 149.417957 
L 402.994054 149.417957 
" style="fill:none;stroke:#1f77b4;stroke-linecap:square;stroke-width:1.5;"/>
   </g>
   <g id="line2d_91">
    <g clip-path="url(#p2eddb759ac)">
     <use style="fill:#5092dc;stroke:#000000;" x="296.617884" xlink:href="#md5c3511406" y="220.192426"/>
    </g>
   </g>
   <g id="line2d_92">
    <g clip-path="url(#p2eddb759ac)">
     <use style="fill:#dc5050;stroke:#000000;" x="357.404267" xlink:href="#md297a0ea29" y="220.192426"/>
    </g>
   </g>
   <g id="patch_21">
    <path d="M 251.028097 276.812 
L 251.028097 163.572851 
" style="fill:none;stroke:#000000;stroke-linecap:square;stroke-linejoin:miter;stroke-width:0.8;"/>
   </g>
   <g id="patch_22">
    <path d="M 402.994054 276.812 
L 402.994054 163.572851 
" style="fill:none;stroke:#000000;stroke-linecap:square;stroke-linejoin:miter;stroke-width:0.8;"/>
   </g>
   <g id="patch_23">
    <path d="M 251.028097 276.812 
L 402.994054 276.812 
" style="fill:none;stroke:#000000;stroke-linecap:square;stroke-linejoin:miter;stroke-width:0.8;"/>
   </g>
   <g id="patch_24">
    <path d="M 251.028097 163.572851 
L 402.994054 163.572851 
" style="fill:none;stroke:#000000;stroke-linecap:square;stroke-linejoin:miter;stroke-width:0.8;"/>
   </g>
   <g id="text_58">
    <g id="patch_25">
     <path d="M 264.304693 185.5782 
L 279.370981 185.5782 
L 279.370981 167.569135 
L 264.304693 167.569135 
z
" style="fill:#ffffff;stroke:#000000;stroke-linejoin:miter;"/>
    </g>
    <!-- D -->
    <defs>
     <path d="M 8.90625 69 
L 8.90625 0 
L 33.5 0 
C 49.90625 0 62.5 15.3125 62.5 33.90625 
C 62.5 53.09375 49.90625 69 33.5 69 
z
M 17.09375 5.578125 
L 17.09375 63.421875 
L 31.296875 63.421875 
C 44.703125 63.421875 54.296875 51.203125 54.296875 33.90625 
C 54.296875 17.296875 44.796875 5.578125 31.296875 5.578125 
z
" id="CMSS17-68"/>
    </defs>
    <g transform="translate(266.224693 180.558723)scale(0.16 -0.16)">
     <use transform="scale(0.996264)" xlink:href="#CMSS17-68"/>
    </g>
   </g>
   <g id="text_59">
    <!-- $-$ -->
    <g transform="translate(291.968639 223.181218)scale(0.12 -0.12)">
     <use transform="scale(0.996264)" xlink:href="#CMSY10-0"/>
    </g>
   </g>
   <g id="text_60">
    <!-- $+$ -->
    <g transform="translate(352.851941 223.181218)scale(0.12 -0.12)">
     <use transform="scale(0.996264)" xlink:href="#CMR17-43"/>
    </g>
   </g>
  </g>
 </g>
 <defs>
  <clipPath id="pbea6d78aba">
   <rect height="113.239149" width="151.965957" x="45.874054" y="10.7"/>
  </clipPath>
  <clipPath id="p51edbec6ab">
   <rect height="113.239149" width="151.965957" x="251.028097" y="10.7"/>
  </clipPath>
  <clipPath id="pd907438d24">
   <rect height="113.239149" width="151.965957" x="45.874054" y="163.572851"/>
  </clipPath>
  <clipPath id="p2eddb759ac">
   <rect height="113.239149" width="151.965957" x="251.028097" y="163.572851"/>
  </clipPath>
 </defs>
</svg>
